<svg width="38.000000" height="26.000000" viewBox="0 0 38 26" fill="none" xmlns="http://www.w3.org/2000/svg" xmlns:xlink="http://www.w3.org/1999/xlink">
	<desc>
			Created with Pixso.
	</desc>
	<defs/>
	<path id="Icon" d="M35.28 -0.94L2.71 -0.94C1.99 -0.94 1.3 -0.67 0.79 -0.18C0.28 0.31 0 0.97 0 1.66L0 7.01L0 22.46C0 23.15 0.28 23.81 0.79 24.3C1.3 24.78 1.99 25.06 2.71 25.06L35.28 25.06C36 25.06 36.69 24.78 37.2 24.3C37.71 23.81 38 23.15 38 22.46L38 1.66C38 0.97 37.71 0.31 37.2 -0.18C36.69 -0.67 36 -0.94 35.28 -0.94ZM20.35 19.87L17.64 19.87C17.28 19.87 16.93 19.73 16.68 19.49C16.42 19.25 16.28 18.92 16.28 18.57C16.28 18.23 16.42 17.89 16.68 17.65C16.93 17.41 17.28 17.27 17.64 17.27L20.35 17.27C20.71 17.27 21.06 17.41 21.31 17.65C21.57 17.89 21.71 18.23 21.71 18.57C21.71 18.92 21.57 19.25 21.31 19.49C21.06 19.73 20.71 19.87 20.35 19.87ZM31.21 19.87L25.78 19.87C25.42 19.87 25.08 19.73 24.82 19.49C24.57 19.25 24.42 18.92 24.42 18.57C24.42 18.23 24.57 17.89 24.82 17.65C25.08 17.41 25.42 17.27 25.78 17.27L31.21 17.27C31.57 17.27 31.91 17.41 32.17 17.65C32.42 17.89 32.57 18.23 32.57 18.57C32.57 18.92 32.42 19.25 32.17 19.49C31.91 19.73 31.57 19.87 31.21 19.87ZM2.71 5.71L2.71 1.66L35.28 1.66L35.28 5.71L2.71 5.71Z" fill="#FFCC4A" fill-opacity="1.000000" fill-rule="nonzero"/>
</svg>
