<svg width="34.000000" height="26.000000" viewBox="0 0 34 26" fill="none" xmlns="http://www.w3.org/2000/svg" xmlns:xlink="http://www.w3.org/1999/xlink">
	<defs/>
	<path id="Vector" d="M32.69 -0.94L1.3 -0.94C0.96 -0.94 0.62 -0.8 0.38 -0.56C0.13 -0.32 0 0.01 0 0.36L0 22.46C0 23.15 0.27 23.81 0.76 24.3C1.25 24.78 1.92 25.06 2.61 25.06L31.38 25.06C32.07 25.06 32.74 24.78 33.23 24.3C33.72 23.81 34 23.15 34 22.46L34 0.36C34 0.01 33.86 -0.32 33.61 -0.56C33.37 -0.8 33.03 -0.94 32.69 -0.94ZM2.61 9.46L9.15 9.46L9.15 14.66L2.61 14.66L2.61 9.46ZM11.76 9.46L31.38 9.46L31.38 14.66L11.76 14.66L11.76 9.46ZM2.61 17.26L9.15 17.26L9.15 22.46L2.61 22.46L2.61 17.26ZM31.38 22.46L11.76 22.46L11.76 17.26L31.38 17.26L31.38 22.46Z" fill="#181818" fill-opacity="1.000000" fill-rule="nonzero"/>
</svg>
