<svg width="36.000000" height="30.000000" viewBox="0 0 36 30" fill="none" xmlns="http://www.w3.org/2000/svg" xmlns:xlink="http://www.w3.org/1999/xlink">
	<desc>
			Created with Pixso.
	</desc>
	<defs/>
	<path id="Vector" d="M36 27.81C36 28.14 35.87 28.46 35.64 28.69C35.42 28.93 35.11 29.06 34.79 29.06L1.2 29.06C0.88 29.06 0.57 28.93 0.35 28.69C0.12 28.46 0 28.14 0 27.81C0 27.48 0.12 27.16 0.35 26.92C0.57 26.69 0.88 26.56 1.2 26.56L34.79 26.56C35.11 26.56 35.42 26.69 35.64 26.92C35.87 27.16 36 27.48 36 27.81ZM1.24 10.65C1.17 10.39 1.18 10.11 1.28 9.86C1.37 9.6 1.54 9.39 1.77 9.25L17.37 -0.75C17.55 -0.88 17.77 -0.94 18 -0.94C18.22 -0.94 18.44 -0.88 18.62 -0.75L34.23 9.25C34.45 9.39 34.62 9.6 34.71 9.86C34.81 10.11 34.82 10.39 34.75 10.65C34.68 10.91 34.53 11.14 34.32 11.31C34.11 11.47 33.86 11.56 33.6 11.56L30 11.56L30 21.56L32.39 21.56C32.71 21.56 33.02 21.69 33.24 21.92C33.47 22.16 33.6 22.48 33.6 22.81C33.6 23.14 33.47 23.46 33.24 23.69C33.02 23.93 32.71 24.06 32.39 24.06L3.6 24.06C3.28 24.06 2.97 23.93 2.75 23.69C2.52 23.46 2.39 23.14 2.39 22.81C2.39 22.48 2.52 22.16 2.75 21.92C2.97 21.69 3.28 21.56 3.6 21.56L6 21.56L6 11.56L2.39 11.56C2.13 11.56 1.88 11.47 1.67 11.31C1.46 11.14 1.31 10.91 1.24 10.65ZM20.39 20.31C20.39 20.64 20.52 20.96 20.75 21.19C20.97 21.43 21.28 21.56 21.6 21.56C21.91 21.56 22.22 21.43 22.44 21.19C22.67 20.96 22.79 20.64 22.79 20.31L22.79 12.81C22.79 12.48 22.67 12.16 22.44 11.93C22.22 11.69 21.91 11.56 21.6 11.56C21.28 11.56 20.97 11.69 20.75 11.93C20.52 12.16 20.39 12.48 20.39 12.81L20.39 20.31ZM13.2 20.31C13.2 20.64 13.32 20.96 13.55 21.19C13.77 21.43 14.08 21.56 14.39 21.56C14.71 21.56 15.02 21.43 15.24 21.19C15.47 20.96 15.6 20.64 15.6 20.31L15.6 12.81C15.6 12.48 15.47 12.16 15.24 11.93C15.02 11.69 14.71 11.56 14.39 11.56C14.08 11.56 13.77 11.69 13.55 11.93C13.32 12.16 13.2 12.48 13.2 12.81L13.2 20.31Z" fill="#181818" fill-opacity="1.000000" fill-rule="nonzero"/>
</svg>
