<svg width="30.000000" height="20.000000" viewBox="0 0 30 20" fill="none" xmlns="http://www.w3.org/2000/svg" xmlns:xlink="http://www.w3.org/1999/xlink">
	<desc>
			Created with Pixso.
	</desc>
	<defs/>
	<path id="Vector" d="M30 1.11L30 10C30 10.21 29.93 10.43 29.82 10.61C29.7 10.79 29.53 10.94 29.34 11.02C29.21 11.08 29.07 11.11 28.92 11.11C28.64 11.1 28.37 10.99 28.16 10.79L24.64 7.12L16.83 15.23C16.63 15.44 16.35 15.56 16.07 15.56C15.78 15.56 15.51 15.44 15.31 15.23L10.71 10.45L1.84 19.68C1.63 19.88 1.36 19.99 1.07 20C0.79 19.99 0.52 19.88 0.31 19.68C0.11 19.46 0 19.18 0 18.88C0 18.59 0.11 18.3 0.31 18.09L9.95 8.09C10.15 7.88 10.43 7.77 10.71 7.77C11 7.77 11.27 7.88 11.48 8.09L16.07 12.87L23.13 5.55L19.59 1.9C19.45 1.74 19.35 1.54 19.31 1.32C19.27 1.1 19.29 0.88 19.36 0.68C19.45 0.47 19.58 0.3 19.76 0.18C19.94 0.06 20.14 0 20.35 0L28.92 0C29.21 0 29.48 0.11 29.68 0.32C29.88 0.53 30 0.81 30 1.11Z" fill="#181818" fill-opacity="1.000000" fill-rule="nonzero"/>
</svg>
