<svg width="30.000000" height="26.000000" viewBox="0 0 30 26" fill="none" xmlns="http://www.w3.org/2000/svg" xmlns:xlink="http://www.w3.org/1999/xlink">
	<desc>
			Created with Pixso.
	</desc>
	<defs/>
	<path id="Vector" d="M27.6 4.72L3.6 4.72C3.28 4.72 2.97 4.6 2.75 4.38C2.52 4.15 2.39 3.85 2.39 3.54C2.39 3.23 2.52 2.93 2.75 2.7C2.97 2.48 3.28 2.36 3.6 2.36L24 2.36C24.31 2.36 24.62 2.23 24.84 2.01C25.07 1.79 25.2 1.49 25.2 1.18C25.2 0.86 25.07 0.56 24.84 0.34C24.62 0.12 24.31 0 24 0L3.6 0C2.64 0 1.73 0.37 1.05 1.04C0.38 1.7 0 2.6 0 3.54L0 22.45C0 23.39 0.38 24.29 1.05 24.95C1.73 25.62 2.64 25.99 3.6 26L27.6 26C28.23 26 28.84 25.75 29.29 25.3C29.74 24.86 30 24.26 30 23.63L30 7.09C30 6.46 29.74 5.86 29.29 5.41C28.84 4.97 28.23 4.72 27.6 4.72ZM22.2 17.13C21.84 17.13 21.49 17.03 21.2 16.83C20.9 16.64 20.67 16.36 20.53 16.04C20.4 15.71 20.36 15.36 20.43 15.01C20.5 14.67 20.67 14.35 20.92 14.11C21.17 13.86 21.49 13.69 21.84 13.62C22.19 13.55 22.56 13.59 22.88 13.72C23.21 13.86 23.49 14.08 23.69 14.37C23.89 14.67 24 15.01 24 15.36C24 15.83 23.81 16.28 23.47 16.61C23.13 16.94 22.67 17.13 22.2 17.13Z" fill="#181818" fill-opacity="1.000000" fill-rule="nonzero"/>
</svg>
