<svg width="32.000000" height="30.000000" viewBox="0 0 32 30" fill="none" xmlns="http://www.w3.org/2000/svg" xmlns:xlink="http://www.w3.org/1999/xlink">
	<desc>
			Created with Pixso.
	</desc>
	<defs/>
	<path id="Vector" d="M31.63 11.67C31.6 11.52 31.53 11.37 31.43 11.24C31.33 11.11 31.2 11.01 31.06 10.93L27.66 9.08C27.48 8.72 27.28 8.37 27.06 8.03L27.12 4.22C27.12 4.06 27.09 3.9 27.02 3.76C26.96 3.61 26.87 3.48 26.75 3.37C25.06 1.86 23.05 0.73 20.88 0.05C20.72 0 20.56 -0.02 20.39 0C20.23 0.02 20.08 0.08 19.94 0.16L16.61 2.12C16.19 2.11 15.8 2.11 15.38 2.12L12.05 0.16C11.91 0.08 11.76 0.02 11.6 0C11.43 -0.02 11.27 0 11.11 0.05C8.93 0.73 6.93 1.87 5.24 3.38C5.12 3.49 5.03 3.62 4.96 3.76C4.9 3.91 4.87 4.06 4.87 4.22L4.94 8.03C4.71 8.37 4.51 8.72 4.31 9.08L0.93 10.93C0.78 11 0.66 11.11 0.56 11.24C0.46 11.37 0.39 11.52 0.36 11.67C-0.13 13.86 -0.13 16.12 0.36 18.31C0.39 18.47 0.46 18.62 0.56 18.74C0.66 18.87 0.79 18.98 0.93 19.05L4.33 20.9C4.51 21.27 4.72 21.62 4.94 21.95L4.87 25.76C4.87 25.92 4.9 26.08 4.97 26.23C5.03 26.38 5.12 26.51 5.24 26.62C6.94 28.12 8.94 29.25 11.11 29.94C11.27 29.99 11.43 30 11.6 29.98C11.76 29.96 11.91 29.91 12.05 29.83L15.38 27.87L16.61 27.87L19.95 29.83C20.12 29.94 20.33 30 20.54 30C20.65 29.99 20.77 29.97 20.88 29.94C23.06 29.26 25.06 28.12 26.75 26.61C26.87 26.5 26.96 26.37 27.03 26.22C27.09 26.08 27.12 25.92 27.12 25.76L27.06 21.95C27.28 21.62 27.48 21.27 27.68 20.9L31.07 19.05C31.22 18.98 31.34 18.87 31.43 18.74C31.53 18.62 31.6 18.47 31.63 18.31C32.12 16.12 32.12 13.86 31.63 11.67ZM22.28 14.99C22.28 16.21 21.91 17.4 21.22 18.42C20.53 19.43 19.55 20.22 18.4 20.69C17.25 21.15 15.99 21.28 14.77 21.04C13.55 20.8 12.43 20.21 11.55 19.35C10.67 18.49 10.08 17.39 9.83 16.2C9.59 15 9.71 13.76 10.19 12.63C10.67 11.51 11.47 10.55 12.5 9.87C13.54 9.19 14.75 8.83 16 8.83C17.66 8.83 19.26 9.48 20.44 10.63C21.62 11.79 22.28 13.36 22.28 14.99Z" fill="#181818" fill-opacity="1.000000" fill-rule="nonzero"/>
</svg>
