<svg width="227.000000" height="228.000000" viewBox="0 0 227 228" fill="none" xmlns="http://www.w3.org/2000/svg" xmlns:xlink="http://www.w3.org/1999/xlink">
	<desc>
			Created with Pixso.
	</desc>
	<defs>
		<filter id="filter_5_10988_dd" x="49.877930" y="16.746338" width="46.000000" height="46.000000" filterUnits="userSpaceOnUse" color-interpolation-filters="sRGB">
			<feFlood flood-opacity="0" result="BackgroundImageFix"/>
			<feColorMatrix in="SourceAlpha" type="matrix" values="0 0 0 0 0 0 0 0 0 0 0 0 0 0 0 0 0 0 127 0" result="hardAlpha"/>
			<feOffset dx="0" dy="8"/>
			<feGaussianBlur stdDeviation="2.66667"/>
			<feComposite in2="hardAlpha" operator="out" k2="-1" k3="1"/>
			<feColorMatrix type="matrix" values="0 0 0 0 0.96078 0 0 0 0 0.91765 0 0 0 0 0.81176 0 0 0 1 0"/>
			<feBlend mode="normal" in2="BackgroundImageFix" result="effect_dropShadow_1"/>
			<feBlend mode="normal" in="SourceGraphic" in2="effect_dropShadow_1" result="shape"/>
		</filter>
	</defs>
	<path id="Ellipse 26" d="M168.39 39.29C151.47 26.68 130.19 19.72 107.5 21.04C86.43 22.27 65.66 30.62 49.14 46.23C33.78 60.7 23.23 80.45 20.62 103.03C18.15 123.98 22.76 145.89 35.27 164.87C46.85 182.51 64.47 196.32 86.25 202.82C106.46 208.89 128.83 208.15 149.7 199.13C169.08 190.79 185.74 175.84 195.93 155.52C205.41 136.67 208.57 114.5 203.31 92.39C198.46 71.85 186.63 52.85 168.39 39.29ZM52.89 50.2C67.33 36.56 86.46 27.73 107.82 26.49C127.65 25.34 147.98 30.88 165.13 43.67C181.07 55.52 193.09 72.83 198 93.65C202.59 112.98 200.67 133.96 191.05 153.07C182.14 170.83 167.19 185.67 147.53 194.12C129.3 202 108.3 203.75 87.81 197.6C68.78 191.91 51.56 179.75 39.83 161.87C28.9 145.28 23.53 124.9 26.04 103.66C28.33 83.92 37.31 64.86 52.89 50.2Z" fill="#DAAE3C" fill-opacity="1.000000" fill-rule="evenodd"/>
	<path id="Ellipse 27" d="M110.23 20.92C132.84 20.26 153.91 27.8 170.49 40.91C189.09 55.57 200.55 75.94 204.38 97.59C208.54 120.9 203.57 143.75 192.05 162.47C179.67 182.66 160.78 196.43 139.73 202.77C117.07 209.63 93.79 207.37 73.85 198.12C52.36 188.19 36.46 171.04 27.7 150.88C18.23 129.18 17.75 105.8 24.6 84.92C31.64 63.34 45.87 46.09 63.75 34.94C65.03 34.14 66.71 34.59 67.47 35.89C68.22 37.19 67.78 38.86 66.5 39.65C48.5 50.91 35.94 67.75 29.78 86.62C22.83 107.79 24.44 129.74 32.71 148.71C41.58 169.16 57.37 184.49 76.15 193.17C96.36 202.56 118.35 203.53 138.16 197.54C159.5 191.13 176.58 177.24 187.4 159.61C199.1 140.63 202.63 118.91 199.01 98.54C195.14 76.59 183.35 58.01 167.11 45.19C150.4 31.96 130.33 25.84 110.54 26.37C109.04 26.41 107.75 25.27 107.66 23.76C107.57 22.26 108.72 20.96 110.23 20.92Z" fill="#FFFFFF" fill-opacity="1.000000" fill-rule="evenodd"/>
	<g filter="url(#filter_5_10988_dd)">
		<circle id="Ellipse 28" cx="72.877930" cy="31.746338" r="15.000000" fill="#181818" fill-opacity="1.000000"/>
	</g>
	<circle id="Ellipse 28" cx="72.877930" cy="31.746338" r="12.500000" stroke="#FFFFFF" stroke-opacity="1.000000" stroke-width="5.000000"/>
</svg>
