<svg width="228.000000" height="228.000000" viewBox="0 0 228 228" fill="none" xmlns="http://www.w3.org/2000/svg" xmlns:xlink="http://www.w3.org/1999/xlink">
	<desc>
			Created with Pixso.
	</desc>
	<defs>
		<filter id="filter_5_10995_dd" x="35.873047" y="30.291260" width="46.000000" height="46.000000" filterUnits="userSpaceOnUse" color-interpolation-filters="sRGB">
			<feFlood flood-opacity="0" result="BackgroundImageFix"/>
			<feColorMatrix in="SourceAlpha" type="matrix" values="0 0 0 0 0 0 0 0 0 0 0 0 0 0 0 0 0 0 127 0" result="hardAlpha"/>
			<feOffset dx="0" dy="8"/>
			<feGaussianBlur stdDeviation="2.66667"/>
			<feComposite in2="hardAlpha" operator="out" k2="-1" k3="1"/>
			<feColorMatrix type="matrix" values="0 0 0 0 0.96078 0 0 0 0 0.91765 0 0 0 0 0.81176 0 0 0 1 0"/>
			<feBlend mode="normal" in2="BackgroundImageFix" result="effect_dropShadow_1"/>
			<feBlend mode="normal" in="SourceGraphic" in2="effect_dropShadow_1" result="shape"/>
		</filter>
	</defs>
	<path id="Ellipse 26" d="M169.02 39.29C152.1 26.68 130.83 19.72 108.14 21.04C87.07 22.27 66.3 30.62 49.78 46.23C34.42 60.7 23.87 80.45 21.25 103.03C18.79 123.98 23.4 145.89 35.91 164.87C47.49 182.51 65.1 196.32 86.88 202.82C107.1 208.89 129.47 208.15 150.33 199.13C169.72 190.79 186.38 175.84 196.56 155.52C206.05 136.67 209.21 114.5 203.94 92.39C199.09 71.85 187.27 52.85 169.02 39.29ZM53.53 50.2C67.97 36.56 87.1 27.73 108.46 26.49C128.29 25.34 148.62 30.88 165.77 43.67C181.71 55.52 193.72 72.83 198.64 93.65C203.23 112.98 201.31 133.96 191.69 153.07C182.78 170.83 167.82 185.67 148.17 194.12C129.93 202 108.94 203.75 88.45 197.6C69.41 191.91 52.2 179.75 40.46 161.87C29.54 145.28 24.17 124.9 26.67 103.66C28.97 83.92 37.95 64.86 53.53 50.2Z" fill="#DAAE3C" fill-opacity="1.000000" fill-rule="evenodd"/>
	<path id="Ellipse 27" d="M110.87 20.92C133.48 20.26 154.55 27.8 171.13 40.91C189.72 55.57 201.19 75.94 205.02 97.59C209.18 120.9 204.21 143.75 192.69 162.47C180.31 182.66 161.42 196.43 140.37 202.77C117.7 209.63 94.43 207.37 74.49 198.12C52.99 188.19 37.1 171.04 28.34 150.88C18.87 129.18 18.39 105.8 25.23 84.92C32.27 63.34 46.5 46.09 64.39 34.94C65.67 34.14 67.34 34.59 68.1 35.89C68.86 37.19 68.42 38.86 67.14 39.65C49.14 50.91 36.58 67.75 30.42 86.62C23.46 107.79 25.08 129.74 33.34 148.71C42.22 169.16 58.01 184.49 76.79 193.17C97 202.56 118.99 203.53 138.79 197.54C160.14 191.13 177.22 177.24 188.04 159.61C199.73 140.63 203.27 118.91 199.65 98.54C195.77 76.59 183.99 58.01 167.75 45.19C151.04 31.96 130.96 25.84 111.18 26.37C109.67 26.41 108.38 25.27 108.3 23.76C108.21 22.26 109.36 20.96 110.87 20.92Z" fill="#FFFFFF" fill-opacity="1.000000" fill-rule="evenodd"/>
	<g filter="url(#filter_5_10995_dd)">
		<circle id="Ellipse 28" cx="58.873047" cy="45.291260" r="15.000000" fill="#181818" fill-opacity="1.000000"/>
	</g>
	<circle id="Ellipse 28" cx="58.873047" cy="45.291260" r="12.500000" stroke="#FFFFFF" stroke-opacity="1.000000" stroke-width="5.000000"/>
</svg>
