<svg width="228.000000" height="228.000000" viewBox="0 0 228 228" fill="none" xmlns="http://www.w3.org/2000/svg" xmlns:xlink="http://www.w3.org/1999/xlink">
	<desc>
			Created with Pixso.
	</desc>
	<defs>
		<filter id="filter_5_10981_dd" x="18.607422" y="46.715088" width="46.000000" height="46.000000" filterUnits="userSpaceOnUse" color-interpolation-filters="sRGB">
			<feFlood flood-opacity="0" result="BackgroundImageFix"/>
			<feColorMatrix in="SourceAlpha" type="matrix" values="0 0 0 0 0 0 0 0 0 0 0 0 0 0 0 0 0 0 127 0" result="hardAlpha"/>
			<feOffset dx="0" dy="8"/>
			<feGaussianBlur stdDeviation="2.66667"/>
			<feComposite in2="hardAlpha" operator="out" k2="-1" k3="1"/>
			<feColorMatrix type="matrix" values="0 0 0 0 0.96078 0 0 0 0 0.91765 0 0 0 0 0.81176 0 0 0 1 0"/>
			<feBlend mode="normal" in2="BackgroundImageFix" result="effect_dropShadow_1"/>
			<feBlend mode="normal" in="SourceGraphic" in2="effect_dropShadow_1" result="shape"/>
		</filter>
	</defs>
	<path id="Ellipse 26" d="M168.74 39.29C151.83 26.68 130.55 19.72 107.86 21.04C86.79 22.27 66.02 30.62 49.5 46.23C34.14 60.7 23.59 80.45 20.97 103.03C18.51 123.98 23.12 145.89 35.63 164.87C47.21 182.51 64.83 196.32 86.61 202.82C106.82 208.89 129.19 208.15 150.06 199.13C169.44 190.79 186.1 175.84 196.29 155.52C205.77 136.67 208.93 114.5 203.67 92.39C198.81 71.85 186.99 52.85 168.74 39.29ZM53.25 50.2C67.69 36.56 86.82 27.73 108.18 26.49C128.01 25.34 148.34 30.88 165.49 43.67C181.43 55.52 193.45 72.83 198.36 93.65C202.95 112.98 201.03 133.96 191.41 153.07C182.5 170.83 167.54 185.67 147.89 194.12C129.66 202 108.66 203.75 88.17 197.6C69.13 191.91 51.92 179.75 40.19 161.87C29.26 145.28 23.89 124.9 26.39 103.66C28.69 83.92 37.67 64.86 53.25 50.2Z" fill="#DAAE3C" fill-opacity="1.000000" fill-rule="evenodd"/>
	<path id="Ellipse 27" d="M110.59 20.92C134.34 20.23 156.4 28.58 173.33 42.94C192.29 58.98 203.19 81.02 205.64 103.93C208.31 128.63 200.99 152.11 186.96 170.39C171.86 190.1 150.36 202.06 127.6 205.61C103.06 209.47 79.25 203.3 60.32 190.17C39.9 176.04 26.91 155.15 22.26 132.58C17.42 109.22 21.85 86.08 33.01 66.95C33.76 65.65 35.45 65.26 36.73 66.06C38.01 66.86 38.39 68.54 37.64 69.84C26.41 89.12 23.39 111.06 27.6 131.47C32.3 154.37 45.6 173.32 63.42 185.68C82.62 199.02 105.32 203.57 126.75 200.22C149.85 196.64 169.42 184.28 182.63 167.07C196.88 148.54 202.52 126.09 200.22 104.52C197.75 81.28 186.35 61.13 169.81 47.1C152.73 32.61 131.68 25.82 110.9 26.37C109.4 26.41 108.11 25.27 108.02 23.76C107.93 22.26 109.08 20.96 110.59 20.92Z" fill="#FFFFFF" fill-opacity="1.000000" fill-rule="evenodd"/>
	<g filter="url(#filter_5_10981_dd)">
		<circle id="Ellipse 28" cx="41.607422" cy="61.715088" r="15.000000" fill="#181818" fill-opacity="1.000000"/>
	</g>
	<circle id="Ellipse 28" cx="41.607422" cy="61.715088" r="12.500000" stroke="#FFFFFF" stroke-opacity="1.000000" stroke-width="5.000000"/>
</svg>
