<svg width="29" height="28" viewBox="0 0 29 28" fill="none" xmlns="http://www.w3.org/2000/svg">
<path d="M14.6141 20.0885C17.9924 20.0885 20.7311 17.3498 20.7311 13.9715C20.7311 10.5932 17.9924 7.85449 14.6141 7.85449C11.2357 7.85449 8.49707 10.5932 8.49707 13.9715C8.49707 17.3498 11.2357 20.0885 14.6141 20.0885Z" stroke="white" stroke-width="2" stroke-linecap="round" stroke-linejoin="round"/>
<path d="M23.218 8.00547C23.5257 8.44022 23.7951 8.9002 24.0232 9.38034L27.3332 11.1967C27.7465 13.0237 27.7509 14.9178 27.346 16.7466L24.0232 18.563C23.7951 19.0431 23.5257 19.5031 23.218 19.9378L23.2819 23.6841C21.8791 24.9457 20.2188 25.8962 18.4127 26.4716L15.1538 24.5418C14.6177 24.5796 14.0796 24.5796 13.5435 24.5418L10.2973 26.459C8.48551 25.8941 6.81973 24.9472 5.41533 23.6841L5.47923 19.9505C5.17413 19.5097 4.9049 19.0457 4.67408 18.563L1.36403 16.7466C0.95072 14.9196 0.946359 13.0256 1.35125 11.1967L4.67408 9.38034C4.90218 8.9002 5.17155 8.44022 5.47923 8.00547L5.41533 4.25926C6.81814 2.99762 8.47844 2.04711 10.2846 1.47168L13.5435 3.40155C14.0796 3.3637 14.6177 3.3637 15.1538 3.40155L18.3999 1.48429C20.2118 2.04925 21.8775 2.99609 23.2819 4.25926L23.218 8.00547Z" stroke="white" stroke-width="2" stroke-linecap="round" stroke-linejoin="round"/>
</svg>
