<svg width="34" height="34" viewBox="0 0 34 34" fill="none" xmlns="http://www.w3.org/2000/svg">
<path d="M16.8602 29.841C23.741 29.841 29.319 24.263 29.319 17.3822C29.319 10.5014 23.741 4.92334 16.8602 4.92334C9.97938 4.92334 4.40137 10.5014 4.40137 17.3822C4.40137 24.263 9.97938 29.841 16.8602 29.841Z" stroke="white" stroke-width="2" stroke-linecap="round" stroke-linejoin="round"/>
<path d="M6.68555 24.572L8.20397 23.6505C8.35456 23.5577 8.4789 23.4278 8.56522 23.2734C8.65153 23.1189 8.69694 22.945 8.69713 22.768L8.72309 18.083C8.72516 17.8888 8.78378 17.6994 8.8918 17.5379L11.4614 13.5018C11.5385 13.3825 11.639 13.2801 11.7568 13.2008C11.8746 13.1214 12.0072 13.0668 12.1467 13.0401C12.2861 13.0134 12.4296 13.0153 12.5683 13.0455C12.7071 13.0758 12.8382 13.1339 12.9539 13.2163L15.4976 15.0591C15.717 15.2121 15.9842 15.2812 16.2503 15.2538L20.3384 14.6958C20.5864 14.6616 20.8129 14.5368 20.9743 14.3453L23.8554 11.023C24.0262 10.8205 24.1143 10.5609 24.102 10.2962L23.9592 7.14258" stroke="white" stroke-width="2" stroke-linecap="round" stroke-linejoin="round"/>
<path d="M24.5297 27.2066L23.1281 25.805C22.9984 25.6754 22.8375 25.5815 22.6609 25.5324L19.8706 24.8057C19.6255 24.7386 19.4136 24.584 19.2749 24.3711C19.1361 24.1583 19.0803 23.9019 19.1179 23.6506L19.4164 21.5482C19.446 21.3714 19.5198 21.2049 19.631 21.0642C19.7422 20.9236 19.8871 20.8133 20.0523 20.7436L23.9976 19.0954C24.1808 19.019 24.3821 18.9967 24.5777 19.0312C24.7732 19.0657 24.9547 19.1555 25.1007 19.29L28.3322 22.249" stroke="white" stroke-width="2" stroke-linecap="round" stroke-linejoin="round"/>
</svg>
