<svg width="18" height="23" viewBox="0 0 18 23" fill="none" xmlns="http://www.w3.org/2000/svg">
<path d="M8.99883 12.2C10.7661 12.2 12.1988 10.7674 12.1988 9.00005C12.1988 7.23274 10.7661 5.80005 8.99883 5.80005C7.23152 5.80005 5.79883 7.23274 5.79883 9.00005C5.79883 10.7674 7.23152 12.2 8.99883 12.2Z" stroke="white" stroke-linecap="round" stroke-linejoin="round"/>
<path d="M17 9C17 16.2 9 21.8 9 21.8C9 21.8 1 16.2 1 9C1 6.87827 1.84285 4.84344 3.34315 3.34315C4.84344 1.84285 6.87827 1 9 1C11.1217 1 13.1566 1.84285 14.6569 3.34315C16.1571 4.84344 17 6.87827 17 9V9Z" stroke="white" stroke-linecap="round" stroke-linejoin="round"/>
</svg>
