<svg width="20" height="20" viewBox="0 0 20 20" fill="none" xmlns="http://www.w3.org/2000/svg">
<path d="M6.14525 10.062C6.95205 11.7281 8.29928 13.0718 9.96744 13.8743C10.0905 13.9326 10.2266 13.9578 10.3624 13.9475C10.4981 13.9372 10.6288 13.8917 10.7417 13.8155L13.1918 12.1789C13.3001 12.1054 13.4251 12.0606 13.5554 12.0486C13.6856 12.0367 13.8168 12.0578 13.9366 12.1103L18.5233 14.0802C18.68 14.1454 18.811 14.2604 18.896 14.4074C18.981 14.5543 19.0153 14.7252 18.9937 14.8936C18.8483 16.0282 18.2945 17.071 17.4358 17.8269C16.5772 18.5827 15.4726 18.9997 14.3287 19C10.7937 19 7.40348 17.5957 4.90387 15.0961C2.40427 12.5965 1 9.20632 1 5.67134C1.00026 4.52743 1.41732 3.4228 2.17314 2.56415C2.92897 1.70551 3.97176 1.15168 5.1064 1.00631C5.27481 0.984678 5.44566 1.01901 5.59265 1.10401C5.73963 1.18901 5.8546 1.31998 5.91984 1.47673L7.88974 6.07316C7.94097 6.19111 7.9624 6.31984 7.95214 6.44802C7.94189 6.57621 7.90026 6.6999 7.83094 6.8082L6.19426 9.29752C6.12139 9.41011 6.07862 9.53951 6.07004 9.67335C6.06147 9.80719 6.08736 9.94099 6.14525 10.062V10.062Z" stroke="white" stroke-linecap="round" stroke-linejoin="round"/>
</svg>
