<svg width="84.000000" height="49.000000" viewBox="0 0 84 49" fill="none" xmlns="http://www.w3.org/2000/svg" xmlns:xlink="http://www.w3.org/1999/xlink">
	<desc>
			Created with Pixso.
	</desc>
	<defs/>
	<path id="“" d="M83.62 -0.78C82.38 4.5 81.11 10.03 79.81 15.82C78.57 21.62 77.43 27.31 76.39 32.91C75.35 38.45 74.47 43.53 73.75 48.15L46.41 48.15L45.04 46C46.21 41.25 47.71 36.2 49.53 30.86C51.42 25.46 53.44 20.05 55.59 14.65C57.8 9.18 60.02 4.04 62.23 -0.78L83.62 -0.78ZM38.01 -0.78C36.77 4.5 35.5 10.03 34.2 15.82C32.97 21.62 31.83 27.31 30.78 32.91C29.74 38.45 28.86 43.53 28.15 48.15L0.8 48.15L-0.56 46C0.61 41.25 2.11 36.2 3.93 30.86C5.82 25.46 7.83 20.05 9.98 14.65C12.2 9.18 14.41 4.04 16.62 -0.78L38.01 -0.78Z" fill="#FFCC4A" fill-opacity="1.000000" fill-rule="nonzero"/>
</svg>
