<svg width="94.209961" height="94.213623" viewBox="0 0 94.21 94.2136" fill="none" xmlns="http://www.w3.org/2000/svg" xmlns:xlink="http://www.w3.org/1999/xlink">
	<desc>
			Created with Pixso.
	</desc>
	<defs/>
	<path id="Ellipse 9" d="M77.374 11.0281C69.1846 4.14722 58.623 0 47.1045 0C36.4062 0.00415039 25.6504 3.61572 16.833 11.0293C8.63379 17.8997 2.71582 27.5801 0.726562 38.9272C-1.1377 49.4602 0.550781 60.6799 6.32129 70.6514C11.6631 79.9182 20.1689 87.4275 30.998 91.3572C41.0469 95.0222 52.3896 95.3071 63.2119 91.3567C73.2656 87.7048 82.1377 80.6321 87.8887 70.6497C93.2422 61.3896 95.4932 50.2688 93.4814 38.9255C91.6309 28.3904 86.2061 18.4248 77.374 11.0281ZM19.8613 14.6357C27.2314 8.44287 36.7363 4.71045 47.1045 4.71045C56.7314 4.71411 66.4121 7.9646 74.3486 14.6367C81.7275 20.8201 87.0537 29.5325 88.8438 39.7451C90.5215 49.2246 89.002 59.3225 83.8086 68.2966C79.001 76.637 71.3457 83.3953 61.5996 86.9319C52.5547 90.2305 42.3467 90.4868 32.6074 86.9314C23.5586 83.6448 15.5742 77.2793 10.3984 68.2952C5.5791 59.9612 3.55371 49.9524 5.36426 39.7434C7.03027 30.2617 11.9121 21.2927 19.8613 14.6357Z" fill="#F1F1F1" fill-opacity="1.000000" fill-rule="evenodd"/>
	<path id="Ellipse 10" d="M49.459 0.0581055C61.208 0.638184 71.832 5.53418 79.7773 13.1914C88.917 21.9788 93.7266 33.5903 94.1631 45.3496C94.6484 58.0186 90.0557 69.7178 82.2119 78.4895C73.7715 87.9504 62.3477 93.1897 50.6133 94.0647C37.9707 95.0225 26.1084 90.8699 17.0498 83.3586C7.28125 75.2773 1.61914 64.0569 0.306641 52.3628C-1.02637 40.606 2.11328 29.3618 8.35547 20.323C9.09473 19.2527 10.5791 19.0608 11.6113 19.8533C12.6426 20.645 12.8301 22.1194 12.0967 23.1924C6.16992 31.856 3.88379 42.0452 4.9873 51.8413C6.25098 63.1816 11.9043 72.979 20.0596 79.7361C28.8369 87.0264 39.7061 90.1602 50.2666 89.3684C61.6465 88.5286 71.6475 83.2451 78.7041 75.3477C86.3174 66.8479 89.8545 56.1038 89.457 45.5205C89.042 34.1174 84.1357 23.9258 76.5068 16.5796C68.9053 9.24219 59.251 5.32446 49.457 4.7771C48.1582 4.70459 47.1045 3.65674 47.1045 2.3562C47.1045 1.05493 48.1592 -0.00610352 49.459 0.0581055Z" fill="#4EAF4E" fill-opacity="1.000000" fill-rule="evenodd"/>
	<circle id="Ellipse 11" cx="12.183594" cy="19.458740" r="8.189812" fill="#FFFFFF" fill-opacity="1.000000"/>
	<circle id="Ellipse 11" cx="12.183594" cy="19.458740" r="6.189812" stroke="#4EAF4E" stroke-opacity="1.000000" stroke-width="4.000000"/>
</svg>
