<svg width="203.000000" height="75.000000" viewBox="0 0 203 75" fill="none" xmlns="http://www.w3.org/2000/svg" xmlns:xlink="http://www.w3.org/1999/xlink">
	<desc>
			Created with Pixso.
	</desc>
	<defs/>
	<path id="Norto" d="M41.1113 14.9077L37.0547 14.9077L37.0547 52.7192L36.7065 52.7192L9.9751 14.9077L5.99414 14.9077L5.99414 60L10.1113 60L10.1113 22.2339L10.4595 22.2339L37.1001 60L41.1113 60L41.1113 14.9077ZM86.3325 37.4614C86.3325 23.3389 78.2343 14.2871 66.8212 14.2871C55.4384 14.2871 47.3403 23.3691 47.3403 37.4614C47.3403 51.5386 55.4233 60.6206 66.8212 60.6206C78.2343 60.6206 86.3325 51.5688 86.3325 37.4614ZM82.3212 37.4614C82.3515 49.5859 75.7216 56.7456 66.8212 56.7456C57.9057 56.7456 51.3212 49.5405 51.3212 37.4614C51.3212 25.3066 57.9663 18.1621 66.8212 18.1621C75.7216 18.1621 82.3212 25.3218 82.3212 37.4614ZM92.5669 60L96.6841 60L96.6841 41.7754L107.174 41.7754C107.779 41.7754 108.355 41.7451 108.899 41.6997L118.784 60L123.537 60L113.123 40.9126C118.738 39.0659 121.645 34.4341 121.645 28.4097C121.645 20.5234 116.695 14.9077 107.113 14.9077L92.5669 14.9077L92.5669 60ZM96.6841 38.0063L96.6841 18.6011L107.007 18.6011C114.137 18.6011 117.588 22.5063 117.588 28.4097C117.588 34.313 114.137 38.0063 107.068 38.0063L96.6841 38.0063ZM125.231 18.6011L139.521 18.6011L139.521 60L143.638 60L143.638 18.6011L157.927 18.6011L157.927 14.9077L125.231 14.9077L125.231 18.6011ZM198.578 37.4614C198.578 23.3389 190.48 14.2871 179.067 14.2871C167.684 14.2871 159.586 23.3691 159.586 37.4614C159.586 51.5386 167.669 60.6206 179.067 60.6206C190.48 60.6206 198.578 51.5688 198.578 37.4614ZM194.567 37.4614C194.597 49.5859 187.967 56.7456 179.067 56.7456C170.151 56.7456 163.567 49.5405 163.567 37.4614C163.567 25.3066 170.212 18.1621 179.067 18.1621C187.967 18.1621 194.567 25.3218 194.567 37.4614Z" fill="#030211" fill-opacity="1.000000" fill-rule="evenodd"/>
</svg>
