<svg width="246.058594" height="52.625244" viewBox="0 0 246.059 52.6252" fill="none" xmlns="http://www.w3.org/2000/svg" xmlns:xlink="http://www.w3.org/1999/xlink">
	<desc>
			Created with Pixso.
	</desc>
	<defs/>
	<ellipse id="Ellipse 8" cx="123.029297" cy="26.312500" rx="123.029114" ry="26.312622" fill="#030211" fill-opacity="1.000000"/>
	<path id="Fortune" d="M58.6373 19.5691L58.6373 20.9746L52.8807 20.9746L52.8807 25.4417L57.5565 25.4417L57.5565 26.8472L52.8807 26.8472L52.8807 32.8125L51.1505 32.8125L51.1505 19.5691L58.6373 19.5691ZM77.4686 32.947Q75.6224 32.947 74.1009 32.0842Q72.584 31.2168 71.6981 29.6675Q70.8167 28.1182 70.8167 26.1792Q70.8167 24.2449 71.6981 22.6956Q72.584 21.1462 74.1009 20.2834Q75.6224 19.416 77.4686 19.416Q79.3287 19.416 80.8455 20.2834Q82.367 21.1462 83.2391 22.6863Q84.1158 24.2263 84.1158 26.1792Q84.1158 28.1367 83.2391 29.6768Q82.367 31.2168 80.8455 32.0842Q79.3287 32.947 77.4686 32.947ZM77.4686 31.4441Q78.8555 31.4441 79.9642 30.7993Q81.0774 30.1545 81.7129 28.9578Q82.3484 27.7563 82.3484 26.1792Q82.3484 24.5835 81.7129 23.396Q81.0774 22.2085 79.9734 21.5637Q78.8741 20.9189 77.4686 20.9189Q76.063 20.9189 74.959 21.5637Q73.855 22.2085 73.2195 23.396Q72.584 24.5835 72.584 26.1792Q72.584 27.7563 73.2195 28.9578Q73.855 30.1545 74.9683 30.7993Q76.0816 31.4441 77.4686 31.4441ZM104.107 32.8125L100.953 27.3992L98.8607 27.3992L98.8607 32.8125L97.1305 32.8125L97.1305 19.5691L101.407 19.5691Q102.91 19.5691 103.945 20.084Q104.979 20.5942 105.489 21.4709Q106.004 22.343 106.004 23.4656Q106.004 24.834 105.216 25.8777Q104.427 26.9214 102.85 27.2646L106.176 32.8125L104.107 32.8125ZM98.8607 26.0122L101.407 26.0122Q102.813 26.0122 103.513 25.321Q104.218 24.6252 104.218 23.4656Q104.218 22.2874 103.523 21.6426Q102.831 20.9932 101.407 20.9932L98.8607 20.9932L98.8607 26.0122ZM127.572 19.5691L127.572 20.9746L123.959 20.9746L123.959 32.8125L122.233 32.8125L122.233 20.9746L118.601 20.9746L118.601 19.5691L127.572 19.5691ZM142.125 19.5691L142.125 27.9465Q142.125 29.7139 142.987 30.572Q143.855 31.4255 145.39 31.4255Q146.912 31.4255 147.775 30.572Q148.642 29.7139 148.642 27.9465L148.642 19.5691L150.372 19.5691L150.372 27.928Q150.372 29.584 149.704 30.7158Q149.041 31.843 147.909 32.395Q146.777 32.947 145.372 32.947Q143.966 32.947 142.834 32.395Q141.707 31.843 141.048 30.7158Q140.394 29.584 140.394 27.928L140.394 19.5691L142.125 19.5691ZM174.405 32.8125L172.675 32.8125L165.722 22.2688L165.722 32.8125L163.991 32.8125L163.991 19.5505L165.722 19.5505L172.675 30.0757L172.675 19.5505L174.405 19.5505L174.405 32.8125ZM189.814 20.9746L189.814 25.4045L194.643 25.4045L194.643 26.8286L189.814 26.8286L189.814 31.3884L195.208 31.3884L195.208 32.8125L188.083 32.8125L188.083 19.5505L195.208 19.5505L195.208 20.9746L189.814 20.9746Z" fill="#FFFFFF" fill-opacity="1.000000" fill-rule="evenodd"/>
</svg>
