<svg width="186.658203" height="52.000000" viewBox="0 0 186.658 52" fill="none" xmlns="http://www.w3.org/2000/svg" xmlns:xlink="http://www.w3.org/1999/xlink">
	<desc>
			Created with Pixso.
	</desc>
	<defs/>
	<path id="OutOfThe Sand Box" d="M14.0332 11.7295C14.0332 7.125 11.333 4.25391 7.6123 4.25391C3.8916 4.25391 1.19141 7.125 1.19141 11.7295C1.19141 16.3291 3.8916 19.2002 7.6123 19.2002C11.333 19.2002 14.0332 16.3291 14.0332 11.7295ZM12.3291 11.7295C12.3291 15.5039 10.2539 17.5498 7.6123 17.5498C4.9707 17.5498 2.89551 15.5039 2.89551 11.7295C2.89551 7.9502 4.9707 5.9043 7.6123 5.9043C10.2539 5.9043 12.3291 7.9502 12.3291 11.7295ZM37.8359 4.4541L37.8359 13.9414C37.8359 16.0752 36.371 17.6084 33.9443 17.6084C31.5126 17.6084 30.0478 16.0752 30.0478 13.9414L30.0478 4.4541L28.29 4.4541L28.29 14.083C28.29 17.0664 30.5165 19.2539 33.9443 19.2539C37.3671 19.2539 39.5937 17.0664 39.5937 14.083L39.5937 4.4541L37.8359 4.4541ZM53.6236 6.0166L58.1988 6.0166L58.1988 19L59.9566 19L59.9566 6.0166L64.5318 6.0166L64.5318 4.4541L53.6236 4.4541L53.6236 6.0166ZM90.2343 11.7295C90.2343 7.125 87.5341 4.25391 83.8134 4.25391C80.0927 4.25391 77.3925 7.125 77.3925 11.7295C77.3925 16.3291 80.0927 19.2002 83.8134 19.2002C87.5341 19.2002 90.2343 16.3291 90.2343 11.7295ZM88.5302 11.7295C88.5302 15.5039 86.455 17.5498 83.8134 17.5498C81.1718 17.5498 79.0966 15.5039 79.0966 11.7295C79.0966 7.9502 81.1718 5.9043 83.8134 5.9043C86.455 5.9043 88.5302 7.9502 88.5302 11.7295ZM104.491 19L106.249 19L106.249 12.4961L112.558 12.4961L112.558 10.9336L106.249 10.9336L106.249 6.0166L113.212 6.0166L113.212 4.4541L104.491 4.4541L104.491 19ZM126.728 6.0166L131.303 6.0166L131.303 19L133.061 19L133.061 6.0166L137.636 6.0166L137.636 4.4541L126.728 4.4541L126.728 6.0166ZM151.665 19L153.423 19L153.423 12.4961L161.182 12.4961L161.182 19L162.944 19L162.944 4.4541L161.182 4.4541L161.182 10.9336L153.423 10.9336L153.423 4.4541L151.665 4.4541L151.665 19ZM177.766 19L186.658 19L186.658 17.4375L179.524 17.4375L179.524 12.4961L186.086 12.4961L186.086 10.9336L179.524 10.9336L179.524 6.0166L186.545 6.0166L186.545 4.4541L177.766 4.4541L177.766 19ZM9.7168 32.0918L11.4209 32.0918C11.3428 29.8945 9.31641 28.2539 6.50391 28.2539C3.7207 28.2539 1.5332 29.875 1.5332 32.3164C1.5332 34.2793 2.9541 35.4414 5.22949 36.0957L7.0166 36.6084C8.5498 37.0332 9.91699 37.5752 9.91699 39.0205C9.91699 40.6123 8.37891 41.667 6.3623 41.667C4.62891 41.667 3.0957 40.8955 2.9541 39.25L1.1377 39.25C1.30859 41.6377 3.2373 43.2539 6.3623 43.2539C9.7168 43.2539 11.6211 41.4082 11.6211 39.0498C11.6211 36.3252 9.0332 35.4414 7.5293 35.0459L6.0498 34.6455C4.9707 34.3623 3.2373 33.7959 3.2373 32.2334C3.2373 30.8418 4.5166 29.8164 6.4502 29.8164C8.20801 29.8164 9.5459 30.6562 9.7168 32.0918ZM26.4141 43L27.8789 38.8789L33.7578 38.8789L35.2227 43L37.0684 43L31.7266 28.4541L29.9102 28.4541L24.5684 43L26.4141 43ZM28.4307 37.3164L30.7598 30.7539L30.8721 30.7539L33.2012 37.3164L28.4307 37.3164ZM62.1743 28.4541L60.4409 28.4541L60.4409 39.9043L60.2993 39.9043L52.3452 28.4541L50.6411 28.4541L50.6411 43L52.3989 43L52.3989 31.5791L52.5454 31.5791L60.4702 43L62.1743 43L62.1743 28.4541ZM81.4852 43C85.9188 43 88.4188 40.2461 88.4188 35.7002C88.4188 31.1836 85.9188 28.4541 81.6854 28.4541L76.9979 28.4541L76.9979 43L81.4852 43ZM78.7557 41.4375L78.7557 30.0166L81.5682 30.0166C84.9813 30.0166 86.7147 32.1748 86.7147 35.7002C86.7147 39.25 84.9813 41.4375 81.3729 41.4375L78.7557 41.4375ZM119.598 43L124.852 43C128.289 43 129.71 41.3252 129.71 39.1377C129.71 36.833 128.118 35.583 126.785 35.5L126.785 35.3584C128.035 35.0166 129.144 34.1914 129.144 32.3164C129.144 30.1875 127.723 28.4541 124.681 28.4541L119.598 28.4541L119.598 43ZM121.356 41.4375L121.356 36.3789L124.94 36.3789C126.839 36.3789 128.035 37.6582 128.035 39.1377C128.035 40.417 127.152 41.4375 124.852 41.4375L121.356 41.4375ZM121.356 34.8457L121.356 30.0166L124.681 30.0166C126.615 30.0166 127.464 31.042 127.464 32.3164C127.464 33.8545 126.214 34.8457 124.627 34.8457L121.356 34.8457ZM156.18 35.7295C156.18 31.125 153.48 28.2539 149.759 28.2539C146.038 28.2539 143.338 31.125 143.338 35.7295C143.338 40.3291 146.038 43.2002 149.759 43.2002C153.48 43.2002 156.18 40.3291 156.18 35.7295ZM154.476 35.7295C154.476 39.5039 152.401 41.5498 149.759 41.5498C147.117 41.5498 145.042 39.5039 145.042 35.7295C145.042 31.9502 147.117 29.9043 149.759 29.9043C152.401 29.9043 154.476 31.9502 154.476 35.7295ZM171.059 28.4541L168.989 28.4541L173.676 35.7295L168.989 43L171.059 43L174.809 37.0625L174.926 37.0625L178.676 43L180.746 43L176.176 35.7295L180.746 28.4541L178.676 28.4541L174.926 34.5039L174.809 34.5039L171.059 28.4541Z" fill="#030211" fill-opacity="1.000000" fill-rule="evenodd"/>
	<rect id="Rectangle 13" x="93.225586" y="35.212891" width="11.004333" height="9.036743" stroke="#030211" stroke-opacity="1.000000" stroke-width="1.000000"/>
	<rect id="Rectangle 14" x="94.747070" y="36.755859" width="7.972687" height="5.963379" fill="#030211" fill-opacity="1.000000"/>
</svg>
