<svg width="185.260742" height="47.368652" viewBox="0 0 185.261 47.3687" fill="none" xmlns="http://www.w3.org/2000/svg" xmlns:xlink="http://www.w3.org/1999/xlink">
	<desc>
			Created with Pixso.
	</desc>
	<defs/>
	<path id="Points one" d="M62.3623 12.3359L62.3623 16.1934Q62.3623 17.4434 62.6357 17.7461Q63.0068 18.1758 63.7588 18.1758L64.2666 18.1758L64.2666 18.5371L58.5928 18.5371L58.5928 18.1758L59.0908 18.1758Q59.9307 18.1758 60.292 17.6289Q60.4873 17.3262 60.4873 16.1934L60.4873 7.63867Q60.4873 6.38867 60.2236 6.08594Q59.8428 5.65625 59.0908 5.65625L58.5928 5.65625L58.5928 5.29492L63.4463 5.29492Q65.2236 5.29492 66.249 5.66113Q67.2744 6.02734 67.9775 6.89648Q68.6807 7.76562 68.6807 8.95703Q68.6807 10.5781 67.6113 11.5938Q66.542 12.6094 64.5889 12.6094Q64.1104 12.6094 63.5537 12.541Q62.9971 12.4727 62.3623 12.3359ZM62.3623 11.7793Q62.8799 11.877 63.2803 11.9258Q63.6807 11.9746 63.9639 11.9746Q64.9795 11.9746 65.7168 11.1885Q66.4541 10.4023 66.4541 9.15234Q66.4541 8.29297 66.1025 7.55566Q65.751 6.81836 65.1064 6.45215Q64.4619 6.08594 63.6416 6.08594Q63.1436 6.08594 62.3623 6.27148L62.3623 11.7793ZM87.9982 4.99219Q90.5764 4.99219 92.466 6.9502Q94.3557 8.9082 94.3557 11.8379Q94.3557 14.8555 92.4514 16.8477Q90.5471 18.8398 87.842 18.8398Q85.1076 18.8398 83.2473 16.8965Q81.3869 14.9531 81.3869 11.8672Q81.3869 8.71289 83.5354 6.7207Q85.4006 4.99219 87.9982 4.99219ZM87.8127 5.70508Q86.0354 5.70508 84.9611 7.02344Q83.6232 8.66406 83.6232 11.8281Q83.6232 15.0703 85.01 16.8184Q86.0744 18.1465 87.8225 18.1465Q89.6877 18.1465 90.9035 16.6914Q92.1193 15.2363 92.1193 12.1016Q92.1193 8.70312 90.7814 7.0332Q89.7072 5.70508 87.8127 5.70508ZM112.599 18.1758L112.599 18.5371L106.925 18.5371L106.925 18.1758L107.394 18.1758Q108.214 18.1758 108.585 17.6973Q108.82 17.3848 108.82 16.1934L108.82 7.63867Q108.82 6.63281 108.693 6.31055Q108.595 6.06641 108.292 5.89062Q107.863 5.65625 107.394 5.65625L106.925 5.65625L106.925 5.29492L112.599 5.29492L112.599 5.65625L112.121 5.65625Q111.31 5.65625 110.939 6.13477Q110.695 6.44727 110.695 7.63867L110.695 16.1934Q110.695 17.1992 110.822 17.5215Q110.919 17.7656 111.232 17.9414Q111.652 18.1758 112.121 18.1758L112.599 18.1758ZM124.124 5.29492L127.717 5.29492L135.813 15.2266L135.813 7.58984Q135.813 6.36914 135.54 6.06641Q135.178 5.65625 134.397 5.65625L133.938 5.65625L133.938 5.29492L138.547 5.29492L138.547 5.65625L138.079 5.65625Q137.239 5.65625 136.887 6.16406Q136.672 6.47656 136.672 7.58984L136.672 18.752L136.321 18.752L127.59 8.08789L127.59 16.2422Q127.59 17.4629 127.854 17.7656Q128.225 18.1758 128.997 18.1758L129.465 18.1758L129.465 18.5371L124.856 18.5371L124.856 18.1758L125.315 18.1758Q126.165 18.1758 126.516 17.668Q126.731 17.3555 126.731 16.2422L126.731 7.0332Q126.155 6.35938 125.857 6.14453Q125.559 5.92969 124.983 5.74414Q124.7 5.65625 124.124 5.65625L124.124 5.29492ZM161.703 5.29492L161.849 8.40039L161.478 8.40039Q161.371 7.58008 161.185 7.22852Q160.883 6.66211 160.38 6.39355Q159.877 6.125 159.056 6.125L157.191 6.125L157.191 16.2422Q157.191 17.4629 157.455 17.7656Q157.826 18.1758 158.597 18.1758L159.056 18.1758L159.056 18.5371L153.441 18.5371L153.441 18.1758L153.91 18.1758Q154.75 18.1758 155.101 17.668Q155.316 17.3555 155.316 16.2422L155.316 6.125L153.724 6.125Q152.797 6.125 152.406 6.26172Q151.898 6.44727 151.537 6.97461Q151.176 7.50195 151.107 8.40039L150.736 8.40039L150.892 5.29492L161.703 5.29492ZM182.817 4.99219L182.817 9.57227L182.456 9.57227Q182.28 8.25391 181.826 7.47266Q181.372 6.69141 180.532 6.23242Q179.692 5.77344 178.794 5.77344Q177.778 5.77344 177.114 6.39355Q176.45 7.01367 176.45 7.80469Q176.45 8.41016 176.87 8.9082Q177.476 9.64062 179.751 10.8613Q181.606 11.8574 182.285 12.3896Q182.964 12.9219 183.33 13.6445Q183.696 14.3672 183.696 15.1582Q183.696 16.6621 182.529 17.751Q181.362 18.8398 179.526 18.8398Q178.95 18.8398 178.442 18.752Q178.14 18.7031 177.188 18.3955Q176.235 18.0879 175.981 18.0879Q175.737 18.0879 175.596 18.2344Q175.454 18.3809 175.386 18.8398L175.024 18.8398L175.024 14.2988L175.386 14.2988Q175.64 15.7246 176.069 16.4326Q176.499 17.1406 177.383 17.6094Q178.267 18.0781 179.321 18.0781Q180.542 18.0781 181.25 17.4336Q181.958 16.7891 181.958 15.9102Q181.958 15.4219 181.689 14.9238Q181.421 14.4258 180.854 13.9961Q180.474 13.7031 178.774 12.751Q177.075 11.7988 176.357 11.2324Q175.64 10.666 175.269 9.98242Q174.897 9.29883 174.897 8.47852Q174.897 7.05273 175.991 6.02246Q177.085 4.99219 178.774 4.99219Q179.829 4.99219 181.011 5.50977Q181.558 5.75391 181.782 5.75391Q182.036 5.75391 182.197 5.60254Q182.358 5.45117 182.456 4.99219L182.817 4.99219ZM65.5752 27.9922Q68.1533 27.9922 70.043 29.9502Q71.9326 31.9082 71.9326 34.8379Q71.9326 37.8555 70.0283 39.8477Q68.124 41.8398 65.4189 41.8398Q62.6846 41.8398 60.8242 39.8965Q58.9639 37.9531 58.9639 34.8672Q58.9639 31.7129 61.1123 29.7207Q62.9775 27.9922 65.5752 27.9922ZM65.3896 28.7051Q63.6123 28.7051 62.5381 30.0234Q61.2002 31.6641 61.2002 34.8281Q61.2002 38.0703 62.5869 39.8184Q63.6514 41.1465 65.3994 41.1465Q67.2646 41.1465 68.4805 39.6914Q69.6963 38.2363 69.6963 35.1016Q69.6963 31.7031 68.3584 30.0332Q67.2842 28.7051 65.3896 28.7051ZM83.7404 28.2949L87.3342 28.2949L95.4299 38.2266L95.4299 30.5898Q95.4299 29.3691 95.1564 29.0664Q94.7951 28.6562 94.0139 28.6562L93.5549 28.6562L93.5549 28.2949L98.1643 28.2949L98.1643 28.6562L97.6955 28.6562Q96.8557 28.6562 96.5041 29.1641Q96.2893 29.4766 96.2893 30.5898L96.2893 41.752L95.9377 41.752L87.2072 31.0879L87.2072 39.2422Q87.2072 40.4629 87.4709 40.7656Q87.842 41.1758 88.6135 41.1758L89.0822 41.1758L89.0822 41.5371L84.4729 41.5371L84.4729 41.1758L84.9318 41.1758Q85.7814 41.1758 86.133 40.668Q86.3479 40.3555 86.3479 39.2422L86.3479 30.0332Q85.7717 29.3594 85.4738 29.1445Q85.176 28.9297 84.5998 28.7441Q84.3166 28.6562 83.7404 28.6562L83.7404 28.2949ZM113.927 29.0176L113.927 34.252L116.837 34.252Q117.97 34.252 118.351 33.9102Q118.859 33.4609 118.917 32.3281L119.279 32.3281L119.279 36.9375L118.917 36.9375Q118.781 35.9707 118.644 35.6973Q118.468 35.3555 118.068 35.1602Q117.667 34.9648 116.837 34.9648L113.927 34.9648L113.927 39.3301Q113.927 40.209 114.005 40.3994Q114.083 40.5898 114.279 40.7021Q114.474 40.8145 115.021 40.8145L117.267 40.8145Q118.39 40.8145 118.898 40.6582Q119.406 40.502 119.874 40.043Q120.48 39.4375 121.115 38.2168L121.505 38.2168L120.363 41.5371L110.158 41.5371L110.158 41.1758L110.626 41.1758Q111.095 41.1758 111.515 40.9512Q111.828 40.7949 111.94 40.4824Q112.052 40.1699 112.052 39.2031L112.052 30.5996Q112.052 29.3398 111.798 29.0469Q111.447 28.6562 110.626 28.6562L110.158 28.6562L110.158 28.2949L120.363 28.2949L120.509 31.1953L120.128 31.1953Q119.923 30.1504 119.674 29.7598Q119.425 29.3691 118.937 29.1641Q118.546 29.0176 117.56 29.0176L113.927 29.0176Z" fill="#030211" fill-opacity="1.000000" fill-rule="evenodd"/>
	<path id="Star 8" d="M5.22461 13.0264L3.17285 35.5266L23.6846 45.0002L44.1953 35.5264L42.1445 13.0264L23.6846 0L5.22461 13.0264ZM23.6846 1.22388L6.17773 13.5771L4.2334 34.9146L23.6846 43.8987L43.1357 34.9146L41.1904 13.5771L23.6846 1.22388Z" fill="#030211" fill-opacity="1.000000" fill-rule="evenodd"/>
	<path id="Star 9" d="M8.58789 14.9692L6.91016 33.3696L23.6846 41.1172L40.458 33.3696L38.7812 14.9692L23.6846 4.31641L8.58789 14.9692ZM23.6846 5.54028L9.54199 15.52L7.9707 32.7578L23.6846 40.0159L39.3984 32.7578L37.8271 15.52L23.6846 5.54028Z" fill="#030211" fill-opacity="1.000000" fill-rule="evenodd"/>
	<path id="Star 10" d="M11.9023 16.8809L10.5928 31.2424L23.6846 37.2893L36.7764 31.2424L35.4678 16.8809L23.6846 8.56641L11.9023 16.8809ZM23.6846 9.79028L12.8555 17.4316L11.6523 30.6304L23.6846 36.1877L35.7168 30.6304L34.5137 17.4316L23.6846 9.79028Z" fill="#030211" fill-opacity="1.000000" fill-rule="evenodd"/>
	<path id="Star 11" d="M15.5771 19.0039L14.6768 28.8855L23.6846 33.0459L32.6924 28.8855L31.792 19.0039L23.6846 13.2832L15.5771 19.0039ZM23.6846 14.5071L16.5312 19.5547L15.7363 28.2734L23.6846 31.9446L31.6328 28.2734L30.8379 19.5547L23.6846 14.5071Z" fill="#030211" fill-opacity="1.000000" fill-rule="evenodd"/>
	<rect id="Rectangle 10" x="126.865234" y="28.431641" width="57.534142" height="2.171021" fill="#030211" fill-opacity="1.000000"/>
	<rect id="Rectangle 11" x="126.865234" y="33.498047" width="57.534142" height="2.171021" fill="#030211" fill-opacity="1.000000"/>
	<rect id="Rectangle 12" x="126.865234" y="38.685547" width="57.534142" height="2.171021" fill="#030211" fill-opacity="1.000000"/>
</svg>
