<svg width="240.000000" height="47.000000" viewBox="0 0 240 47" fill="none" xmlns="http://www.w3.org/2000/svg" xmlns:xlink="http://www.w3.org/1999/xlink">
	<desc>
			Created with Pixso.
	</desc>
	<defs/>
	<path id="Brand" d="M3.57539 39L14.0832 39C20.9582 39 23.8 35.6504 23.8 31.2754C23.8 26.666 20.6164 24.166 17.9504 24L17.9504 23.7168C20.4504 23.0332 22.6672 21.3828 22.6672 17.6328C22.6672 13.375 19.8254 9.9082 13.7414 9.9082L3.57539 9.9082L3.57539 39ZM7.09101 35.875L7.09101 25.7578L14.259 25.7578C18.0578 25.7578 20.4504 28.3164 20.4504 31.2754C20.4504 33.834 18.6828 35.875 14.0832 35.875L7.09101 35.875ZM7.09101 22.6914L7.09101 13.0332L13.7414 13.0332C17.6086 13.0332 19.3078 15.084 19.3078 17.6328C19.3078 20.709 16.8078 22.6914 13.634 22.6914L7.09101 22.6914ZM52.1981 39L55.7137 39L55.7137 27.6328L62.0809 27.6328C62.3348 27.6328 62.579 27.6328 62.8231 27.623L68.9559 39L73.0477 39L66.4755 26.9785C70.1766 25.7188 71.9149 22.6914 71.9149 18.834C71.9149 13.6875 68.8387 9.9082 62.0223 9.9082L52.1981 9.9082L52.1981 39ZM55.7137 24.459L55.7137 13.0332L61.9149 13.0332C66.6317 13.0332 68.4481 15.3379 68.4481 18.834C68.4481 22.3203 66.6317 24.459 61.9637 24.459L55.7137 24.459ZM101.558 39L104.487 30.7578L116.245 30.7578L119.175 39L122.866 39L112.183 9.9082L108.55 9.9082L97.8663 39L101.558 39ZM105.591 27.6328L110.249 14.5078L110.474 14.5078L115.132 27.6328L105.591 27.6328ZM173.078 9.9082L169.611 9.9082L169.611 32.8086L169.328 32.8086L153.42 9.9082L150.012 9.9082L150.012 39L153.527 39L153.527 16.1582L153.82 16.1582L169.67 39L173.078 39L173.078 9.9082ZM211.7 39C220.567 39 225.567 33.4922 225.567 24.4004C225.567 15.3672 220.567 9.9082 212.1 9.9082L202.725 9.9082L202.725 39L211.7 39ZM206.241 35.875L206.241 13.0332L211.866 13.0332C218.692 13.0332 222.159 17.3496 222.159 24.4004C222.159 31.5 218.692 35.875 211.475 35.875L206.241 35.875Z" fill="#030211" fill-opacity="1.000000" fill-rule="evenodd"/>
</svg>
