<svg width="205.422852" height="51.608643" viewBox="0 0 205.423 51.6086" fill="none" xmlns="http://www.w3.org/2000/svg" xmlns:xlink="http://www.w3.org/1999/xlink">
	<desc>
			Created with Pixso.
	</desc>
	<defs/>
	<path id="Studio Green" d="M69.5781 8.74023L72.5273 8.74023C72.4834 6.14746 70.3496 4.35547 67.1123 4.35547C63.9238 4.35547 61.5898 6.11816 61.5996 8.75977C61.5947 10.9033 63.1084 12.1338 65.5645 12.7246L67.1465 13.1201C68.7334 13.5059 69.6123 13.96 69.6221 14.9414C69.6123 16.0059 68.6064 16.7285 67.0439 16.7285C65.4424 16.7285 64.2949 15.9912 64.1924 14.5361L61.2188 14.5361C61.2969 17.6807 63.5479 19.3066 67.0781 19.3066C70.6279 19.3066 72.7178 17.6123 72.7227 14.9463C72.7178 12.5244 70.8916 11.2402 68.3623 10.6689L67.0586 10.3564C65.7939 10.0684 64.7344 9.59961 64.7539 8.55469C64.7539 7.61719 65.584 6.92871 67.0928 6.92871C68.5625 6.92871 69.4658 7.59766 69.5781 8.74023ZM85.5275 7.08984L89.9806 7.08984L89.9806 19.1016L93.0226 19.1016L93.0226 7.08984L97.4757 7.08984L97.4757 4.55566L85.5275 4.55566L85.5275 7.08984ZM119.735 4.55566L119.735 13.7402C119.735 15.4004 118.568 16.6016 116.781 16.6016C114.999 16.6016 113.827 15.4004 113.827 13.7402L113.827 4.55566L110.751 4.55566L110.751 14.0039C110.751 17.1826 113.153 19.3066 116.781 19.3066C120.394 19.3066 122.811 17.1826 122.811 14.0039L122.811 4.55566L119.735 4.55566ZM141.795 19.1016C146.228 19.1016 148.909 16.3623 148.909 11.8164C148.909 7.28516 146.228 4.55566 141.839 4.55566L136.639 4.55566L136.639 19.1016L141.795 19.1016ZM139.715 16.4648L139.715 7.19238L141.673 7.19238C144.402 7.19238 145.843 8.58398 145.843 11.8164C145.843 15.0586 144.402 16.4648 141.668 16.4648L139.715 16.4648ZM165.56 4.55566L162.484 4.55566L162.484 19.1016L165.56 19.1016L165.56 4.55566ZM192.759 11.8311C192.759 7.07031 189.805 4.35547 185.948 4.35547C182.071 4.35547 179.141 7.07031 179.141 11.8311C179.141 16.5674 182.071 19.3018 185.948 19.3018C189.805 19.3018 192.759 16.5869 192.759 11.8311ZM189.644 11.8311C189.644 14.9121 188.179 16.582 185.948 16.582C183.711 16.582 182.256 14.9121 182.256 11.8311C182.256 8.74512 183.711 7.0752 185.948 7.0752C188.179 7.0752 189.644 8.74512 189.644 11.8311ZM71.3311 33.2578L74.4561 33.2578C74.0605 30.3818 71.5215 28.3555 68.2354 28.3555C64.3926 28.3555 61.4336 31.1289 61.4336 35.8408C61.4336 40.4453 64.2021 43.3018 68.2988 43.3018C71.9707 43.3018 74.5928 40.9775 74.5928 37.1494L74.5928 35.3184L68.5039 35.3184L68.5039 37.6328L71.6289 37.6328C71.5898 39.4346 70.3594 40.582 68.3135 40.582C66.0039 40.582 64.5488 38.8535 64.5488 35.8164C64.5488 32.7891 66.0625 31.0752 68.2842 31.0752C69.8711 31.0752 70.9404 31.8955 71.3311 33.2578ZM92.0006 43.1016L95.0767 43.1016L95.0767 37.9453L97.3179 37.9453L100.077 43.1016L103.47 43.1016L100.379 37.4473C102.035 36.7393 102.953 35.2939 102.953 33.3066C102.953 30.416 101.044 28.5557 97.7379 28.5557L92.0006 28.5557L92.0006 43.1016ZM95.0767 35.4746L95.0767 31.0703L97.147 31.0703C98.9244 31.0703 99.7838 31.8564 99.7838 33.3066C99.7838 34.7471 98.9244 35.4746 97.1617 35.4746L95.0767 35.4746ZM120.226 43.1016L130.055 43.1016L130.055 40.5674L123.302 40.5674L123.302 37.0908L129.522 37.0908L129.522 34.5566L123.302 34.5566L123.302 31.0898L130.025 31.0898L130.025 28.5557L120.226 28.5557L120.226 43.1016ZM147.577 43.1016L157.406 43.1016L157.406 40.5674L150.653 40.5674L150.653 37.0908L156.874 37.0908L156.874 34.5566L150.653 34.5566L150.653 31.0898L157.377 31.0898L157.377 28.5557L147.577 28.5557L147.577 43.1016ZM187.096 28.5557L184.035 28.5557L184.035 37.7061L183.903 37.7061L177.629 28.5557L174.928 28.5557L174.928 43.1016L178.005 43.1016L178.005 33.9463L178.112 33.9463L184.44 43.1016L187.096 43.1016L187.096 28.5557Z" fill="#030211" fill-opacity="1.000000" fill-rule="evenodd"/>
	<path id="Star 8" d="M25.8047 0L24.3252 17.4182L16.9785 1.55615L21.5469 18.4297L9.21777 6.03711L19.2812 20.3308L3.45703 12.9021L17.8027 22.8918L0.391602 21.3235L17.2891 25.8042L0.391602 30.2852L17.8027 28.7168L3.45703 38.7065L19.2812 31.2778L9.21777 45.5715L21.5469 33.179L16.9785 50.0525L24.3252 34.1904L25.8047 51.6086L27.2832 34.1904L34.6299 50.0525L30.0625 33.179L42.3906 45.5715L32.3271 31.2778L48.1514 38.7065L33.8066 28.7168L51.2168 30.2852L34.3193 25.8042L51.2168 21.3235L33.8066 22.8918L48.1514 12.9021L32.3271 20.3308L42.3906 6.03711L30.0625 18.4297L34.6299 1.55615L27.2832 17.4182L25.8047 0Z" fill="#030211" fill-opacity="1.000000" fill-rule="evenodd"/>
</svg>
