<svg width="52.332031" height="52.331787" viewBox="0 0 52.332 52.3318" fill="none" xmlns="http://www.w3.org/2000/svg" xmlns:xlink="http://www.w3.org/1999/xlink">
	<desc>
			Created with Pixso.
	</desc>
	<defs/>
	<circle id="Ellipse 15" cx="26.166016" cy="26.165771" r="26.165842" fill="#EAEAEA" fill-opacity="1.000000"/>
	<path id="Vector" d="M25.75 27.1316C23.7119 27.1316 22.0586 25.4788 22.0586 23.4397C22.0586 21.4009 23.7119 19.748 25.75 19.748C27.7891 19.748 29.4424 21.4009 29.4424 23.4397C29.4424 25.4788 27.7891 27.1316 25.75 27.1316Z" stroke="#181818" stroke-opacity="1.000000" stroke-width="2.000000" stroke-linejoin="round"/>
	<path id="Vector" d="M25.749 38.2073C25.749 38.2073 16.5195 31.7468 16.5195 23.4404C16.5195 20.9924 17.4922 18.645 19.2227 16.9141C20.9531 15.1833 23.3008 14.2109 25.749 14.2109C28.1963 14.2109 30.5439 15.1833 32.2754 16.9141C34.0059 18.645 34.9785 20.9924 34.9785 23.4404C34.9785 31.7468 25.749 38.2073 25.749 38.2073Z" stroke="#181818" stroke-opacity="1.000000" stroke-width="2.000000" stroke-linejoin="round"/>
</svg>
