<svg width="52.332031" height="52.331787" viewBox="0 0 52.332 52.3318" fill="none" xmlns="http://www.w3.org/2000/svg" xmlns:xlink="http://www.w3.org/1999/xlink">
	<desc>
			Created with Pixso.
	</desc>
	<defs/>
	<circle id="Background" cx="26.166016" cy="26.165771" r="26.165842" fill="#FFECBB" fill-opacity="1.000000"/>
	<path id="Icon" d="M27.5283 30.0933C27.6875 30.1682 27.8623 30.2007 28.0371 30.1873C28.2109 30.1741 28.3799 30.1155 28.5244 30.0176L31.6758 27.9124C31.8154 27.8179 31.9766 27.7603 32.1436 27.7449C32.3115 27.7295 32.4805 27.7568 32.6348 27.8242L38.5342 30.3579C38.7354 30.4419 38.9043 30.5898 39.0137 30.7788C39.123 30.968 39.167 31.1877 39.1387 31.4043C38.9521 32.8638 38.2393 34.2051 37.1357 35.1772C36.0312 36.1494 34.6104 36.686 33.1387 36.6863C28.5918 36.6863 24.2305 34.8799 21.0156 31.6648C17.8008 28.4497 15.9941 24.0889 15.9941 19.5417C15.9941 18.0706 16.5312 16.6497 17.5029 15.5452C18.4756 14.4407 19.8164 13.7283 21.2764 13.5413C21.4932 13.5134 21.7129 13.5576 21.9014 13.667C22.0908 13.7764 22.2383 13.9448 22.3223 14.1465L24.8564 20.0588C24.9219 20.2104 24.9502 20.376 24.9365 20.541C24.9238 20.7058 24.8701 20.865 24.7803 21.0042L22.6758 24.2061C22.582 24.3511 22.5264 24.5173 22.5156 24.6895C22.5049 24.8618 22.5381 25.0339 22.6123 25.1895C23.6504 27.3325 25.3828 29.061 27.5283 30.0933Z" stroke="#DEAA27" stroke-opacity="1.000000" stroke-width="2.000000" stroke-linejoin="round"/>
</svg>
