<svg width="20.714844" height="19.286621" viewBox="0 0 20.7148 19.2866" fill="none" xmlns="http://www.w3.org/2000/svg" xmlns:xlink="http://www.w3.org/1999/xlink">
	<desc>
			Created with Pixso.
	</desc>
	<defs/>
	<path id="Icon" d="M20.7148 9.70166C20.7148 4.34424 16.0771 0 10.3574 0C4.6377 0 0 4.34424 0 9.70166C0 14.5435 3.78711 18.5571 8.73926 19.2856L8.73926 12.5068L6.1084 12.5068L6.1084 9.70166L8.73926 9.70166L8.73926 7.56396C8.73926 5.1333 10.2861 3.78906 12.6514 3.78906C13.7852 3.78906 14.9707 3.979 14.9707 3.979L14.9707 6.3667L13.6641 6.3667C12.3779 6.3667 11.9756 7.11426 11.9756 7.88232L11.9756 9.70166L14.8477 9.70166L14.3887 12.5068L11.9756 12.5068L11.9756 19.2866C16.9277 18.5586 20.7148 14.5449 20.7148 9.70166Z" fill="#FFFFFF" fill-opacity="1.000000" fill-rule="evenodd"/>
</svg>
