<svg width="43.535156" height="43.535156" viewBox="0 0 43.5352 43.5352" fill="none" xmlns="http://www.w3.org/2000/svg" xmlns:xlink="http://www.w3.org/1999/xlink">
	<desc>
			Created with Pixso.
	</desc>
	<defs/>
	<circle id="Background" cx="21.767578" cy="21.767578" r="21.767578" fill="#4EAF4E" fill-opacity="1.000000"/>
	<path id="Icon" d="M18.9082 21.9072L24.4248 21.9072" stroke="#0D0D0D" stroke-opacity="1.000000" stroke-width="1.000000" stroke-linejoin="round" stroke-linecap="round"/>
	<path id="Icon" d="M18.9082 24.6655L24.4248 24.6655" stroke="#0D0D0D" stroke-opacity="1.000000" stroke-width="1.000000" stroke-linejoin="round" stroke-linecap="round"/>
	<path id="Icon" d="M27.873 14.3213C28.0566 14.3213 28.2314 14.394 28.3613 14.5234C28.4902 14.6528 28.5625 14.8281 28.5625 15.0107L28.5625 28.1138C28.5625 28.6626 28.3447 29.1885 27.957 29.5767C27.5693 29.9648 27.043 30.1826 26.4941 30.1826L16.8398 30.1826C16.291 30.1826 15.7646 29.9648 15.376 29.5767C14.9883 29.1885 14.7705 28.6626 14.7705 28.1138L14.7705 15.0107C14.7705 14.8281 14.8428 14.6528 14.9727 14.5234C15.1016 14.394 15.2773 14.3213 15.46 14.3213L27.873 14.3213Z" stroke="#0D0D0D" stroke-opacity="1.000000" stroke-width="1.000000" stroke-linejoin="round"/>
	<path id="Icon" d="M17.5283 12.9424L17.5283 15.7007" stroke="#0D0D0D" stroke-opacity="1.000000" stroke-width="1.000000" stroke-linejoin="round" stroke-linecap="round"/>
	<path id="Icon" d="M21.666 12.9424L21.666 15.7007" stroke="#0D0D0D" stroke-opacity="1.000000" stroke-width="1.000000" stroke-linejoin="round" stroke-linecap="round"/>
	<path id="Icon" d="M25.8037 12.9424L25.8037 15.7007" stroke="#0D0D0D" stroke-opacity="1.000000" stroke-width="1.000000" stroke-linejoin="round" stroke-linecap="round"/>
</svg>
