<svg width="17.979492" height="17.301270" viewBox="0 0 17.9795 17.3013" fill="none" xmlns="http://www.w3.org/2000/svg" xmlns:xlink="http://www.w3.org/1999/xlink">
	<desc>
			Created with Pixso.
	</desc>
	<defs/>
	<path id="Icon" d="M12.7354 1.44189C13.7285 1.44434 14.6787 1.8252 15.3809 2.50049C16.083 3.17578 16.4785 4.09131 16.4814 5.04639L16.4814 12.2549C16.4785 13.21 16.083 14.1255 15.3809 14.8008C14.6787 15.4761 13.7285 15.8569 12.7354 15.8599L5.24414 15.8599C4.25195 15.8569 3.30078 15.4761 2.59863 14.8008C1.89648 14.1255 1.50098 13.21 1.49805 12.2549L1.49805 5.04639C1.50098 4.09131 1.89648 3.17578 2.59863 2.50049C3.30078 1.8252 4.25195 1.44434 5.24414 1.44189L12.7354 1.44189ZM12.7354 0L5.24414 0C2.35938 0 0 2.271 0 5.04639L0 12.2549C0 15.0308 2.35938 17.3013 5.24414 17.3013L12.7354 17.3013C15.6201 17.3013 17.9795 15.0308 17.9795 12.2549L17.9795 5.04639C17.9795 2.271 15.6201 0 12.7354 0Z" fill="#FFFFFF" fill-opacity="1.000000" fill-rule="nonzero"/>
	<path id="Icon" d="M13.8594 5.04639C13.6367 5.04639 13.4199 4.98291 13.2354 4.86426C13.0508 4.74561 12.9062 4.57666 12.8213 4.37891C12.7363 4.18115 12.7139 3.96387 12.7568 3.75439C12.8008 3.54443 12.9072 3.35156 13.0645 3.20068C13.2217 3.04932 13.4219 2.94629 13.6406 2.90479C13.8584 2.86279 14.084 2.88428 14.2891 2.96631C14.4951 3.04785 14.6699 3.18652 14.7939 3.36426C14.917 3.54199 14.9834 3.75146 14.9834 3.96533C14.9834 4.10742 14.9551 4.24805 14.8984 4.37939C14.8418 4.51074 14.7588 4.62988 14.6543 4.73047C14.5508 4.83105 14.4268 4.91064 14.29 4.96484C14.1533 5.01904 14.0068 5.04688 13.8594 5.04639ZM8.99023 5.76709C9.58301 5.76709 10.1621 5.93604 10.6553 6.25293C11.1475 6.56982 11.5322 7.02051 11.7588 7.54736C11.9854 8.07422 12.0449 8.65381 11.9297 9.21338C11.8135 9.77295 11.5283 10.2866 11.1094 10.6899C10.6904 11.0933 10.1562 11.3677 9.57422 11.479C8.99316 11.5903 8.39062 11.5332 7.84277 11.3149C7.2959 11.0967 6.82715 10.7271 6.49805 10.2529C6.16895 9.77881 5.99316 9.22119 5.99316 8.65088C5.99414 7.88623 6.31055 7.15332 6.87207 6.61279C7.43359 6.07178 8.19531 5.76807 8.99023 5.76709ZM8.99023 4.32568C8.10059 4.32568 7.23242 4.5791 6.49316 5.0542C5.75391 5.52979 5.17773 6.20508 4.83691 6.99561C4.49707 7.78613 4.4082 8.65576 4.58105 9.49463C4.75488 10.3335 5.18262 11.1045 5.81152 11.7095C6.44043 12.314 7.24121 12.7261 8.11328 12.8931C8.98535 13.0601 9.88867 12.9741 10.71 12.647C11.5312 12.3193 12.2334 11.7651 12.7275 11.0537C13.2217 10.3428 13.4854 9.50635 13.4854 8.65088C13.4854 7.50342 13.0117 6.40332 12.168 5.59229C11.3252 4.78125 10.1826 4.32568 8.99023 4.32568Z" fill="#FFFFFF" fill-opacity="1.000000" fill-rule="nonzero"/>
</svg>
