<svg width="18.045898" height="18.045898" viewBox="0 0 18.0459 18.0459" fill="none" xmlns="http://www.w3.org/2000/svg" xmlns:xlink="http://www.w3.org/1999/xlink">
	<desc>
			Created with Pixso.
	</desc>
	<defs/>
	<path id="Icon" d="M16.6025 0L1.54199 0C0.71875 0 0 0.592285 0 1.40527L0 16.4995C0 17.3169 0.71875 18.0459 1.54199 18.0459L16.5977 18.0459C17.4258 18.0459 18.0459 17.3125 18.0459 16.4995L18.0459 1.40527C18.0508 0.592285 17.4258 0 16.6025 0ZM5.59375 15.042L3.00879 15.042L3.00879 7.00391L5.59375 7.00391L5.59375 15.042ZM4.39062 5.78174L4.37207 5.78174C3.54492 5.78174 3.00879 5.16602 3.00879 4.39502C3.00879 3.60986 3.55859 3.00879 4.4043 3.00879C5.25098 3.00879 5.76855 3.60547 5.78711 4.39502C5.78613 5.16602 5.25098 5.78174 4.39062 5.78174ZM15.042 15.042L12.457 15.042L12.457 10.647C12.457 9.59424 12.0811 8.87451 11.1455 8.87451C10.4307 8.87451 10.0078 9.35791 9.81934 9.8291C9.74902 9.99805 9.73047 10.2285 9.73047 10.4639L9.73047 15.042L7.14453 15.042L7.14453 7.00391L9.73047 7.00391L9.73047 8.12256C10.1064 7.58691 10.6943 6.81592 12.0615 6.81592C13.7588 6.81592 15.042 7.93457 15.042 10.3462L15.042 15.042Z" fill="#FFFFFF" fill-opacity="1.000000" fill-rule="nonzero"/>
</svg>
