<svg width="12.783203" height="16.318359" viewBox="0 0 12.7832 16.3184" fill="none" xmlns="http://www.w3.org/2000/svg" xmlns:xlink="http://www.w3.org/1999/xlink">
	<desc>
			Created with Pixso.
	</desc>
	<defs/>
	<path id="Icon" d="M6.3916 8.74805C5.08984 8.74805 4.03516 7.69287 4.03516 6.39111C4.03516 5.08984 5.08984 4.03467 6.3916 4.03467C7.69336 4.03467 8.74805 5.08984 8.74805 6.39111C8.74805 7.69287 7.69336 8.74805 6.3916 8.74805Z" stroke="#FFCC4A" stroke-opacity="1.000000" stroke-width="1.000000" stroke-linejoin="round"/>
	<path id="Icon" d="M6.3916 15.8179C6.3916 15.8179 0.5 11.6938 0.5 6.3916C0.5 4.8291 1.12109 3.33057 2.22559 2.22559C3.33008 1.12061 4.8291 0.5 6.3916 0.5C7.9541 0.5 9.45215 1.12061 10.5576 2.22559C11.6621 3.33057 12.2832 4.8291 12.2832 6.3916C12.2832 11.6938 6.3916 15.8179 6.3916 15.8179Z" stroke="#FFCC4A" stroke-opacity="1.000000" stroke-width="1.000000" stroke-linejoin="round"/>
</svg>
