<svg width="182.739258" height="33.258301" viewBox="0 0 182.739 33.2583" fill="none" xmlns="http://www.w3.org/2000/svg" xmlns:xlink="http://www.w3.org/1999/xlink">
	<desc>
			Created with Pixso.
	</desc>
	<defs/>
	<path id="Union" d="M26.9639 22.4976C28.4961 22.4976 29.7393 21.2549 29.7393 19.7217L29.7393 3.82275C29.7393 2.28955 28.4961 1.04688 26.9639 1.04688L2.77539 1.04688C1.24316 1.04688 0 2.28955 0 3.82275L0 19.7217C0 21.2549 1.24316 22.4976 2.77539 22.4976L14.1016 22.4976C14.1055 22.501 14.1094 22.5049 14.1123 22.5088L21.2842 29.6807C21.8672 30.2632 22.8643 29.8506 22.8643 29.0264L22.8643 22.4976L26.9639 22.4976Z" fill="#FFCC4A" fill-opacity="1.000000" fill-rule="nonzero"/>
	<rect id="Rectangle 15" x="7.569336" y="14.680176" rx="0.775175" width="13.869875" height="1.550351" fill="#1B1B1B" fill-opacity="1.000000"/>
	<rect id="Rectangle 16" x="7.569336" y="10.686035" rx="0.775175" width="13.869875" height="1.550351" fill="#1B1B1B" fill-opacity="1.000000"/>
	<rect id="Rectangle 17" x="7.569336" y="7.105469" rx="0.775175" width="13.869875" height="1.550351" fill="#1B1B1B" fill-opacity="1.000000"/>
	<path id="AskExperts" d="M77.0969 3.5L73.7424 3.5L73.7424 26L77.0969 26L77.0969 19.042L82.136 26L86.0105 26L80.2756 18.1704L85.886 11.1172L82.0188 11.1172L77.0969 17.4233L77.0969 3.5ZM46.1665 20.7778L53.9668 20.7778L55.7979 26L59.2476 26L51.7769 5.00146L48.3564 5.00146L40.8564 26L44.3428 26L46.1665 20.7778ZM101.581 5.00146L88.3757 5.00146L88.3757 26L101.882 26L101.882 22.6968L91.9206 22.6968L91.9206 16.6982L99.5085 16.6982L99.5085 13.4023L91.9206 13.4023L91.9206 8.29736L101.581 8.29736L101.581 5.00146ZM163.691 25.4549Q164.673 26.3003 166.383 26.3003L168.961 26.3003L169.261 23.5684L168.36 23.5684Q167.071 23.5684 166.573 23.4219Q166.328 23.345 166.167 23.1838Q166.006 23.0227 165.929 22.7773Q165.782 22.2793 165.782 20.9609L165.782 13.8198L169.291 13.8198L169.291 11.1172L165.782 11.1172L165.782 7.33789L162.42 7.69678L162.42 11.1172L160.472 11.1172L160.172 13.8198L162.42 13.8198L162.42 22.521Q162.42 23.4223 162.755 24.1744Q163 24.7242 163.424 25.1943Q163.55 25.3334 163.691 25.4549ZM50.0703 9.71094L52.8608 17.687L47.2505 17.687L50.0703 9.71094ZM61.7358 25.7156Q63.4681 26.3003 65.3978 26.3003Q68.3128 26.3003 69.7484 25.0845Q70.3453 24.5815 70.6953 23.9431Q71.1913 23.0384 71.1913 21.8618Q71.1913 20.4534 70.5161 19.5491Q70.3416 19.3153 70.1219 19.1152Q69.0599 18.1411 67.0457 17.3867Q65.7274 16.9106 65.1122 16.6396Q64.4969 16.3687 64.1673 15.9805Q64.1112 15.9144 64.0646 15.8421Q63.8377 15.49 63.8377 14.9917Q63.8377 14.494 64.0628 14.139Q64.2054 13.9142 64.4383 13.7466Q65.0389 13.3071 66.1522 13.3071Q67.1594 13.3071 68.0452 13.6352Q68.132 13.6673 68.2176 13.7026Q69.1771 14.0908 70.1659 14.8086L70.5028 11.9009Q70.2475 11.7594 69.9836 11.6363Q68.2259 10.8169 66.0863 10.8169Q63.4496 10.8169 61.992 12.0474Q61.2853 12.647 60.923 13.4102Q60.5418 14.213 60.5418 15.1968Q60.5418 16.6467 61.2445 17.5501Q61.4292 17.7876 61.6624 17.9873Q62.7904 18.9468 64.9803 19.7012Q66.4818 20.2432 67.141 20.6899Q67.3793 20.8515 67.5314 21.0723Q67.8001 21.4624 67.8001 22.0376Q67.8001 22.4985 67.593 22.8299Q67.4347 23.0831 67.1556 23.2607Q66.5111 23.6636 65.2806 23.6636Q65.2632 23.6636 65.2458 23.6635Q62.9488 23.6523 60.659 22.1621L60.3294 25.1284Q61.0155 25.4726 61.7358 25.7156ZM154.707 11.1172L151.682 11.1172L151.682 26L155.102 26L155.102 15.7095Q155.461 15.0796 156.325 14.6182Q156.764 14.3821 157.233 14.2649Q157.695 14.1494 158.186 14.1494Q158.852 14.1494 159.328 14.3032L159.599 10.8828Q159.24 10.8169 158.94 10.8169Q158.604 10.8169 158.276 10.8689Q157.489 10.9936 156.75 11.4175Q156.687 11.4535 156.625 11.491Q155.654 12.0774 154.89 13.0068L154.707 11.1172ZM172.226 25.7156Q173.958 26.3003 175.888 26.3003Q178.803 26.3003 180.238 25.0845Q180.835 24.5815 181.185 23.9431Q181.681 23.0384 181.681 21.8618Q181.681 20.4534 181.006 19.5491Q180.832 19.3153 180.612 19.1152Q179.55 18.1411 177.536 17.3867Q176.217 16.9106 175.602 16.6396Q174.987 16.3687 174.657 15.9805Q174.601 15.9144 174.555 15.8421Q174.328 15.49 174.328 14.9917Q174.328 14.494 174.553 14.139Q174.695 13.9142 174.928 13.7466Q175.529 13.3071 176.642 13.3071Q177.649 13.3071 178.535 13.6352Q178.622 13.6673 178.708 13.7026Q179.667 14.0908 180.656 14.8086L180.993 11.9009Q180.737 11.7594 180.474 11.6363Q178.716 10.8169 176.576 10.8169Q173.94 10.8169 172.482 12.0474Q171.775 12.647 171.413 13.4102Q171.032 14.213 171.032 15.1968Q171.032 16.6467 171.734 17.5501Q171.919 17.7876 172.152 17.9873Q173.28 18.9468 175.47 19.7012Q176.972 20.2432 177.631 20.6899Q177.869 20.8515 178.021 21.0723Q178.29 21.4624 178.29 22.0376Q178.29 22.4985 178.083 22.8299Q177.925 23.0831 177.646 23.2607Q177.001 23.6636 175.771 23.6636Q175.753 23.6636 175.736 23.6635Q173.439 23.6523 171.149 22.1621L170.819 25.1284Q171.506 25.4726 172.226 25.7156ZM130.127 11.6221Q128.758 10.8535 126.957 10.8535Q125.492 10.8535 124.364 11.3369Q123.236 11.813 122.277 12.7065L121.918 11.1172L119.252 11.1172L119.252 33.2583L122.606 33.2583L122.606 24.7988Q123.277 25.4227 124.068 25.7773Q124.271 25.8682 124.481 25.9414Q125.521 26.3003 126.957 26.3003Q128.856 26.3003 130.265 25.4691Q130.416 25.3804 130.56 25.2822Q131.043 24.9523 131.45 24.5457Q132.307 23.6888 132.823 22.4917Q133.593 20.7192 133.593 18.5586Q133.593 16.3979 132.809 14.6475Q132.275 13.4394 131.399 12.5808Q131.001 12.19 130.531 11.8716Q130.334 11.7381 130.127 11.6221ZM139.03 25.2529Q140.847 26.3003 143.432 26.3003Q145.454 26.3003 147.245 25.6573Q147.842 25.4432 148.413 25.1577L148.171 22.3672Q147.662 22.6525 147.125 22.8647Q145.565 23.4805 143.762 23.4805Q142.074 23.4805 140.858 22.7235Q140.644 22.59 140.444 22.4331Q140.397 22.3961 140.352 22.3575Q139.101 21.2974 138.84 19.0713L148.859 19.0713Q149.072 18.1997 149.072 17.2402Q149.072 15.3799 148.303 13.9443Q147.981 13.3348 147.535 12.8363Q146.925 12.1549 146.083 11.6812Q144.626 10.8535 142.648 10.8535Q140.515 10.8535 138.903 11.77Q138.815 11.8194 138.73 11.8716Q137.842 12.4153 137.184 13.1616Q136.61 13.8128 136.21 14.6182Q136.145 14.7498 136.085 14.8837Q135.361 16.5001 135.361 18.4414Q135.361 20.3216 136.047 21.9049Q136.159 22.1657 136.291 22.4185Q136.63 23.0669 137.085 23.619Q137.88 24.5825 139.03 25.2529ZM103.288 11.1172L108.269 18.5586L103.23 26L107.163 26L110.158 21.1367L113.249 26L117.153 26L112.172 18.4707L117.087 11.1172L113.132 11.1172L110.283 15.9805L107.221 11.1172L103.288 11.1172ZM128.193 23.0286Q127.426 23.4805 126.393 23.4805Q125.102 23.4805 124.211 22.8832Q123.793 22.603 123.463 22.1914Q122.43 20.9023 122.43 18.5586Q122.43 16.2515 123.463 14.9624Q123.793 14.5508 124.211 14.2706Q125.102 13.6733 126.393 13.6733Q127.426 13.6733 128.193 14.1252Q128.737 14.4452 129.147 14.9917Q130.143 16.3101 130.143 18.5586Q130.143 20.8364 129.147 22.1621Q128.737 22.7087 128.193 23.0286ZM145.218 15.0322Q145.651 15.7887 145.651 16.7935L138.957 16.7935Q139.383 15.0326 140.494 14.2655Q141.352 13.6733 142.619 13.6733Q143.907 13.6733 144.64 14.3111Q144.779 14.4313 144.897 14.5742Q145.08 14.7905 145.218 15.0322Z" fill="#262626" fill-opacity="1.000000" fill-rule="evenodd"/>
</svg>
