<svg width="182.739258" height="33.258301" viewBox="0 0 182.739 33.2583" fill="none" xmlns="http://www.w3.org/2000/svg" xmlns:xlink="http://www.w3.org/1999/xlink">
	<desc>
			Created with Pixso.
	</desc>
	<defs/>
	<path id="Union" d="M26.9639 22.4976C28.4961 22.4976 29.7393 21.2549 29.7393 19.7217L29.7393 3.82275C29.7393 2.28955 28.4961 1.04688 26.9639 1.04688L2.77539 1.04688C1.24316 1.04688 0 2.28955 0 3.82275L0 19.7217C0 21.2549 1.24316 22.4976 2.77539 22.4976L14.1016 22.4976C14.1055 22.501 14.1094 22.5049 14.1123 22.5088L21.2842 29.6807C21.8672 30.2632 22.8643 29.8506 22.8643 29.0264L22.8643 22.4976L26.9639 22.4976Z" fill="#FFCC4A" fill-opacity="1.000000" fill-rule="nonzero"/>
	<rect id="Rectangle 15" x="7.569336" y="14.680176" rx="0.775175" width="13.869875" height="1.550351" fill="#1B1B1B" fill-opacity="1.000000"/>
	<rect id="Rectangle 16" x="7.569336" y="10.686035" rx="0.775175" width="13.869875" height="1.550351" fill="#1B1B1B" fill-opacity="1.000000"/>
	<rect id="Rectangle 17" x="7.569336" y="7.105469" rx="0.775175" width="13.869875" height="1.550351" fill="#1B1B1B" fill-opacity="1.000000"/>
	<path id="AskExperts" d="M53.9668 20.7778L46.1665 20.7778L44.3428 26L40.8564 26L48.3564 5.00146L51.7769 5.00146L59.2476 26L55.7979 26L53.9668 20.7778ZM52.8608 17.687L50.0703 9.71094L47.2505 17.687L52.8608 17.687ZM65.3978 26.3003Q62.6659 26.3003 60.3294 25.1284L60.659 22.1621Q62.9662 23.6636 65.2806 23.6636Q66.5111 23.6636 67.1556 23.2607Q67.8001 22.8506 67.8001 22.0376Q67.8001 21.1367 67.141 20.6899Q66.4818 20.2432 64.9803 19.7012Q62.7904 18.9468 61.6624 17.9873Q60.5418 17.0278 60.5418 15.1968Q60.5418 13.2778 61.992 12.0474Q63.4496 10.8169 66.0863 10.8169Q68.5472 10.8169 70.5028 11.9009L70.1659 14.8086Q69.1771 14.0908 68.2176 13.7026Q67.2581 13.3071 66.1522 13.3071Q65.0389 13.3071 64.4383 13.7466Q63.8377 14.1787 63.8377 14.9917Q63.8377 15.5923 64.1673 15.9805Q64.4969 16.3687 65.1122 16.6396Q65.7274 16.9106 67.0457 17.3867Q69.0599 18.1411 70.1219 19.1152Q71.1913 20.0894 71.1913 21.8618Q71.1913 23.8687 69.7484 25.0845Q68.3128 26.3003 65.3978 26.3003ZM73.7424 3.5L77.0969 3.5L77.0969 17.4233L82.0188 11.1172L85.886 11.1172L80.2756 18.1704L86.0105 26L82.136 26L77.0969 19.042L77.0969 26L73.7424 26L73.7424 3.5ZM88.3757 5.00146L101.581 5.00146L101.581 8.29736L91.9206 8.29736L91.9206 13.4023L99.5085 13.4023L99.5085 16.6982L91.9206 16.6982L91.9206 22.6968L101.882 22.6968L101.882 26L88.3757 26L88.3757 5.00146ZM108.269 18.5586L103.288 11.1172L107.221 11.1172L110.283 15.9805L113.132 11.1172L117.087 11.1172L112.172 18.4707L117.153 26L113.249 26L110.158 21.1367L107.163 26L103.23 26L108.269 18.5586ZM126.957 10.8535Q129.03 10.8535 130.531 11.8716Q132.032 12.8896 132.809 14.6475Q133.593 16.3979 133.593 18.5586Q133.593 20.7192 132.823 22.4917Q132.062 24.2568 130.56 25.2822Q129.059 26.3003 126.957 26.3003Q125.521 26.3003 124.481 25.9414Q123.448 25.5825 122.606 24.7988L122.606 33.2583L119.252 33.2583L119.252 11.1172L121.918 11.1172L122.277 12.7065Q123.236 11.813 124.364 11.3369Q125.492 10.8535 126.957 10.8535ZM126.393 23.4805Q128.158 23.4805 129.147 22.1621Q130.143 20.8364 130.143 18.5586Q130.143 16.3101 129.147 14.9917Q128.158 13.6733 126.393 13.6733Q124.496 13.6733 123.463 14.9624Q122.43 16.2515 122.43 18.5586Q122.43 20.9023 123.463 22.1914Q124.496 23.4805 126.393 23.4805ZM143.432 26.3003Q140.847 26.3003 139.03 25.2529Q137.221 24.1982 136.291 22.4185Q135.361 20.6313 135.361 18.4414Q135.361 16.3394 136.21 14.6182Q137.067 12.8896 138.73 11.8716Q140.4 10.8535 142.648 10.8535Q144.626 10.8535 146.083 11.6812Q147.541 12.5015 148.303 13.9443Q149.072 15.3799 149.072 17.2402Q149.072 18.1997 148.859 19.0713L138.84 19.0713Q139.111 21.3784 140.444 22.4331Q141.777 23.4805 143.762 23.4805Q146.186 23.4805 148.171 22.3672L148.413 25.1577Q146.127 26.3003 143.432 26.3003ZM145.651 16.7935Q145.651 15.4678 144.897 14.5742Q144.15 13.6733 142.619 13.6733Q139.711 13.6733 138.957 16.7935L145.651 16.7935ZM151.682 11.1172L154.707 11.1172L154.89 13.0068Q155.703 12.0181 156.75 11.4175Q157.797 10.8169 158.94 10.8169Q159.24 10.8169 159.599 10.8828L159.328 14.3032Q158.852 14.1494 158.186 14.1494Q157.197 14.1494 156.325 14.6182Q155.461 15.0796 155.102 15.7095L155.102 26L151.682 26L151.682 11.1172ZM166.383 26.3003Q164.427 26.3003 163.424 25.1943Q162.42 24.0811 162.42 22.521L162.42 13.8198L160.172 13.8198L160.472 11.1172L162.42 11.1172L162.42 7.69678L165.782 7.33789L165.782 11.1172L169.291 11.1172L169.291 13.8198L165.782 13.8198L165.782 20.9609Q165.782 22.2793 165.929 22.7773Q166.083 23.2681 166.573 23.4219Q167.071 23.5684 168.36 23.5684L169.261 23.5684L168.961 26.3003L166.383 26.3003ZM175.888 26.3003Q173.156 26.3003 170.819 25.1284L171.149 22.1621Q173.456 23.6636 175.771 23.6636Q177.001 23.6636 177.646 23.2607Q178.29 22.8506 178.29 22.0376Q178.29 21.1367 177.631 20.6899Q176.972 20.2432 175.47 19.7012Q173.28 18.9468 172.152 17.9873Q171.032 17.0278 171.032 15.1968Q171.032 13.2778 172.482 12.0474Q173.94 10.8169 176.576 10.8169Q179.037 10.8169 180.993 11.9009L180.656 14.8086Q179.667 14.0908 178.708 13.7026Q177.748 13.3071 176.642 13.3071Q175.529 13.3071 174.928 13.7466Q174.328 14.1787 174.328 14.9917Q174.328 15.5923 174.657 15.9805Q174.987 16.3687 175.602 16.6396Q176.217 16.9106 177.536 17.3867Q179.55 18.1411 180.612 19.1152Q181.681 20.0894 181.681 21.8618Q181.681 23.8687 180.238 25.0845Q178.803 26.3003 175.888 26.3003Z" fill="#FFFFFF" fill-opacity="1.000000" fill-rule="evenodd"/>
</svg>
