<svg width="29.739258" height="28.906738" viewBox="0 0 29.7393 28.9067" fill="none" xmlns="http://www.w3.org/2000/svg" xmlns:xlink="http://www.w3.org/1999/xlink">
	<desc>
			Created with Pixso.
	</desc>
	<defs/>
	<path id="Union" d="M26.9639 21.4507C28.4961 21.4507 29.7393 20.208 29.7393 18.6748L29.7393 2.77588C29.7393 1.24268 28.4961 0 26.9639 0L2.77539 0C1.24316 0 0 1.24268 0 2.77588L0 18.6748C0 20.208 1.24316 21.4507 2.77539 21.4507L14.1016 21.4507C14.1055 21.4541 14.1094 21.458 14.1123 21.4619L21.2842 28.6338C21.8672 29.2163 22.8643 28.8037 22.8643 27.9795L22.8643 21.4507L26.9639 21.4507Z" fill="#FFCC4A" fill-opacity="1.000000" fill-rule="nonzero"/>
	<rect id="Rectangle 15" x="7.569336" y="13.633301" rx="0.775175" width="13.869875" height="1.550351" fill="#1B1B1B" fill-opacity="1.000000"/>
	<rect id="Rectangle 16" x="7.569336" y="9.639160" rx="0.775175" width="13.869875" height="1.550351" fill="#1B1B1B" fill-opacity="1.000000"/>
	<rect id="Rectangle 17" x="7.569336" y="6.058594" rx="0.775175" width="13.869875" height="1.550351" fill="#1B1B1B" fill-opacity="1.000000"/>
</svg>
