<svg width="52.778320" height="52.777832" viewBox="0 0 52.7783 52.7778" fill="none" xmlns="http://www.w3.org/2000/svg" xmlns:xlink="http://www.w3.org/1999/xlink">
	<desc>
			Created with Pixso.
	</desc>
	<defs/>
	<circle id="Background" cx="26.388672" cy="26.388916" r="26.388947" fill="#181818" fill-opacity="1.000000"/>
	<path id="Pattern" d="M26.3594 38.8411C19.4785 38.8411 13.9004 33.2631 13.9004 26.3822C13.9004 19.5013 19.4785 13.9233 26.3594 13.9233C33.2402 13.9233 38.8184 19.5013 38.8184 26.3822C38.8184 33.2631 33.2402 38.8411 26.3594 38.8411Z" stroke="#FFFFFF" stroke-opacity="1.000000" stroke-width="2.000000" stroke-linejoin="round"/>
	<path id="Pattern" d="M16.1846 33.572L17.7031 32.6505C17.8535 32.5576 17.9775 32.4279 18.0645 32.2733C18.1504 32.1189 18.1963 31.9449 18.1963 31.7681L18.2217 27.083C18.2246 26.8888 18.2832 26.6993 18.3906 26.538L20.9609 22.5018C21.0371 22.3826 21.1377 22.2802 21.2559 22.2008C21.374 22.1215 21.5059 22.0668 21.6455 22.04C21.7852 22.0134 21.9287 22.0153 22.0674 22.0455C22.2061 22.0758 22.3369 22.1339 22.4531 22.2163L24.9971 24.0591C25.2158 24.2122 25.4834 24.2812 25.749 24.2538L29.8369 23.6958C30.085 23.6616 30.3115 23.5367 30.4736 23.3453L33.3545 20.0229C33.5254 19.8204 33.6133 19.5609 33.6006 19.2963L33.458 16.1426" stroke="#FFFFFF" stroke-opacity="1.000000" stroke-width="2.000000" stroke-linejoin="round" stroke-linecap="round"/>
	<path id="Pattern" d="M34.0293 36.2065L32.6279 34.8049C32.498 34.6754 32.3379 34.5815 32.1611 34.5325L29.3701 33.8057C29.126 33.7386 28.9131 33.584 28.7744 33.3711C28.6357 33.1583 28.5801 32.902 28.6182 32.6506L28.916 30.5482C28.9463 30.3713 29.0195 30.205 29.1309 30.0642C29.2422 29.9236 29.3867 29.8132 29.5527 29.7435L33.498 28.0953C33.6807 28.0189 33.8818 27.9967 34.0781 28.0311C34.2734 28.0657 34.4551 28.1555 34.6006 28.29L37.832 31.249" stroke="#FFFFFF" stroke-opacity="1.000000" stroke-width="2.000000" stroke-linejoin="round" stroke-linecap="round"/>
</svg>
