<svg width="52.778320" height="52.777832" viewBox="0 0 52.7783 52.7778" fill="none" xmlns="http://www.w3.org/2000/svg" xmlns:xlink="http://www.w3.org/1999/xlink">
	<desc>
			Created with Pixso.
	</desc>
	<defs/>
	<circle id="Background" cx="26.388672" cy="26.388916" r="26.388947" fill="#181818" fill-opacity="1.000000"/>
	<path id="Pattern" d="M17.9053 20.9722C17.7744 20.873 17.6689 20.7452 17.5957 20.5986C17.5225 20.4521 17.4834 20.2906 17.4824 20.1267L17.4824 15.3711C17.4824 15.0907 17.5938 14.8219 17.792 14.6238C17.9902 14.4255 18.2588 14.3142 18.5391 14.3142L33.335 14.3142C33.6152 14.3142 33.8838 14.4255 34.082 14.6238C34.2803 14.8219 34.3916 15.0907 34.3916 15.3711L34.3916 20.0739C34.3906 20.2378 34.3516 20.3993 34.2783 20.5459C34.2051 20.6924 34.0996 20.8202 33.9688 20.9193L25.9375 26.9961L17.9053 20.9722Z" stroke="#FFFFFF" stroke-opacity="1.000000" stroke-width="2.000000" stroke-linejoin="round"/>
	<path id="Pattern" d="M17.9053 33.02C17.7744 33.1191 17.6689 33.2469 17.5957 33.3936C17.5225 33.5402 17.4834 33.7015 17.4824 33.8655L17.4824 38.6212C17.4824 38.9015 17.5938 39.1703 17.792 39.3684C17.9902 39.5667 18.2588 39.678 18.5391 39.678L33.335 39.678C33.6152 39.678 33.8838 39.5667 34.082 39.3684C34.2803 39.1703 34.3916 38.9015 34.3916 38.6212L34.3916 33.9183C34.3906 33.7544 34.3516 33.5929 34.2783 33.4464C34.2051 33.2998 34.0996 33.172 33.9688 33.0729L25.9375 26.9961L17.9053 33.02Z" stroke="#FFFFFF" stroke-opacity="1.000000" stroke-width="2.000000" stroke-linejoin="round"/>
</svg>
