<svg width="17.759766" height="17.760254" viewBox="0 0 17.7598 17.7603" fill="none" xmlns="http://www.w3.org/2000/svg" xmlns:xlink="http://www.w3.org/1999/xlink">
	<desc>
			Created with Pixso.
	</desc>
	<defs/>
	<path id="Icon" d="M8.84961 12.4878C8.96387 12.542 9.09082 12.5654 9.2168 12.5562C9.34375 12.5464 9.46484 12.5039 9.57031 12.4331L11.8516 10.9092C11.9521 10.8408 12.0684 10.7993 12.1904 10.7881C12.3115 10.7769 12.4336 10.7964 12.5449 10.8452L16.8154 12.6797C16.9609 12.7402 17.083 12.8472 17.1621 12.9844C17.2412 13.1211 17.2734 13.2803 17.2529 13.437C17.1182 14.4932 16.6025 15.4644 15.8027 16.168C15.0039 16.8716 13.9746 17.2603 12.9102 17.2603C9.61816 17.2603 6.46191 15.9526 4.13477 13.6255C1.80762 11.2983 0.5 8.1416 0.5 4.8501C0.5 3.78516 0.888672 2.75684 1.5918 1.95752C2.2959 1.15771 3.2666 0.64209 4.32324 0.506836C4.48047 0.486816 4.63965 0.518555 4.77637 0.597656C4.91309 0.676758 5.01953 0.798828 5.08105 0.944824L6.91504 5.22461C6.96289 5.33447 6.98242 5.4541 6.97266 5.57324C6.96387 5.69287 6.9248 5.80811 6.86035 5.90869L5.33594 8.22656C5.26855 8.33154 5.22852 8.45166 5.2207 8.57666C5.21289 8.70117 5.23633 8.82568 5.29102 8.93848C6.04199 10.4897 7.2959 11.7407 8.84961 12.4878Z" stroke="#0D0D0D" stroke-opacity="1.000000" stroke-width="1.000000" stroke-linejoin="round"/>
</svg>
