<svg width="100.647461" height="97.983154" viewBox="0 0 100.647 97.9832" fill="none" xmlns="http://www.w3.org/2000/svg" xmlns:xlink="http://www.w3.org/1999/xlink">
	<desc>
			Created with Pixso.
	</desc>
	<defs/>
	<circle id="Ellipse 14" cx="23.788086" cy="74.194580" r="23.788406" fill="#DADADA" fill-opacity="1.000000"/>
	<path id="Star 13" d="M74.252 9.46362L73.3281 12.3059C73.2617 12.512 73.0693 12.6514 72.8525 12.6514L69.8643 12.6514C69.3799 12.6514 69.1787 13.2712 69.5703 13.5559L71.9883 15.3125C72.1641 15.4399 72.2373 15.6655 72.1699 15.8716L71.2461 18.7139C71.0967 19.1746 71.624 19.5576 72.0156 19.2729L74.4336 17.5164C74.6094 17.3889 74.8467 17.3889 75.0215 17.5164L77.4395 19.2729C77.8311 19.5576 78.3584 19.1746 78.209 18.7139L77.2852 15.8716C77.2188 15.6655 77.292 15.4399 77.4668 15.3125L79.8848 13.5559C80.2764 13.2712 80.0752 12.6514 79.5908 12.6514L76.6025 12.6514C76.3857 12.6514 76.1934 12.512 76.127 12.3059L75.2031 9.46362C75.0537 9.00293 74.4014 9.00293 74.252 9.46362Z" fill="#141414" fill-opacity="1.000000" fill-rule="evenodd"/>
	<path id="Polygon 1" d="M15.9639 51.9895L8.41602 44.4421C8.14453 44.1702 7.67969 44.2947 7.58008 44.6665L4.81738 54.9761C4.71777 55.3477 5.05762 55.688 5.42969 55.5884L15.7393 52.8259C16.1113 52.7263 16.2354 52.2615 15.9639 51.9895Z" fill="#4EAF4E" fill-opacity="1.000000" fill-rule="evenodd"/>
	<circle id="Ellipse 13" cx="93.389648" cy="25.677002" r="7.257034" fill="#DADADA" fill-opacity="1.000000"/>
	<rect id="Rectangle 33" x="28.679688" y="64.427734" width="51.821083" height="8.028477" fill="#4EAF4E" fill-opacity="1.000000"/>
	<path id="Vector" d="M26.2246 42.5454L82.9551 42.5454L54.5898 25.0898L26.2246 42.5454Z" fill="#FFCC4A" fill-opacity="1.000000" fill-rule="nonzero"/>
	<path id="Vector" d="M82.9551 42.5454L54.5898 25.0898L26.2246 42.5454L82.9551 42.5454Z" stroke="#141414" stroke-opacity="1.000000" stroke-width="2.000000" stroke-linejoin="round"/>
	<path id="Vector" d="M34.9531 42.5449L34.9531 64.3643" stroke="#141414" stroke-opacity="1.000000" stroke-width="2.000000" stroke-linejoin="round" stroke-linecap="round"/>
	<path id="Vector" d="M48.043 42.5449L48.043 64.3643" stroke="#141414" stroke-opacity="1.000000" stroke-width="2.000000" stroke-linejoin="round" stroke-linecap="round"/>
	<path id="Vector" d="M61.1348 42.5449L61.1348 64.3643" stroke="#141414" stroke-opacity="1.000000" stroke-width="2.000000" stroke-linejoin="round" stroke-linecap="round"/>
	<path id="Vector" d="M74.2266 42.5449L74.2266 64.3643" stroke="#141414" stroke-opacity="1.000000" stroke-width="2.000000" stroke-linejoin="round" stroke-linecap="round"/>
	<path id="Vector" d="M28.4062 64.3652L80.7725 64.3652" stroke="#141414" stroke-opacity="1.000000" stroke-width="2.000000" stroke-linejoin="round" stroke-linecap="round"/>
	<path id="Vector" d="M24.043 73.0918L85.1377 73.0918" stroke="#141414" stroke-opacity="1.000000" stroke-width="2.000000" stroke-linejoin="round" stroke-linecap="round"/>
</svg>
