<svg width="104.875977" height="90.000000" viewBox="0 0 104.876 90" fill="none" xmlns="http://www.w3.org/2000/svg" xmlns:xlink="http://www.w3.org/1999/xlink">
	<desc>
			Created with Pixso.
	</desc>
	<defs/>
	<circle id="Ellipse 14" cx="22.864258" cy="68.959717" r="15.557342" fill="#DADADA" fill-opacity="1.000000"/>
	<path id="Star 13" d="M77.748 20.4636L76.7832 23.4348C76.7158 23.6409 76.5244 23.7803 76.3076 23.7803L73.1836 23.7803C72.6992 23.7803 72.4971 24.4001 72.8896 24.6848L75.417 26.5212C75.5918 26.6487 75.665 26.8743 75.5986 27.0803L74.6328 30.0515C74.4834 30.5122 75.0107 30.8953 75.4023 30.6106L77.9297 28.7742C78.1055 28.647 78.3428 28.647 78.5176 28.7742L81.0449 30.6106C81.4375 30.8953 81.9648 30.5122 81.8145 30.0515L80.8496 27.0803C80.7822 26.8743 80.8555 26.6487 81.0312 26.5212L83.5586 24.6848C83.9502 24.4001 83.749 23.7803 83.2646 23.7803L80.1406 23.7803C79.9238 23.7803 79.7314 23.6409 79.665 23.4348L78.6992 20.4636C78.5498 20.0029 77.8984 20.0029 77.748 20.4636Z" fill="#141414" fill-opacity="1.000000" fill-rule="evenodd"/>
	<path id="Polygon 1" d="M12.1123 73.5339L6.22363 67.6443C5.95117 67.3721 5.48633 67.4966 5.38672 67.8684L3.23047 75.9138C3.13086 76.2856 3.47168 76.6257 3.84375 76.5261L11.8887 74.3704C12.2607 74.2708 12.3848 73.8062 12.1123 73.5339Z" fill="#4EAF4E" fill-opacity="1.000000" fill-rule="evenodd"/>
	<circle id="Ellipse 13" cx="97.817383" cy="40.404297" r="7.058524" fill="#DADADA" fill-opacity="1.000000"/>
	<path id="Rectangle 31" d="M22.6826 47.377L79.1748 47.377L79.1748 73.4475C79.1748 74.552 78.2803 75.4475 77.1748 75.4475L25.6826 75.4475C24.0254 75.4475 22.6826 74.1042 22.6826 72.4475L22.6826 47.377Z" fill="#FFCC4A" fill-opacity="1.000000" fill-rule="evenodd"/>
	<path id="Rectangle 32" d="M65.7803 47.9375L21.6768 47.9375L21.6768 39.4778C21.6768 37.2686 23.4678 35.4778 25.6768 35.4778L62.7803 35.4778C64.4375 35.4778 65.7803 36.8208 65.7803 38.4778L65.7803 47.9375Z" fill="#4EAF4E" fill-opacity="1.000000" fill-rule="evenodd"/>
	<path id="Rectangle 32" d="M21.6768 47.9375L21.6768 39.4778C21.6768 37.2686 23.4678 35.4778 25.6768 35.4778L62.7803 35.4778C64.4375 35.4778 65.7803 36.8208 65.7803 38.4778L65.7803 47.9375L21.6768 47.9375ZM23.6768 45.9375L23.6768 39.4778C23.6768 38.373 24.5723 37.4778 25.6768 37.4778L62.7803 37.4778C63.333 37.4778 63.7803 37.9255 63.7803 38.4778L63.7803 45.9375L23.6768 45.9375Z" fill="#141414" fill-opacity="1.000000" fill-rule="evenodd"/>
	<path id="Vector" d="M76.5283 36.2109C77.7236 36.2109 78.6934 37.1799 78.6934 38.3752L78.6934 73.0054C78.6934 74.2009 77.7236 75.1699 76.5283 75.1699L24.583 75.1699C23.3877 75.1699 22.4189 74.2009 22.4189 73.0054L22.4189 38.3752C22.4189 37.1799 23.3877 36.2109 24.583 36.2109L76.5283 36.2109Z" stroke="#141414" stroke-opacity="1.000000" stroke-width="2.000000" stroke-linejoin="round"/>
	<path id="Vector" d="M61.3779 66.5117L70.0352 66.5117" stroke="#141414" stroke-opacity="1.000000" stroke-width="2.000000" stroke-linejoin="round" stroke-linecap="round"/>
	<path id="Vector" d="M48.3916 66.5117L52.7207 66.5117" stroke="#141414" stroke-opacity="1.000000" stroke-width="2.000000" stroke-linejoin="round" stroke-linecap="round"/>
	<path id="Vector" d="M22.4189 47.2754L78.6934 47.2754" stroke="#141414" stroke-opacity="1.000000" stroke-width="2.000000" stroke-linejoin="round" stroke-linecap="round"/>
</svg>
