<svg width="98.862305" height="89.535889" viewBox="0 0 98.8623 89.5359" fill="none" xmlns="http://www.w3.org/2000/svg" xmlns:xlink="http://www.w3.org/1999/xlink">
	<desc>
			Created with Pixso.
	</desc>
	<defs/>
	<circle id="Ellipse 14" cx="23.788086" cy="65.747314" r="23.788406" fill="#DDDDDD" fill-opacity="1.000000"/>
	<path id="Star 13" d="M79.3848 1.46362L78.4609 4.30591C78.3945 4.51196 78.2021 4.65137 77.9854 4.65137L74.9971 4.65137C74.5127 4.65137 74.3115 5.27124 74.7031 5.55591L77.1211 7.3125C77.2969 7.43994 77.3701 7.66553 77.3027 7.87158L76.3789 10.7139C76.2295 11.1746 76.7568 11.5576 77.1484 11.2729L79.5664 9.51636C79.7422 9.38892 79.9795 9.38892 80.1543 9.51636L82.5723 11.2729C82.9639 11.5576 83.4912 11.1746 83.3418 10.7139L82.418 7.87158C82.3516 7.66553 82.4248 7.43994 82.5996 7.3125L85.0176 5.55591C85.4092 5.27124 85.208 4.65137 84.7236 4.65137L81.7354 4.65137C81.5186 4.65137 81.3262 4.51196 81.2598 4.30591L80.3359 1.46362C80.1865 1.00293 79.5342 1.00293 79.3848 1.46362Z" fill="#141414" fill-opacity="1.000000" fill-rule="evenodd"/>
	<path id="Polygon 1" d="M29.6982 76.8801L22.1504 69.3328C21.8789 69.0608 21.4141 69.1853 21.3145 69.5571L18.5518 79.8667C18.4521 80.2383 18.792 80.5786 19.1641 80.479L29.4736 77.7166C29.8457 77.6169 29.9697 77.1521 29.6982 76.8801Z" fill="#4EAF4E" fill-opacity="1.000000" fill-rule="evenodd"/>
	<circle id="Ellipse 13" cx="91.604492" cy="23.702148" r="7.257034" fill="#DADADA" fill-opacity="1.000000"/>
	<path id="Ellipse 12" d="M31.2998 61.3999C35.2676 68.2712 41.6533 72.8867 48.7646 74.7922C56.4268 76.8533 64.2061 75.6013 70.582 71.9199C77.457 67.9592 82.0723 61.5735 83.9785 54.4617C86.0391 46.7996 84.7871 39.0208 81.1123 32.6406L56.2061 47.0203L31.2998 61.3999Z" fill="#FFCC4A" fill-opacity="1.000000" fill-rule="evenodd"/>
	<path id="Vector" d="M55.9785 46.1907L55.9785 17.1484" stroke="#141414" stroke-opacity="1.000000" stroke-width="2.000000" stroke-linejoin="round" stroke-linecap="round"/>
	<path id="Vector" d="M81.1182 31.6699L30.8389 60.7122" stroke="#141414" stroke-opacity="1.000000" stroke-width="2.000000" stroke-linejoin="round" stroke-linecap="round"/>
	<path id="Vector" d="M27.4209 51.5154C27.0908 49.76 26.9287 47.9771 26.9365 46.1909C26.9326 40.1846 28.7939 34.3252 32.2617 29.4211C35.7295 24.5171 40.6338 20.8105 46.2988 18.8125L46.2988 40.5942L27.4209 51.5154Z" fill="#4EAF4E" fill-opacity="1.000000" fill-rule="nonzero"/>
	<path id="Vector" d="M26.9365 46.1909C26.9326 40.1846 28.7939 34.3252 32.2617 29.4211C35.7295 24.5171 40.6338 20.8105 46.2988 18.8125L46.2988 40.5942L27.4209 51.5154C27.0908 49.76 26.9287 47.9771 26.9365 46.1909Z" stroke="#141414" stroke-opacity="1.000000" stroke-width="2.000000" stroke-linejoin="round"/>
	<path id="Vector" d="M26.9365 46.1909C26.9326 40.1846 28.7939 34.3252 32.2617 29.4211C35.7295 24.5171 40.6338 20.8105 46.2988 18.8125L46.2988 40.5942L27.4209 51.5154C27.0908 49.76 26.9287 47.9771 26.9365 46.1909Z" stroke="#141414" stroke-opacity="1.000000" stroke-width="2.000000" stroke-linejoin="round"/>
	<path id="Vector" d="M55.9785 17.1484C61.0674 17.1489 66.0674 18.4868 70.4766 21.0276C74.8857 23.5686 78.5498 27.2236 81.1016 31.6262C83.6533 36.0291 85.0039 41.0251 85.0176 46.114C85.0312 51.2029 83.707 56.2061 81.1787 60.6223C78.6494 65.0386 75.0049 68.7126 70.6094 71.2769C66.2129 73.8411 61.2207 75.2051 56.1318 75.2327C51.043 75.26 46.0361 73.95 41.6133 71.4333C37.1904 68.9167 33.5059 65.282 30.9297 60.8933" stroke="#141414" stroke-opacity="1.000000" stroke-width="2.000000" stroke-linejoin="round" stroke-linecap="round"/>
</svg>
