<svg width="96.387695" height="90.000000" viewBox="0 0 96.3877 90" fill="none" xmlns="http://www.w3.org/2000/svg" xmlns:xlink="http://www.w3.org/1999/xlink">
	<desc>
			Created with Pixso.
	</desc>
	<defs/>
	<circle id="Ellipse 14" cx="65.501953" cy="35.384033" r="23.788406" fill="#DADADA" fill-opacity="1.000000"/>
	<path id="Star 13" d="M35.0752 9.46362L33.9297 12.9893C33.8623 13.1953 33.6709 13.3347 33.4541 13.3347L29.7471 13.3347C29.2627 13.3347 29.0615 13.9546 29.4531 14.2393L32.4521 16.4182C32.627 16.5457 32.7002 16.7712 32.6338 16.9773L31.4883 20.5029C31.3389 20.9636 31.8652 21.3467 32.2578 21.062L35.2568 18.8831C35.4316 18.7556 35.6689 18.7556 35.8447 18.8831L38.8438 21.062C39.2354 21.3467 39.7627 20.9636 39.6133 20.5029L38.4678 16.9773C38.4004 16.7712 38.4736 16.5457 38.6494 16.4182L41.6484 14.2393C42.04 13.9546 41.8389 13.3347 41.3545 13.3347L37.6475 13.3347C37.4307 13.3347 37.2383 13.1953 37.1719 12.9893L36.0264 9.46362C35.876 9.00293 35.2246 9.00293 35.0752 9.46362Z" fill="#141414" fill-opacity="1.000000" fill-rule="evenodd"/>
	<path id="Polygon 1" d="M15.0781 71.5325L7.53027 63.9851C7.25879 63.7131 6.79395 63.8376 6.69434 64.2095L3.93164 74.519C3.83203 74.8906 4.17188 75.231 4.54395 75.1313L14.8535 72.3689C15.2256 72.2693 15.3496 71.8044 15.0781 71.5325Z" fill="#4EAF4E" fill-opacity="1.000000" fill-rule="evenodd"/>
	<circle id="Ellipse 13" cx="90.500977" cy="27.982422" r="5.886673" fill="#DADADA" fill-opacity="1.000000"/>
	<path id="Vector" d="M76.8936 30.3105L29.3838 30.3105C28.1914 30.3105 27.2246 31.2773 27.2246 32.47L27.2246 64.8625C27.2246 66.0552 28.1914 67.022 29.3838 67.022L76.8936 67.022C78.0859 67.022 79.0527 66.0552 79.0527 64.8625L79.0527 32.47C79.0527 31.2773 78.0859 30.3105 76.8936 30.3105Z" fill="#181818" fill-opacity="1.000000" fill-rule="nonzero"/>
	<path id="Vector" d="M76.8936 30.3105C78.0859 30.3105 79.0527 31.2773 79.0527 32.47L79.0527 64.8625C79.0527 66.0552 78.0859 67.022 76.8936 67.022L29.3838 67.022C28.1914 67.022 27.2246 66.0552 27.2246 64.8625L27.2246 32.47C27.2246 31.2773 28.1914 30.3105 29.3838 30.3105L76.8936 30.3105Z" stroke="#000" stroke-opacity="1.000000" stroke-width="2.000000" stroke-linejoin="round"/>
	<path id="Vector" d="M76.8936 30.3105L29.3838 30.3105C28.1914 30.3105 27.2246 31.2773 27.2246 32.47L27.2246 64.8625C27.2246 66.0552 28.1914 67.022 29.3838 67.022L76.8936 67.022C78.0859 67.022 79.0527 66.0552 79.0527 64.8625L79.0527 32.47C79.0527 31.2773 78.0859 30.3105 76.8936 30.3105Z" fill="#EBEBEB" fill-opacity="1.000000" fill-rule="nonzero"/>
	<path id="Vector" d="M76.8936 30.3105C78.0859 30.3105 79.0527 31.2773 79.0527 32.47L79.0527 64.8625C79.0527 66.0552 78.0859 67.022 76.8936 67.022L29.3838 67.022C28.1914 67.022 27.2246 66.0552 27.2246 64.8625L27.2246 32.47C27.2246 31.2773 28.1914 30.3105 29.3838 30.3105L76.8936 30.3105Z" stroke="#000" stroke-opacity="1.000000" stroke-width="2.000000" stroke-linejoin="round"/>
	<path id="Vector" d="M76.8936 56.7285L29.3838 56.7285C28.1914 56.7285 27.2246 56.9995 27.2246 57.334L27.2246 66.4167C27.2246 66.7512 28.1914 67.0222 29.3838 67.0222L76.8936 67.0222C78.0859 67.0222 79.0527 66.7512 79.0527 66.4167L79.0527 57.334C79.0527 56.9995 78.0859 56.7285 76.8936 56.7285Z" fill="#4EAF4E" fill-opacity="1.000000" fill-rule="nonzero"/>
	<path id="Vector" d="M76.8936 56.7285C78.0859 56.7285 79.0527 56.9995 79.0527 57.334L79.0527 66.4167C79.0527 66.7512 78.0859 67.0222 76.8936 67.0222L29.3838 67.0222C28.1914 67.0222 27.2246 66.7512 27.2246 66.4167L27.2246 57.334C27.2246 56.9995 28.1914 56.7285 29.3838 56.7285L76.8936 56.7285Z" stroke="#000" stroke-opacity="1.000000" stroke-width="2.000000" stroke-linejoin="round"/>
	<path id="Vector" d="M61.7764 67.0215L70.4141 77.8191" stroke="#000" stroke-opacity="1.000000" stroke-width="2.000000" stroke-linejoin="round" stroke-linecap="round"/>
	<path id="Vector" d="M44.5 67.0215L35.8623 77.8191" stroke="#000" stroke-opacity="1.000000" stroke-width="2.000000" stroke-linejoin="round" stroke-linecap="round"/>
	<path id="Vector" d="M44.501 49.7461L44.501 56.2246" stroke="#000" stroke-opacity="1.000000" stroke-width="2.000000" stroke-linejoin="round" stroke-linecap="round"/>
	<path id="Vector" d="M53.1387 45.4277L53.1387 56.2253" stroke="#000" stroke-opacity="1.000000" stroke-width="2.000000" stroke-linejoin="round" stroke-linecap="round"/>
	<path id="Vector" d="M61.7764 41.1074L61.7764 56.2239" stroke="#000" stroke-opacity="1.000000" stroke-width="2.000000" stroke-linejoin="round" stroke-linecap="round"/>
	<path id="Vector" d="M53.1387 30.3105L53.1387 23.832" stroke="#000" stroke-opacity="1.000000" stroke-width="2.000000" stroke-linejoin="round" stroke-linecap="round"/>
</svg>
