<svg width="92.000000" height="94.283203" viewBox="0 0 92 94.2832" fill="none" xmlns="http://www.w3.org/2000/svg" xmlns:xlink="http://www.w3.org/1999/xlink">
	<desc>
			Created with Pixso.
	</desc>
	<defs/>
	<circle id="Ellipse 14" cx="20.896484" cy="73.386719" r="20.896465" fill="#DADADA" fill-opacity="1.000000"/>
	<path id="Star 13" d="M56.2998 8.46362L55.1768 11.9199C55.1104 12.126 54.918 12.2654 54.7012 12.2654L51.0674 12.2654C50.583 12.2654 50.3809 12.8853 50.7734 13.1699L53.7129 15.3059C53.8887 15.4333 53.9619 15.6589 53.8945 15.865L52.7715 19.3213C52.6221 19.782 53.1494 20.165 53.541 19.8804L56.4814 17.7441C56.6562 17.6169 56.8936 17.6169 57.0693 17.7441L60.0098 19.8804C60.4014 20.165 60.9287 19.782 60.7793 19.3213L59.6562 15.865C59.5889 15.6589 59.6621 15.4333 59.8379 15.3059L62.7773 13.1699C63.1699 12.8853 62.9678 12.2654 62.4834 12.2654L58.8496 12.2654C58.6328 12.2654 58.4404 12.126 58.374 11.9199L57.251 8.46362C57.1016 8.00293 56.4492 8.00293 56.2998 8.46362Z" fill="#141414" fill-opacity="1.000000" fill-rule="evenodd"/>
	<path id="Polygon 1" d="M29.1963 75.6292L21.8564 68.2886C21.584 68.0164 21.1191 68.1411 21.0195 68.5127L18.333 78.5403C18.2334 78.9121 18.5732 79.2522 18.9453 79.1526L28.9727 76.4658C29.3447 76.3662 29.4688 75.9014 29.1963 75.6292Z" fill="#4EAF4E" fill-opacity="1.000000" fill-rule="evenodd"/>
	<circle id="Ellipse 13" cx="72.980469" cy="30.431885" r="6.029487" fill="#DADADA" fill-opacity="1.000000"/>
	<path id="Vector" d="M63.4287 41.1973C74.6367 42.2415 83.082 46.6941 83.082 52.0374C83.082 58.1484 72.0879 63.0925 58.5146 63.0925C52.4961 63.0925 46.9688 62.1099 42.7002 60.5129M63.3574 42.1748L63.3359 42.1929C62.7783 42.1411 62.3809 41.6621 62.4326 41.1045C62.4844 40.5469 62.9639 40.1497 63.5215 40.2017L63.5391 40.2234L63.3574 42.1748ZM42.376 61.438L42.3496 61.4497C41.8252 61.2534 41.5674 60.687 41.7637 60.1626C41.96 59.6382 42.5264 59.3801 43.0508 59.5764L43.0625 59.6021L42.376 61.438Z" fill="#4EAF4E" fill-opacity="1.000000" fill-rule="nonzero"/>
	<path id="Vector" d="M63.4287 41.1973C74.6367 42.2415 83.082 46.6941 83.082 52.0374C83.082 58.1484 72.0879 63.0925 58.5146 63.0925C52.4961 63.0925 46.9688 62.1099 42.7002 60.5129" stroke="#141414" stroke-opacity="1.000000" stroke-width="2.000000" stroke-linejoin="round" stroke-linecap="round"/>
	<path id="Vector" d="M14.2939 37.2969L14.2939 49.5803C14.2939 55.6914 25.2881 60.6355 38.8613 60.6355C52.4336 60.6355 63.4277 55.6914 63.4277 49.5803L63.4277 37.2969M13.3135 37.3169L13.2939 37.2969C13.2939 36.7368 13.7344 36.2969 14.2939 36.2969C14.8535 36.2969 15.2939 36.7368 15.2939 37.2969L15.2744 37.3169L13.3135 37.3169ZM62.4473 37.3169L62.4277 37.2969C62.4277 36.7368 62.8682 36.2969 63.4277 36.2969C63.9873 36.2969 64.4277 36.7368 64.4277 37.2969L64.4082 37.3169L62.4473 37.3169Z" fill="#FFFFFF" fill-opacity="1.000000" fill-rule="nonzero"/>
	<path id="Vector" d="M14.2939 37.2969L14.2939 49.5803C14.2939 55.6914 25.2881 60.6355 38.8613 60.6355C52.4336 60.6355 63.4277 55.6914 63.4277 49.5803L63.4277 37.2969" stroke="#141414" stroke-opacity="1.000000" stroke-width="2.000000" stroke-linejoin="round" stroke-linecap="round"/>
	<path id="Vector" d="M38.8613 48.3523C52.4287 48.3523 63.4277 43.4028 63.4277 37.2974C63.4277 31.1917 52.4287 26.2422 38.8613 26.2422C25.293 26.2422 14.2939 31.1917 14.2939 37.2974C14.2939 43.4028 25.293 48.3523 38.8613 48.3523Z" fill="#FFCC4A" fill-opacity="1.000000" fill-rule="nonzero"/>
	<path id="Vector" d="M38.8613 48.3523C25.293 48.3523 14.2939 43.4028 14.2939 37.2974C14.2939 31.1917 25.293 26.2422 38.8613 26.2422C52.4287 26.2422 63.4277 31.1917 63.4277 37.2974C63.4277 43.4028 52.4287 48.3523 38.8613 48.3523Z" stroke="#141414" stroke-opacity="1.000000" stroke-width="2.000000" stroke-linejoin="round"/>
	<path id="Vector" d="M29.0342 47.4316L29.0342 59.7151" stroke="#141414" stroke-opacity="1.000000" stroke-width="2.000000" stroke-linejoin="round" stroke-linecap="round"/>
	<path id="Vector" d="M33.9482 60.4207L33.9482 64.3206C33.9482 70.4316 44.9424 75.3757 58.5156 75.3757C72.0879 75.3757 83.082 70.4316 83.082 64.3206L83.082 52.0371" stroke="#141414" stroke-opacity="1.000000" stroke-width="2.000000" stroke-linejoin="round" stroke-linecap="round"/>
	<path id="Vector" d="M68.3418 62.1719L68.3418 74.4553" stroke="#141414" stroke-opacity="1.000000" stroke-width="2.000000" stroke-linejoin="round" stroke-linecap="round"/>
	<path id="Vector" d="M48.6875 47.4316L48.6875 74.4553" stroke="#141414" stroke-opacity="1.000000" stroke-width="2.000000" stroke-linejoin="round" stroke-linecap="round"/>
</svg>
