<svg width="101.924805" height="90.000000" viewBox="0 0 101.925 90" fill="none" xmlns="http://www.w3.org/2000/svg" xmlns:xlink="http://www.w3.org/1999/xlink">
	<desc>
			Created with Pixso.
	</desc>
	<defs/>
	<circle id="Ellipse 14" cx="73.737305" cy="40.874268" r="23.788406" fill="#DADADA" fill-opacity="1.000000"/>
	<path id="Star 13" d="M94.7168 65.4285L93.793 68.2708C93.7266 68.4768 93.5342 68.6162 93.3174 68.6162L90.3291 68.6162C89.8447 68.6162 89.6436 69.2361 90.0352 69.5208L92.4531 71.2773C92.6289 71.4048 92.7021 71.6304 92.6348 71.8364L91.7109 74.6787C91.5615 75.1394 92.0889 75.5225 92.4805 75.2378L94.8984 73.4812C95.0742 73.3538 95.3115 73.3538 95.4863 73.4812L97.9043 75.2378C98.2959 75.5225 98.8232 75.1394 98.6738 74.6787L97.75 71.8364C97.6836 71.6304 97.7568 71.4048 97.9316 71.2773L100.35 69.5208C100.741 69.2361 100.54 68.6162 100.056 68.6162L97.0674 68.6162C96.8506 68.6162 96.6582 68.4768 96.5918 68.2708L95.668 65.4285C95.5186 64.9678 94.8662 64.9678 94.7168 65.4285Z" fill="#141414" fill-opacity="1.000000" fill-rule="evenodd"/>
	<path id="Polygon 1" d="M15.0771 51.8918L7.5293 44.3445C7.25781 44.0725 6.79297 44.197 6.69336 44.5688L3.93066 54.8784C3.83105 55.25 4.1709 55.5903 4.54297 55.4907L14.8525 52.7283C15.2246 52.6287 15.3486 52.1638 15.0771 51.8918Z" fill="#4EAF4E" fill-opacity="1.000000" fill-rule="evenodd"/>
	<circle id="Ellipse 13" cx="48.308594" cy="19.021484" r="5.021439" fill="#DADADA" fill-opacity="1.000000"/>
	<path id="Vector" d="M80.167 37.7832L22.0195 37.7832C20.7842 37.7832 19.7832 38.7844 19.7832 40.0195L19.7832 71.3298C19.7832 72.5652 20.7842 73.5664 22.0195 73.5664L80.167 73.5664C81.4023 73.5664 82.4033 72.5652 82.4033 71.3298L82.4033 40.0195C82.4033 38.7844 81.4023 37.7832 80.167 37.7832Z" fill="#EBEBEB" fill-opacity="1.000000" fill-rule="nonzero"/>
	<path id="Vector" d="M80.167 37.7832C81.4023 37.7832 82.4033 38.7844 82.4033 40.0195L82.4033 71.3298C82.4033 72.5652 81.4023 73.5664 80.167 73.5664L22.0195 73.5664C20.7842 73.5664 19.7832 72.5652 19.7832 71.3298L19.7832 40.0195C19.7832 38.7844 20.7842 37.7832 22.0195 37.7832L80.167 37.7832Z" stroke="#141414" stroke-opacity="1.000000" stroke-width="2.000000" stroke-linejoin="round"/>
	<path id="Vector 2" d="M82.5098 57.7161L64.6006 73.7109L79.5098 73.7109C81.167 73.7109 82.5098 72.3677 82.5098 70.7109L82.5098 57.7161Z" fill="#4EAF4E" fill-opacity="1.000000" fill-rule="nonzero"/>
	<path id="Vector 2" d="M82.5098 57.7161L82.5098 70.7109C82.5098 72.3677 81.167 73.7109 79.5098 73.7109L64.6006 73.7109L82.5098 57.7161Z" stroke="#000000" stroke-opacity="1.000000" stroke-width="1.000000"/>
	<path id="Vector 1" d="M19.6777 53.5203L37.5869 37.5254L22.6777 37.5254C21.0205 37.5254 19.6777 38.8687 19.6777 40.5254L19.6777 53.5203Z" fill="#4EAF4E" fill-opacity="1.000000" fill-rule="nonzero"/>
	<path id="Vector 1" d="M19.6777 53.5203L19.6777 40.5254C19.6777 38.8687 21.0205 37.5254 22.6777 37.5254L37.5869 37.5254L19.6777 53.5203Z" stroke="#000000" stroke-opacity="1.000000" stroke-width="1.000000"/>
	<path id="Vector" d="M51.0918 64.6201C56.0332 64.6201 60.0381 60.615 60.0381 55.6743C60.0381 50.7336 56.0332 46.7285 51.0918 46.7285C46.1514 46.7285 42.1465 50.7336 42.1465 55.6743C42.1465 60.615 46.1514 64.6201 51.0918 64.6201Z" fill="#FFCC4A" fill-opacity="1.000000" fill-rule="nonzero"/>
	<path id="Vector" d="M51.0918 64.6201C46.1514 64.6201 42.1465 60.615 42.1465 55.6743C42.1465 50.7336 46.1514 46.7285 51.0918 46.7285C56.0332 46.7285 60.0381 50.7336 60.0381 55.6743C60.0381 60.615 56.0332 64.6201 51.0918 64.6201Z" stroke="#141414" stroke-opacity="1.000000" stroke-width="2.000000" stroke-linejoin="round"/>
	<path id="Vector" d="M64.5117 37.7832L82.4033 53.4382" stroke="#141414" stroke-opacity="1.000000" stroke-width="2.000000" stroke-linejoin="round" stroke-linecap="round"/>
	<path id="Vector" d="M64.5117 73.5652L82.4033 57.9102" stroke="#141414" stroke-opacity="1.000000" stroke-width="2.000000" stroke-linejoin="round" stroke-linecap="round"/>
	<path id="Vector" d="M37.0146 37.0588L37.0166 37.0305C37.4375 36.6619 38.0586 36.7034 38.4277 37.1248C38.7959 37.5461 38.7549 38.167 38.333 38.5359L38.3047 38.5339L37.0146 37.0588ZM20.4434 54.1626L20.4414 54.1909C20.0205 54.5596 19.3994 54.5183 19.0303 54.0969C18.6621 53.6753 18.7031 53.0544 19.125 52.6858L19.1533 52.6877L20.4434 54.1626Z" fill="#D9D9D9" fill-opacity="1.000000" fill-rule="nonzero"/>
	<path id="Vector" d="M37.6748 37.7832L19.7832 53.4382" stroke="#141414" stroke-opacity="1.000000" stroke-width="2.000000" stroke-linejoin="round" stroke-linecap="round"/>
	<path id="Vector" d="M37.6748 73.5652L19.7832 57.9102" stroke="#141414" stroke-opacity="1.000000" stroke-width="2.000000" stroke-linejoin="round" stroke-linecap="round"/>
</svg>
