<svg width="22.382812" height="22.382324" viewBox="0 0 22.3828 22.3823" fill="none" xmlns="http://www.w3.org/2000/svg" xmlns:xlink="http://www.w3.org/1999/xlink">
	<desc>
			Created with Pixso.
	</desc>
	<defs/>
	<path id="Vector" d="M11.1914 0C8.97754 0 6.81445 0.65625 4.97363 1.88599C3.13379 3.11572 1.69922 4.86353 0.851562 6.90845C0.00488281 8.95337 -0.216797 11.2036 0.214844 13.3745C0.646484 15.5454 1.71289 17.5393 3.27734 19.1045C4.84277 20.6697 6.83691 21.7356 9.00781 22.1672C11.1787 22.5991 13.4287 22.3774 15.4736 21.5305C17.5186 20.6833 19.2666 19.249 20.4961 17.4087C21.7256 15.5684 22.3828 13.4045 22.3828 11.1912C22.377 8.22485 21.1953 5.38159 19.0986 3.28418C17.001 1.18652 14.1572 0.00561523 11.1914 0ZM15.0654 7.7478C15.3203 7.7478 15.5703 7.82349 15.7822 7.96533C15.9951 8.10718 16.1602 8.30884 16.2578 8.54492C16.3555 8.78076 16.3809 9.04053 16.3311 9.29102C16.2812 9.5415 16.1592 9.77148 15.9785 9.95215C15.7979 10.1328 15.5674 10.2556 15.3174 10.3054C15.0664 10.3552 14.8066 10.3298 14.5713 10.2319C14.335 10.1343 14.1328 9.96875 13.9912 9.75635C13.8496 9.54419 13.7734 9.29443 13.7734 9.03906C13.7734 8.69653 13.9102 8.36816 14.1523 8.12598C14.3945 7.88379 14.7227 7.7478 15.0654 7.7478ZM7.31738 7.7478C7.57227 7.7478 7.82227 7.82349 8.03516 7.96533C8.24707 8.10718 8.41211 8.30884 8.51074 8.54492C8.6084 8.78076 8.63379 9.04053 8.58398 9.29102C8.53418 9.5415 8.41113 9.77148 8.23047 9.95215C8.0498 10.1328 7.81934 10.2556 7.56934 10.3054C7.31836 10.3552 7.05957 10.3298 6.82324 10.2319C6.58691 10.1343 6.38574 9.96875 6.24316 9.75635C6.10156 9.54419 6.02637 9.29443 6.02637 9.03906C6.02637 8.69653 6.16211 8.36816 6.4043 8.12598C6.64648 7.88379 6.97461 7.7478 7.31738 7.7478ZM16.4102 14.2041C15.8809 15.1204 15.1201 15.8811 14.2041 16.4102C13.2881 16.9392 12.249 17.2178 11.1914 17.2178C10.1328 17.2178 9.09375 16.9392 8.17773 16.4102C7.26172 15.8811 6.50098 15.1204 5.97266 14.2041C5.90527 14.1064 5.8584 13.9958 5.83594 13.8792C5.81348 13.7627 5.81543 13.6428 5.84082 13.5269C5.86719 13.4111 5.91699 13.302 5.9873 13.2063C6.05762 13.1106 6.14648 13.0303 6.24902 12.9709C6.35156 12.9114 6.46582 12.8735 6.58398 12.8604C6.70215 12.8469 6.82129 12.8579 6.93457 12.8931C7.04785 12.928 7.15332 12.9861 7.24316 13.0635C7.33301 13.1411 7.40625 13.2363 7.45703 13.3433C7.83594 13.9978 8.38086 14.5413 9.03613 14.9192C9.69141 15.2969 10.4346 15.4956 11.1914 15.4956C11.9473 15.4956 12.6904 15.2969 13.3457 14.9192C14.002 14.5413 14.5459 13.9978 14.9248 13.3433C15.0479 13.1648 15.2334 13.0396 15.4453 12.9919C15.6562 12.9446 15.8779 12.9785 16.0654 13.0872C16.2529 13.1958 16.3926 13.3711 16.457 13.5781C16.5205 13.7854 16.5039 14.0088 16.4102 14.2041Z" fill="#4EAF4E" fill-opacity="1.000000" fill-rule="nonzero"/>
</svg>
