<svg width="21.801758" height="20.833008" viewBox="0 0 21.8018 20.833" fill="none" xmlns="http://www.w3.org/2000/svg" xmlns:xlink="http://www.w3.org/1999/xlink">
	<desc>
			Created with Pixso.
	</desc>
	<defs/>
	<path id="Star 12" d="M9.9502 0.690918L8.0625 6.50073C7.92871 6.91284 7.54395 7.19189 7.11133 7.19189L1.00195 7.19189C0.0332031 7.19189 -0.369141 8.4314 0.414062 9.00073L5.35645 12.5916C5.70703 12.8462 5.85352 13.2976 5.71973 13.7095L3.83203 19.5193C3.5332 20.4407 4.58691 21.2068 5.37109 20.6375L10.3135 17.0466C10.6641 16.792 11.1387 16.792 11.4893 17.0466L16.4307 20.6375C17.2148 21.2068 18.2695 20.4407 17.9697 19.5193L16.082 13.7095C15.9482 13.2976 16.0947 12.8462 16.4453 12.5916L21.3877 9.00073C22.1709 8.4314 21.7686 7.19189 20.7998 7.19189L14.6904 7.19189C14.2578 7.19189 13.874 6.91284 13.7402 6.50073L11.8525 0.690918C11.5527 -0.230225 10.249 -0.230225 9.9502 0.690918Z" fill="#FFCC4A" fill-opacity="1.000000" fill-rule="evenodd"/>
</svg>
