<svg width="19.884766" height="15.896484" viewBox="0 0 19.8848 15.8965" fill="none" xmlns="http://www.w3.org/2000/svg" xmlns:xlink="http://www.w3.org/1999/xlink">
	<desc>
			Created with Pixso.
	</desc>
	<defs/>
	<path id="Icon" d="M19.8848 1.88379C19.1387 2.20752 18.3496 2.4209 17.542 2.51709C18.3906 2.02051 19.0293 1.23145 19.3369 0.297852C18.5352 0.76709 17.6582 1.0957 16.7461 1.271C16.3613 0.868164 15.8984 0.547852 15.3867 0.32959C14.875 0.111328 14.3232 -0.000976562 13.7666 0C11.5117 0 9.6875 1.79688 9.6875 4.01123C9.68652 4.31934 9.72168 4.62646 9.79297 4.92627C8.17676 4.85059 6.59375 4.43848 5.14551 3.71631C3.69727 2.99414 2.41602 1.97803 1.38281 0.73291C1.02148 1.34277 0.829102 2.03906 0.828125 2.74902C0.828125 4.13965 1.55469 5.36914 2.65137 6.08936C2.00195 6.07422 1.36523 5.90234 0.795898 5.58887L0.795898 5.63818C0.795898 7.58398 2.20508 9.20264 4.06934 9.57129C3.71875 9.66455 3.35742 9.71191 2.99414 9.71191C2.7373 9.7124 2.48047 9.6875 2.22754 9.63721C2.74609 11.231 4.25391 12.3901 6.04102 12.4233C4.58887 13.5415 2.80664 14.146 0.973633 14.1416C0.648438 14.1411 0.323242 14.1216 0 14.0835C1.86426 15.2734 4.03223 15.9028 6.24512 15.8965C13.7578 15.8965 17.8623 9.78223 17.8623 4.479C17.8623 4.30518 17.8584 4.13135 17.8496 3.96191C18.6465 3.39551 19.3359 2.69189 19.8848 1.88379Z" fill="#FFFFFF" fill-opacity="1.000000" fill-rule="nonzero"/>
</svg>
