<svg width="45.032227" height="45.032715" viewBox="0 0 45.0322 45.0327" fill="none" xmlns="http://www.w3.org/2000/svg" xmlns:xlink="http://www.w3.org/1999/xlink">
	<desc>
			Created with Pixso.
	</desc>
	<defs/>
	<circle id="Ellipse 20" cx="22.516602" cy="22.516357" r="22.516296" fill="#E2F4E2" fill-opacity="1.000000"/>
	<path id="Vector" d="M22.7842 26.1179C22.8965 26.1707 23.0195 26.1934 23.1426 26.1841C23.2646 26.1748 23.3838 26.1335 23.4854 26.0647L25.7031 24.583C25.8018 24.5166 25.915 24.4761 26.0322 24.4653C26.1504 24.4543 26.2695 24.4736 26.3779 24.521L30.5293 26.3042C30.6719 26.3633 30.79 26.4673 30.8672 26.6003C30.9443 26.7334 30.9746 26.8882 30.9551 27.0405C30.8242 28.0676 30.3223 29.0117 29.5449 29.6958C28.7676 30.3801 27.7676 30.7576 26.7324 30.7578C23.5322 30.7578 20.4639 29.4866 18.2012 27.2239C15.9385 24.9612 14.667 21.8923 14.667 18.6924C14.667 17.6567 15.0449 16.6567 15.7285 15.8796C16.4131 15.1023 17.3574 14.6008 18.3838 14.4692C18.5371 14.4497 18.6914 14.4807 18.8242 14.5579C18.957 14.6348 19.0615 14.7532 19.1201 14.8953L20.9043 19.0559C20.9502 19.1628 20.9697 19.2793 20.96 19.3953C20.9512 19.5115 20.9131 19.6233 20.8506 19.7214L19.3691 21.9749C19.3027 22.0767 19.2646 22.1938 19.2568 22.3149C19.249 22.4363 19.2725 22.5574 19.3242 22.6667C20.0547 24.175 21.2744 25.3914 22.7842 26.1179Z" stroke="#37A437" stroke-opacity="1.000000" stroke-width="1.000000" stroke-linejoin="round"/>
</svg>
