<svg width="71.722656" height="51.867676" viewBox="0 0 71.7227 51.8677" fill="none" xmlns="http://www.w3.org/2000/svg" xmlns:xlink="http://www.w3.org/1999/xlink">
	<desc>
			Created with Pixso.
	</desc>
	<defs/>
	<path id="Vector" d="M35.8613 39.355C29.4141 39.355 24.1875 34.1287 24.1875 27.6814C24.1875 21.2344 29.4141 16.0078 35.8613 16.0078C42.3086 16.0078 47.5352 21.2344 47.5352 27.6814C47.5352 34.1287 42.3086 39.355 35.8613 39.355Z" stroke="#141414" stroke-opacity="1.000000" stroke-width="4.000000" stroke-linejoin="round"/>
	<path id="Vector" d="M55.7061 20.6775C58.4248 20.6729 61.1074 21.304 63.54 22.52C65.9717 23.7361 68.0869 25.5037 69.7148 27.6816" stroke="#141414" stroke-opacity="1.000000" stroke-width="4.000000" stroke-linejoin="round" stroke-linecap="round"/>
	<path id="Vector" d="M2.00781 27.6816C3.63574 25.5037 5.75 23.7361 8.18262 22.52C10.6143 21.304 13.2969 20.6729 16.0166 20.6775" stroke="#141414" stroke-opacity="1.000000" stroke-width="4.000000" stroke-linejoin="round" stroke-linecap="round"/>
	<path id="Vector" d="M19.0508 49.8618C20.5879 46.7131 22.9795 44.0596 25.9512 42.2034C28.9229 40.3472 32.3564 39.363 35.8604 39.363C39.3652 39.363 42.7988 40.3472 45.7705 42.2034C48.7422 44.0596 51.1328 46.7131 52.6709 49.8618" stroke="#141414" stroke-opacity="1.000000" stroke-width="4.000000" stroke-linejoin="round" stroke-linecap="round"/>
	<path id="Vector" d="M16.0166 20.6777C14.2441 20.6794 12.5078 20.1768 11.0098 19.2285C9.5127 18.28 8.31543 16.925 7.55957 15.3218C6.80371 13.7188 6.51953 11.9333 6.74121 10.1748C6.96191 8.41602 7.67871 6.75659 8.80762 5.39014C9.93652 4.02368 11.4316 3.00684 13.1172 2.4585C14.8027 1.90991 16.6094 1.85229 18.3262 2.29248C20.043 2.73291 21.5996 3.65259 22.8135 4.94434C24.0264 6.23633 24.8477 7.84668 25.1797 9.58789" stroke="#141414" stroke-opacity="1.000000" stroke-width="4.000000" stroke-linejoin="round" stroke-linecap="round"/>
	<path id="Vector" d="M46.542 9.58789C46.874 7.84668 47.6953 6.23633 48.9092 4.94434C50.123 3.65259 51.6787 2.73291 53.3955 2.29248C55.1133 1.85229 56.9199 1.90991 58.6055 2.4585C60.291 3.00684 61.7852 4.02368 62.9141 5.39014C64.043 6.75659 64.7607 8.41602 64.9814 10.1748C65.2021 11.9333 64.918 13.7188 64.1621 15.3218C63.4062 16.925 62.21 18.28 60.7119 19.2285C59.2148 20.1768 57.4785 20.6794 55.7061 20.6777" stroke="#141414" stroke-opacity="1.000000" stroke-width="4.000000" stroke-linejoin="round" stroke-linecap="round"/>
</svg>
