<svg width="203.000000" height="75.000000" viewBox="0 0 203 75" fill="none" xmlns="http://www.w3.org/2000/svg" xmlns:xlink="http://www.w3.org/1999/xlink">
	<desc>
			Created with Pixso.
	</desc>
	<defs/>
	<path id="Norto" d="M66.41 13.28C77.83 13.28 85.93 22.33 85.93 36.46C85.93 50.56 77.83 59.62 66.41 59.62C55.02 59.62 46.93 50.53 46.93 36.46C46.93 22.37 55.03 13.28 66.41 13.28ZM178.66 13.28C190.07 13.28 198.17 22.33 198.17 36.46C198.17 50.56 190.07 59.62 178.66 59.62C167.26 59.62 159.18 50.53 159.18 36.46C159.18 22.37 167.28 13.28 178.66 13.28ZM36.65 13.9L40.71 13.9L40.71 59L36.69 59L10.05 21.23L9.7 21.23L9.7 59L5.59 59L5.59 13.9L9.57 13.9L36.3 51.72L36.65 51.72L36.65 13.9ZM96.28 59L92.16 59L92.16 13.9L106.71 13.9C116.29 13.9 121.24 19.52 121.24 27.41C121.24 33.43 118.33 38.06 112.72 39.91L123.13 59L118.38 59L108.49 40.7C107.95 40.74 107.37 40.77 106.77 40.77L96.28 40.77L96.28 59ZM139.11 17.6L124.83 17.6L124.83 13.9L157.52 13.9L157.52 17.6L143.23 17.6L143.23 59L139.11 59L139.11 17.6ZM66.41 55.74C75.32 55.74 81.95 48.58 81.91 36.46C81.91 24.32 75.32 17.16 66.41 17.16C57.56 17.16 50.91 24.3 50.91 36.46C50.91 48.54 57.5 55.74 66.41 55.74ZM178.66 55.74C187.56 55.74 194.19 48.58 194.16 36.46C194.16 24.32 187.56 17.16 178.66 17.16C169.81 17.16 163.16 24.3 163.16 36.46C163.16 48.54 169.75 55.74 178.66 55.74ZM96.28 17.6L96.28 37L106.66 37C113.73 37 117.18 33.31 117.18 27.41C117.18 21.5 113.73 17.6 106.6 17.6L96.28 17.6Z" fill="#FFFFFF" fill-opacity="1.000000" fill-rule="evenodd"/>
</svg>
