<svg width="205.000000" height="52.000000" viewBox="0 0 205 52" fill="none" xmlns="http://www.w3.org/2000/svg" xmlns:xlink="http://www.w3.org/1999/xlink">
	<desc>
			Created with Pixso.
	</desc>
	<defs/>
	<path id="Studio Green" d="M71.7 8.43L68.75 8.43C68.64 7.29 67.73 6.62 66.26 6.62C64.75 6.62 63.92 7.31 63.92 8.25C63.91 9.29 64.96 9.76 66.23 10.05L67.53 10.36C70.06 10.93 71.89 12.22 71.89 14.64C71.89 17.3 69.8 19 66.25 19C62.72 19 60.47 17.37 60.39 14.23L63.36 14.23C63.47 15.68 64.61 16.42 66.21 16.42C67.78 16.42 68.78 15.7 68.79 14.63C68.78 13.65 67.9 13.2 66.32 12.81L64.74 12.42C62.28 11.83 60.77 10.6 60.77 8.45C60.76 5.81 63.09 4.05 66.28 4.05C69.52 4.05 71.65 5.84 71.7 8.43ZM185.12 4.05C188.98 4.05 191.93 6.76 191.93 11.52C191.93 16.28 188.98 18.99 185.12 18.99C181.24 18.99 178.31 16.26 178.31 11.52C178.31 6.76 181.24 4.05 185.12 4.05ZM89.15 6.78L84.7 6.78L84.7 4.25L96.65 4.25L96.65 6.78L92.19 6.78L92.19 18.79L89.15 18.79L89.15 6.78ZM118.91 13.43L118.91 4.25L121.98 4.25L121.98 13.7C121.98 16.87 119.57 19 115.95 19C112.32 19 109.92 16.87 109.92 13.7L109.92 4.25L113 4.25L113 13.43C113 15.09 114.17 16.29 115.95 16.29C117.74 16.29 118.91 15.09 118.91 13.43ZM148.08 11.51C148.08 16.05 145.4 18.79 140.97 18.79L135.81 18.79L135.81 4.25L141.01 4.25C145.4 4.25 148.08 6.98 148.08 11.51ZM161.66 4.25L164.73 4.25L164.73 18.79L161.66 18.79L161.66 4.25ZM185.12 16.27C187.35 16.27 188.82 14.6 188.82 11.52C188.82 8.44 187.35 6.77 185.12 6.77C182.88 6.77 181.43 8.44 181.43 11.52C181.43 14.6 182.88 16.27 185.12 16.27ZM138.89 6.88L138.89 16.16L140.84 16.16C143.57 16.16 145.01 14.75 145.01 11.51C145.01 8.28 143.57 6.88 140.84 6.88L138.89 6.88ZM73.63 32.95L70.5 32.95C70.11 31.59 69.04 30.77 67.46 30.77C65.23 30.77 63.72 32.48 63.72 35.51C63.72 38.55 65.17 40.27 67.48 40.27C69.53 40.27 70.76 39.13 70.8 37.32L67.67 37.32L67.67 35.01L73.76 35.01L73.76 36.84C73.76 40.67 71.14 42.99 67.47 42.99C63.37 42.99 60.6 40.14 60.6 35.53C60.6 30.82 63.56 28.05 67.41 28.05C70.69 28.05 73.23 30.07 73.63 32.95ZM94.25 42.79L91.17 42.79L91.17 28.25L96.91 28.25C100.21 28.25 102.12 30.11 102.12 33C102.12 34.99 101.21 36.43 99.55 37.14L102.64 42.79L99.25 42.79L96.49 37.64L94.25 37.64L94.25 42.79ZM129.23 42.79L119.4 42.79L119.4 28.25L129.2 28.25L129.2 30.78L122.47 30.78L122.47 34.25L128.69 34.25L128.69 36.78L122.47 36.78L122.47 40.26L129.23 40.26L129.23 42.79ZM156.58 42.79L146.75 42.79L146.75 28.25L156.55 28.25L156.55 30.78L149.82 30.78L149.82 34.25L156.05 34.25L156.05 36.78L149.82 36.78L149.82 40.26L156.58 40.26L156.58 42.79ZM183.21 28.25L186.27 28.25L186.27 42.79L183.61 42.79L177.28 33.64L177.18 33.64L177.18 42.79L174.1 42.79L174.1 28.25L176.8 28.25L183.07 37.4L183.21 37.4L183.21 28.25ZM94.25 30.76L94.25 35.17L96.33 35.17C98.1 35.17 98.95 34.44 98.95 33C98.95 31.55 98.1 30.76 96.32 30.76L94.25 30.76Z" fill="#FFFFFF" fill-opacity="1.000000" fill-rule="evenodd"/>
	<path id="Star 8" d="M24.98 -0.31L23.5 17.11L16.15 1.25L20.72 18.12L8.39 5.73L18.45 20.02L2.63 12.59L16.97 22.58L-0.44 21.02L16.46 25.5L-0.44 29.98L16.97 28.41L2.63 38.4L18.45 30.97L8.39 45.26L20.72 32.87L16.15 49.74L23.5 33.88L24.98 51.3L26.45 33.88L33.8 49.74L29.23 32.87L41.56 45.26L31.5 30.97L47.32 38.4L32.98 28.41L50.39 29.98L33.49 25.5L50.39 21.02L32.98 22.58L47.32 12.59L31.5 20.02L41.56 5.73L29.23 18.12L33.8 1.25L26.45 17.11L24.98 -0.31Z" fill="#FFFFFF" fill-opacity="1.000000" fill-rule="evenodd"/>
</svg>
