<svg width="185.000000" height="48.000000" viewBox="0 0 185 48" fill="none" xmlns="http://www.w3.org/2000/svg" xmlns:xlink="http://www.w3.org/1999/xlink">
	<desc>
			Created with Pixso.
	</desc>
	<defs/>
	<path id="Points one" d="M89.6 5.14Q88.65 4.8 87.59 4.8Q86.19 4.8 85 5.31Q83.99 5.74 83.13 6.53Q82.3 7.3 81.79 8.24Q80.98 9.74 80.98 11.68Q80.98 13.96 82 15.62Q82.36 16.2 82.84 16.71Q83.72 17.63 84.8 18.11Q86 18.65 87.44 18.65Q88.71 18.65 89.8 18.21Q91.04 17.72 92.05 16.66Q92.69 15.98 93.12 15.19Q93.95 13.65 93.95 11.65Q93.95 9.8 93.2 8.34Q92.76 7.49 92.06 6.76Q90.95 5.61 89.6 5.14ZM182.41 9.38L182.41 4.8L182.05 4.8Q181.95 5.26 181.79 5.41Q181.75 5.45 181.7 5.48Q181.57 5.57 181.38 5.57Q181.15 5.57 180.6 5.32Q179.42 4.8 178.37 4.8Q177.17 4.8 176.27 5.32Q175.9 5.54 175.59 5.83Q174.95 6.43 174.68 7.17Q174.49 7.7 174.49 8.29Q174.49 8.88 174.68 9.4Q174.76 9.6 174.86 9.79Q175.23 10.48 175.95 11.04Q176.67 11.61 178.37 12.56Q180.07 13.51 180.45 13.81Q181.02 14.24 181.28 14.74Q181.55 15.23 181.55 15.72Q181.55 16.05 181.46 16.34Q181.29 16.84 180.84 17.25Q180.79 17.29 180.73 17.34Q180.04 17.89 178.92 17.89Q178.15 17.89 177.48 17.64Q177.22 17.55 176.98 17.42Q176.09 16.95 175.66 16.24Q175.23 15.54 174.98 14.11L174.62 14.11L174.62 18.65L174.98 18.65Q175.05 18.19 175.19 18.05Q175.22 18.01 175.26 17.99Q175.38 17.9 175.58 17.9Q175.83 17.9 176.78 18.21Q177.73 18.51 178.04 18.56Q178.54 18.65 179.12 18.65Q180.5 18.65 181.5 18.04Q181.83 17.83 182.12 17.56Q182.82 16.92 183.1 16.12Q183.29 15.58 183.29 14.97Q183.29 14.66 183.23 14.36Q183.15 13.9 182.92 13.46Q182.86 13.33 182.79 13.21Q182.44 12.64 181.88 12.2Q181.2 11.67 179.35 10.67Q177.07 9.45 176.46 8.72Q176.19 8.39 176.09 8.02Q176.04 7.83 176.04 7.62Q176.04 7.39 176.1 7.18Q176.24 6.65 176.71 6.2Q176.91 6.02 177.13 5.89Q177.67 5.58 178.39 5.58Q178.61 5.58 178.83 5.61Q179.49 5.7 180.13 6.04Q180.71 6.36 181.11 6.84Q181.28 7.05 181.42 7.28Q181.87 8.07 182.05 9.38L182.41 9.38ZM61.96 16L61.96 12.15Q62.59 12.28 63.15 12.35Q63.7 12.42 64.18 12.42Q66.04 12.42 67.1 11.5Q67.15 11.45 67.21 11.41Q67.58 11.05 67.82 10.62Q68.27 9.82 68.27 8.77Q68.27 8 67.98 7.37Q67.82 7.02 67.57 6.71Q67.16 6.2 66.63 5.86Q66.26 5.62 65.84 5.47Q64.82 5.11 63.04 5.11L58.19 5.11L58.19 5.47L58.68 5.47Q59.34 5.47 59.71 5.79Q59.77 5.84 59.82 5.9Q60.08 6.2 60.08 7.45L60.08 16Q60.08 17.14 59.89 17.44Q59.8 17.57 59.69 17.67Q59.32 17.99 58.68 17.99L58.19 17.99L58.19 18.35L63.86 18.35L63.86 17.99L63.35 17.99Q62.7 17.99 62.33 17.66Q62.28 17.61 62.23 17.56Q61.96 17.25 61.96 16ZM112.19 18.35L112.19 17.99L111.71 17.99Q111.53 17.99 111.35 17.95Q111.08 17.89 110.83 17.75Q110.51 17.58 110.42 17.33Q110.29 17.01 110.29 16L110.29 7.45Q110.29 6.26 110.53 5.95Q110.59 5.87 110.66 5.81Q111.03 5.47 111.71 5.47L112.19 5.47L112.19 5.11L106.52 5.11L106.52 5.47L106.99 5.47Q107.14 5.47 107.29 5.49Q107.6 5.54 107.89 5.7Q108.19 5.88 108.29 6.12Q108.41 6.44 108.41 7.45L108.41 16Q108.41 17.2 108.18 17.51Q108.13 17.58 108.06 17.64Q107.69 17.99 106.99 17.99L106.52 17.99L106.52 18.35L112.19 18.35ZM127.31 5.11L123.72 5.11L123.72 5.47Q124.29 5.47 124.58 5.56Q125.15 5.74 125.45 5.96Q125.75 6.17 126.33 6.84L126.33 16.05Q126.33 17.17 126.11 17.48Q126.05 17.56 125.98 17.63Q125.62 17.99 124.91 17.99L124.45 17.99L124.45 18.35L129.06 18.35L129.06 17.99L128.59 17.99Q127.87 17.99 127.49 17.62Q127.47 17.6 127.45 17.58Q127.18 17.27 127.18 16.05L127.18 7.9L135.92 18.56L136.27 18.56L136.27 7.4Q136.27 6.29 136.48 5.98Q136.54 5.89 136.62 5.81Q136.98 5.47 137.67 5.47L138.14 5.47L138.14 5.11L133.53 5.11L133.53 5.47L133.99 5.47Q134.74 5.47 135.1 5.84Q135.12 5.86 135.13 5.88Q135.41 6.18 135.41 7.4L135.41 15.04L127.31 5.11ZM161.44 8.21L161.3 5.11L150.49 5.11L150.33 8.21L150.7 8.21Q150.77 7.31 151.13 6.79Q151.46 6.3 151.92 6.1Q151.96 6.09 152 6.07Q152.39 5.94 153.32 5.94L154.91 5.94L154.91 16.05Q154.91 17.17 154.7 17.48Q154.63 17.57 154.56 17.64Q154.2 17.99 153.5 17.99L153.03 17.99L153.03 18.35L158.65 18.35L158.65 17.99L158.19 17.99Q157.47 17.99 157.09 17.62Q157.07 17.6 157.05 17.58Q156.78 17.27 156.78 16.05L156.78 5.94L158.65 5.94Q159.47 5.94 159.97 6.2Q160.05 6.25 160.13 6.3Q160.53 6.56 160.78 7.04Q160.97 7.39 161.07 8.21L161.44 8.21ZM85.64 5.93Q86.41 5.52 87.41 5.52Q88.61 5.52 89.49 6.06Q89.99 6.36 90.38 6.84Q91.71 8.51 91.71 11.91Q91.71 15.05 90.5 16.5Q89.86 17.26 89.05 17.63Q88.31 17.96 87.42 17.96Q86.48 17.96 85.74 17.58Q85.1 17.25 84.6 16.63Q83.22 14.88 83.22 11.64Q83.22 8.48 84.55 6.83Q85.03 6.25 85.64 5.93ZM62.87 11.74Q62.47 11.69 61.96 11.59L61.96 6.08Q62.74 5.9 63.24 5.9Q63.95 5.9 64.53 6.18Q64.62 6.22 64.7 6.26Q64.85 6.35 64.99 6.46Q65.43 6.8 65.7 7.37Q65.78 7.55 65.85 7.73Q66.05 8.31 66.05 8.96Q66.05 9.92 65.62 10.6Q65.48 10.81 65.31 11Q64.87 11.47 64.34 11.66Q63.97 11.79 63.56 11.79Q63.27 11.79 62.87 11.74ZM67.18 28.14Q66.23 27.8 65.17 27.8Q63.77 27.8 62.58 28.31Q61.56 28.74 60.71 29.53Q59.88 30.3 59.37 31.24Q58.56 32.74 58.56 34.68Q58.56 36.96 59.58 38.62Q59.93 39.2 60.42 39.71Q61.3 40.63 62.38 41.11Q63.57 41.65 65.01 41.65Q66.28 41.65 67.38 41.21Q68.61 40.72 69.62 39.66Q70.27 38.98 70.69 38.19Q71.53 36.65 71.53 34.65Q71.53 32.8 70.78 31.34Q70.33 30.49 69.64 29.76Q68.53 28.61 67.18 28.14ZM86.93 28.11L83.33 28.11L83.33 28.47Q83.91 28.47 84.19 28.56Q84.77 28.74 85.07 28.96Q85.37 29.17 85.94 29.84L85.94 39.05Q85.94 40.17 85.73 40.48Q85.67 40.56 85.6 40.63Q85.24 40.99 84.53 40.99L84.07 40.99L84.07 41.35L88.68 41.35L88.68 40.99L88.21 40.99Q87.48 40.99 87.11 40.62Q87.09 40.6 87.06 40.58Q86.8 40.27 86.8 39.05L86.8 30.9L95.53 41.56L95.88 41.56L95.88 30.4Q95.88 29.29 96.1 28.98Q96.16 28.89 96.23 28.81Q96.6 28.47 97.29 28.47L97.76 28.47L97.76 28.11L93.15 28.11L93.15 28.47L93.61 28.47Q94.35 28.47 94.71 28.84Q94.73 28.86 94.75 28.88Q95.02 29.18 95.02 30.4L95.02 38.04L86.93 28.11ZM113.52 34.06L113.52 28.83L117.15 28.83Q118.14 28.83 118.53 28.98Q118.95 29.15 119.19 29.46Q119.23 29.52 119.27 29.57Q119.52 29.96 119.72 31.01L120.1 31.01L119.96 28.11L109.75 28.11L109.75 28.47L110.22 28.47Q111.04 28.47 111.39 28.86Q111.65 29.15 111.65 30.41L111.65 39.01Q111.65 39.98 111.53 40.29Q111.49 40.42 111.41 40.52Q111.29 40.67 111.11 40.76Q110.87 40.89 110.62 40.95Q110.42 40.99 110.22 40.99L109.75 40.99L109.75 41.35L119.96 41.35L121.1 38.03L120.71 38.03Q120.07 39.25 119.47 39.85Q119 40.31 118.49 40.47Q117.98 40.63 116.86 40.63L114.62 40.63Q114.07 40.63 113.87 40.51Q113.73 40.43 113.65 40.31Q113.62 40.27 113.6 40.21Q113.52 40.02 113.52 39.14L113.52 34.78L116.43 34.78Q117.26 34.78 117.66 34.97Q118 35.14 118.18 35.41Q118.21 35.46 118.24 35.51Q118.37 35.78 118.51 36.75L118.87 36.75L118.87 32.14L118.51 32.14Q118.45 33.27 117.95 33.72Q117.56 34.06 116.43 34.06L113.52 34.06ZM63.21 28.93Q63.99 28.52 64.98 28.52Q66.19 28.52 67.07 29.06Q67.56 29.36 67.95 29.84Q69.29 31.51 69.29 34.91Q69.29 38.05 68.07 39.5Q67.44 40.26 66.62 40.63Q65.88 40.96 64.99 40.96Q64.06 40.96 63.32 40.58Q62.67 40.25 62.18 39.63Q60.79 37.88 60.79 34.64Q60.79 31.48 62.13 29.83Q62.6 29.25 63.21 28.93Z" fill="#FFFFFF" fill-opacity="1.000000" fill-rule="evenodd"/>
	<path id="Star 8" d="M4.82 12.84L2.77 35.34L23.28 44.81L43.79 35.34L41.74 12.84L23.28 -0.19L4.82 12.84ZM23.28 1.04L5.77 13.39L3.83 34.73L23.28 43.71L42.73 34.73L40.78 13.39L23.28 1.04Z" fill="#FFFFFF" fill-opacity="1.000000" fill-rule="evenodd"/>
	<path id="Star 9" d="M8.18 14.78L6.5 33.18L23.28 40.93L40.05 33.18L38.37 14.78L23.28 4.13L8.18 14.78ZM23.28 5.35L9.14 15.33L7.56 32.57L23.28 39.83L38.99 32.57L37.42 15.33L23.28 5.35Z" fill="#FFFFFF" fill-opacity="1.000000" fill-rule="evenodd"/>
	<path id="Star 10" d="M11.5 16.69L10.19 31.05L23.28 37.1L36.37 31.05L35.06 16.69L23.28 8.38L11.5 16.69ZM23.28 9.6L12.45 17.24L11.25 30.44L23.28 36L35.31 30.44L34.11 17.24L23.28 9.6Z" fill="#FFFFFF" fill-opacity="1.000000" fill-rule="evenodd"/>
	<path id="Star 11" d="M15.17 18.82L14.27 28.7L23.28 32.86L32.29 28.7L31.39 18.82L23.28 13.09L15.17 18.82ZM23.28 14.32L16.12 19.37L15.33 28.08L23.28 31.76L31.23 28.08L30.43 19.37L23.28 14.32Z" fill="#FFFFFF" fill-opacity="1.000000" fill-rule="evenodd"/>
	<rect id="Rectangle 10" x="126.463867" y="28.248047" width="57.534142" height="2.171021" fill="#FFFFFF" fill-opacity="1.000000"/>
	<rect id="Rectangle 11" x="126.463867" y="33.314453" width="57.534142" height="2.171021" fill="#FFFFFF" fill-opacity="1.000000"/>
	<rect id="Rectangle 12" x="126.463867" y="38.501953" width="57.534142" height="2.171021" fill="#FFFFFF" fill-opacity="1.000000"/>
</svg>
