<svg width="246.000000" height="52.000000" viewBox="0 0 246 52" fill="none" xmlns="http://www.w3.org/2000/svg" xmlns:xlink="http://www.w3.org/1999/xlink">
	<desc>
			Created with Pixso.
	</desc>
	<defs/>
	<ellipse id="Ellipse 8" cx="122.888672" cy="25.500977" rx="123.029114" ry="26.312622" fill="#FFFFFF" fill-opacity="1.000000"/>
	<path id="Fortune" d="M74.88 31.7Q76.02 32.13 77.32 32.13Q78.7 32.13 79.89 31.66Q80.31 31.49 80.7 31.27Q81.4 30.87 81.97 30.32Q82.63 29.69 83.09 28.86Q83.21 28.66 83.31 28.44Q83.97 27.06 83.97 25.36Q83.97 23.69 83.32 22.31Q83.22 22.09 83.09 21.87Q82.62 21.04 81.96 20.4Q81.4 19.86 80.7 19.47Q80.3 19.24 79.87 19.07Q78.69 18.6 77.32 18.6Q76.03 18.6 74.9 19.02Q74.41 19.21 73.96 19.47Q73.32 19.83 72.79 20.31Q72.07 20.98 71.55 21.88Q71.38 22.18 71.24 22.5Q70.67 23.81 70.67 25.36Q70.67 26.94 71.25 28.26Q71.39 28.56 71.55 28.85Q72.06 29.74 72.78 30.41Q73.31 30.9 73.96 31.27Q74.4 31.52 74.88 31.7ZM172.53 32L174.26 32L174.26 18.73L172.53 18.73L172.53 29.26L165.58 18.73L163.85 18.73L163.85 32L165.58 32L165.58 21.45L172.53 32ZM189.67 24.59L189.67 20.16L195.06 20.16L195.06 18.73L187.94 18.73L187.94 32L195.06 32L195.06 30.57L189.67 30.57L189.67 26.01L194.5 26.01L194.5 24.59L189.67 24.59ZM58.49 20.16L58.49 18.75L51 18.75L51 32L52.74 32L52.74 26.03L57.41 26.03L57.41 24.63L52.74 24.63L52.74 20.16L58.49 20.16ZM100.81 26.58L103.96 32L106.03 32L102.7 26.45Q104.13 26.14 104.91 25.26Q104.99 25.16 105.07 25.06Q105.38 24.66 105.56 24.2Q105.86 23.49 105.86 22.65Q105.86 21.69 105.48 20.91Q105.42 20.78 105.34 20.65Q105.28 20.54 105.2 20.43Q104.7 19.71 103.8 19.27Q102.77 18.75 101.26 18.75L96.98 18.75L96.98 32L98.72 32L98.72 26.58L100.81 26.58ZM127.43 20.16L127.43 18.75L118.46 18.75L118.46 20.16L122.09 20.16L122.09 32L123.81 32L123.81 20.16L127.43 20.16ZM141.98 27.13L141.98 18.75L140.25 18.75L140.25 27.11Q140.25 28.77 140.9 29.9Q141.31 30.6 141.89 31.07Q142.26 31.37 142.69 31.58Q143.82 32.13 145.23 32.13Q146.63 32.13 147.76 31.58Q148.2 31.37 148.57 31.07Q149.15 30.59 149.56 29.9Q150.23 28.77 150.23 27.11L150.23 18.75L148.5 18.75L148.5 27.13Q148.5 28.9 147.63 29.76Q147.51 29.87 147.38 29.97Q146.56 30.61 145.25 30.61Q143.9 30.61 143.07 29.96Q142.95 29.86 142.84 29.76Q141.98 28.9 141.98 27.13ZM79.32 30.23Q78.41 30.63 77.32 30.63Q76.25 30.63 75.34 30.24Q75.07 30.13 74.82 29.98Q74.46 29.77 74.14 29.5Q73.5 28.94 73.07 28.14Q72.44 26.94 72.44 25.36Q72.44 23.77 73.07 22.58Q73.5 21.78 74.14 21.22Q74.45 20.96 74.81 20.75Q74.99 20.64 75.18 20.55Q76.15 20.1 77.32 20.1Q78.51 20.1 79.48 20.56Q79.66 20.65 79.83 20.75Q80.19 20.96 80.5 21.22Q81.14 21.78 81.57 22.58Q82.2 23.77 82.2 25.36Q82.2 26.94 81.57 28.14Q81.14 28.94 80.5 29.5Q80.19 29.77 79.82 29.98Q79.58 30.12 79.32 30.23ZM101.26 25.2L98.72 25.2L98.72 20.18L101.26 20.18Q102.69 20.18 103.38 20.83Q103.5 20.94 103.61 21.08Q104.07 21.69 104.07 22.65Q104.07 23.52 103.67 24.14Q103.54 24.33 103.37 24.5Q102.67 25.2 101.26 25.2Z" fill="#181818" fill-opacity="1.000000" fill-rule="evenodd"/>
</svg>
