<svg width="187.000000" height="52.000000" viewBox="0 0 187 52" fill="none" xmlns="http://www.w3.org/2000/svg" xmlns:xlink="http://www.w3.org/1999/xlink">
	<desc>
			Created with Pixso.
	</desc>
	<defs/>
	<path id="OutOfThe Sand Box" d="M7.47 3.75C11.19 3.75 13.89 6.62 13.89 11.23C13.89 15.83 11.19 18.7 7.47 18.7C3.75 18.7 1.04 15.83 1.04 11.23C1.04 6.62 3.75 3.75 7.47 3.75ZM83.67 3.75C87.39 3.75 90.09 6.62 90.09 11.23C90.09 15.83 87.39 18.7 83.67 18.7C79.95 18.7 77.25 15.83 77.25 11.23C77.25 6.62 79.95 3.75 83.67 3.75ZM37.69 13.44L37.69 3.95L39.45 3.95L39.45 13.58C39.45 16.56 37.22 18.75 33.8 18.75C30.37 18.75 28.14 16.56 28.14 13.58L28.14 3.95L29.9 3.95L29.9 13.44C29.9 15.57 31.37 17.1 33.8 17.1C36.22 17.1 37.69 15.57 37.69 13.44ZM58.05 5.51L53.48 5.51L53.48 3.95L64.39 3.95L64.39 5.51L59.81 5.51L59.81 18.5L58.05 18.5L58.05 5.51ZM106.1 18.5L104.35 18.5L104.35 3.95L113.07 3.95L113.07 5.51L106.1 5.51L106.1 10.43L112.41 10.43L112.41 11.99L106.1 11.99L106.1 18.5ZM131.16 5.51L126.58 5.51L126.58 3.95L137.49 3.95L137.49 5.51L132.92 5.51L132.92 18.5L131.16 18.5L131.16 5.51ZM153.28 18.5L151.52 18.5L151.52 3.95L153.28 3.95L153.28 10.43L161.03 10.43L161.03 3.95L162.8 3.95L162.8 18.5L161.03 18.5L161.03 11.99L153.28 11.99L153.28 18.5ZM186.51 18.5L177.62 18.5L177.62 3.95L186.4 3.95L186.4 5.51L179.38 5.51L179.38 10.43L185.94 10.43L185.94 11.99L179.38 11.99L179.38 16.93L186.51 16.93L186.51 18.5ZM7.47 17.05C10.11 17.05 12.18 15 12.18 11.23C12.18 7.45 10.11 5.4 7.47 5.4C4.82 5.4 2.75 7.45 2.75 11.23C2.75 15 4.82 17.05 7.47 17.05ZM83.67 17.05C86.31 17.05 88.38 15 88.38 11.23C88.38 7.45 86.31 5.4 83.67 5.4C81.03 5.4 78.95 7.45 78.95 11.23C78.95 15 81.03 17.05 83.67 17.05ZM11.27 31.59L9.57 31.59C9.4 30.15 8.06 29.31 6.3 29.31C4.37 29.31 3.09 30.34 3.09 31.73C3.09 33.29 4.82 33.86 5.9 34.14L7.38 34.54C8.89 34.94 11.47 35.82 11.47 38.55C11.47 40.9 9.57 42.75 6.22 42.75C3.09 42.75 1.16 41.13 0.99 38.75L2.81 38.75C2.95 40.39 4.48 41.16 6.22 41.16C8.23 41.16 9.77 40.11 9.77 38.52C9.77 37.07 8.4 36.53 6.87 36.1L5.08 35.59C2.81 34.94 1.39 33.78 1.39 31.81C1.39 29.37 3.57 27.75 6.36 27.75C9.17 27.75 11.2 29.39 11.27 31.59ZM149.61 27.75C153.33 27.75 156.03 30.62 156.03 35.23C156.03 39.83 153.33 42.7 149.61 42.7C145.89 42.7 143.19 39.83 143.19 35.23C143.19 30.62 145.89 27.75 149.61 27.75ZM27.73 38.37L26.27 42.5L24.42 42.5L29.76 27.95L31.58 27.95L36.92 42.5L35.08 42.5L33.61 38.37L27.73 38.37ZM60.29 27.95L62.03 27.95L62.03 42.5L60.32 42.5L52.4 31.08L52.25 31.08L52.25 42.5L50.49 42.5L50.49 27.95L52.2 27.95L60.15 39.4L60.29 39.4L60.29 27.95ZM88.27 35.2C88.27 39.74 85.77 42.5 81.34 42.5L76.85 42.5L76.85 27.95L81.54 27.95C85.77 27.95 88.27 30.68 88.27 35.2ZM124.71 42.5L119.45 42.5L119.45 27.95L124.53 27.95C127.58 27.95 129 29.68 129 31.81C129 33.69 127.89 34.51 126.64 34.85L126.64 35C127.97 35.08 129.56 36.33 129.56 38.63C129.56 40.82 128.14 42.5 124.71 42.5ZM168.84 27.95L170.91 27.95L174.66 34L174.78 34L178.53 27.95L180.6 27.95L176.03 35.23L180.6 42.5L178.53 42.5L174.78 36.56L174.66 36.56L170.91 42.5L168.84 42.5L173.53 35.23L168.84 27.95ZM149.61 41.05C152.25 41.05 154.33 39 154.33 35.23C154.33 31.45 152.25 29.4 149.61 29.4C146.97 29.4 144.9 31.45 144.9 35.23C144.9 39 146.97 41.05 149.61 41.05ZM78.61 29.51L78.61 40.93L81.23 40.93C84.83 40.93 86.57 38.75 86.57 35.2C86.57 31.67 84.83 29.51 81.42 29.51L78.61 29.51ZM121.21 29.51L121.21 34.34L124.48 34.34C126.07 34.34 127.32 33.35 127.32 31.81C127.32 30.54 126.47 29.51 124.53 29.51L121.21 29.51ZM30.61 30.25L28.28 36.81L33.05 36.81L30.73 30.25L30.61 30.25ZM121.21 35.87L121.21 40.93L124.71 40.93C127.01 40.93 127.89 39.91 127.89 38.63C127.89 37.15 126.69 35.87 124.79 35.87L121.21 35.87Z" fill="#FFFFFF" fill-opacity="1.000000" fill-rule="evenodd"/>
	<rect id="Rectangle 13" x="93.083984" y="34.713867" width="11.004333" height="9.036743" stroke="#FFFFFF" stroke-opacity="1.000000" stroke-width="1.000000"/>
	<rect id="Rectangle 14" x="94.605469" y="36.256836" width="7.972687" height="5.963379" fill="#FFFFFF" fill-opacity="1.000000"/>
</svg>
