<svg width="240.000000" height="47.000000" viewBox="0 0 240 47" fill="none" xmlns="http://www.w3.org/2000/svg" xmlns:xlink="http://www.w3.org/1999/xlink">
	<desc>
			Created with Pixso.
	</desc>
	<defs/>
	<path id="Brand" d="M13.94 38L3.43 38L3.43 8.9L13.6 8.9C19.68 8.9 22.52 12.37 22.52 16.63C22.52 20.38 20.3 22.03 17.8 22.71L17.8 23C20.47 23.16 23.65 25.66 23.65 30.27C23.65 34.65 20.81 38 13.94 38ZM55.57 38L52.05 38L52.05 8.9L61.88 8.9C68.69 8.9 71.77 12.68 71.77 17.83C71.77 21.69 70.03 24.71 66.33 25.97L72.9 38L68.81 38L62.68 26.62C62.43 26.63 62.19 26.63 61.94 26.63L55.57 26.63L55.57 38ZM104.34 29.75L101.41 38L97.72 38L108.4 8.9L112.04 8.9L122.72 38L119.03 38L116.1 29.75L104.34 29.75ZM169.47 8.9L172.93 8.9L172.93 38L169.52 38L153.67 15.15L153.38 15.15L153.38 38L149.87 38L149.87 8.9L153.27 8.9L169.18 31.8L169.47 31.8L169.47 8.9ZM225.42 23.4C225.42 32.49 220.42 38 211.55 38L202.58 38L202.58 8.9L211.96 8.9C220.42 8.9 225.42 14.36 225.42 23.4ZM6.95 12.03L6.95 21.69L13.49 21.69C16.66 21.69 19.16 19.7 19.16 16.63C19.16 14.08 17.46 12.03 13.6 12.03L6.95 12.03ZM55.57 12.03L55.57 23.46L61.82 23.46C66.49 23.46 68.3 21.32 68.3 17.83C68.3 14.33 66.49 12.03 61.77 12.03L55.57 12.03ZM206.1 12.03L206.1 34.87L211.33 34.87C218.55 34.87 222.01 30.5 222.01 23.4C222.01 16.35 218.55 12.03 211.72 12.03L206.1 12.03ZM110.1 13.5L105.45 26.63L114.99 26.63L110.33 13.5L110.1 13.5ZM6.95 24.75L6.95 34.87L13.94 34.87C18.54 34.87 20.3 32.83 20.3 30.27C20.3 27.31 17.91 24.75 14.11 24.75L6.95 24.75Z" fill="#FFFFFF" fill-opacity="1.000000" fill-rule="evenodd"/>
</svg>
