<svg width="175.000000" height="34.000000" viewBox="0 0 175 34" fill="none" xmlns="http://www.w3.org/2000/svg" xmlns:xlink="http://www.w3.org/1999/xlink">
	<desc>
			Created with Pixso.
	</desc>
	<defs/>
	<path id="Consultalk" d="M123.34 25.43Q124.28 26.3 126.01 26.3L127.21 26.3L127.54 23.56Q126.61 23.56 126.21 23.42Q126.14 23.39 126.08 23.35Q125.8 23.17 125.67 22.74Q125.52 22.22 125.52 20.96L125.52 3.5L122.2 3.5L122.2 22.52Q122.2 23.8 122.77 24.73Q122.93 24.99 123.14 25.23Q123.24 25.34 123.34 25.43ZM155.74 25.43Q156.68 26.3 158.41 26.3L159.61 26.3L159.94 23.56Q159.01 23.56 158.61 23.42Q158.54 23.39 158.48 23.35Q158.2 23.17 158.07 22.74Q157.92 22.22 157.92 20.96L157.92 3.5L154.6 3.5L154.6 22.52Q154.6 23.8 155.17 24.73Q155.33 24.99 155.54 25.23Q155.64 25.34 155.74 25.43ZM165.51 3.5L162.16 3.5L162.16 26L165.51 26L165.51 19.04L170.55 26L174.43 26L168.69 18.17L174.3 11.11L170.44 11.11L165.51 17.42L165.51 3.5ZM46.54 25.23Q48.86 26.41 51.79 26.41Q54.75 26.41 57.19 25.28Q57.3 25.23 57.4 25.18L57.04 21.92Q55.71 22.52 54.47 22.82Q53.22 23.12 51.82 23.12Q49.6 23.12 48.04 22.14Q47.41 21.75 46.9 21.23Q46.15 20.47 45.68 19.45Q44.89 17.72 44.89 15.49Q44.89 13.27 45.69 11.55Q46.18 10.52 46.93 9.76Q47.44 9.24 48.08 8.85Q49.66 7.87 51.87 7.87Q54.42 7.87 57.04 9.11L57.4 5.8Q56.28 5.24 54.87 4.91Q53.46 4.57 51.9 4.57Q49.08 4.57 46.79 5.68Q46.55 5.8 46.32 5.93Q45.2 6.54 44.3 7.39Q43.22 8.4 42.46 9.75Q41.07 12.23 41.07 15.49Q41.07 18.77 42.43 21.24Q43.2 22.62 44.29 23.65Q45.16 24.47 46.24 25.06Q46.39 25.15 46.54 25.23ZM131.9 25.45Q132.88 26.3 134.59 26.3L137.17 26.3L137.47 23.56L136.57 23.56Q135.28 23.56 134.78 23.42Q134.53 23.34 134.37 23.18Q134.21 23.02 134.14 22.77Q133.99 22.27 133.99 20.96L133.99 13.81L137.5 13.81L137.5 11.11L133.99 11.11L133.99 7.33L130.63 7.69L130.63 11.11L128.68 11.11L128.38 13.81L130.63 13.81L130.63 22.52Q130.63 23.42 130.96 24.17Q131.21 24.72 131.63 25.19Q131.76 25.33 131.9 25.45ZM62.56 25.33Q64.23 26.3 66.46 26.3Q68.79 26.3 70.5 25.26Q71.42 24.7 72.11 23.93Q72.7 23.27 73.11 22.46Q73.28 22.13 73.42 21.78Q74.01 20.29 74.01 18.55Q74.01 16.79 73.4 15.28Q73.27 14.97 73.11 14.66Q72.68 13.81 72.06 13.13Q71.39 12.39 70.5 11.85Q70.49 11.85 70.48 11.84Q68.78 10.81 66.46 10.81Q64.25 10.81 62.59 11.76Q62.51 11.8 62.43 11.85Q61.58 12.37 60.93 13.07Q60.27 13.77 59.81 14.66Q59.63 15.01 59.49 15.37Q58.9 16.84 58.9 18.55Q58.9 20.24 59.47 21.7Q59.62 22.09 59.81 22.46Q60.25 23.31 60.88 23.99Q61.55 24.72 62.43 25.26Q62.49 25.3 62.56 25.33ZM93.9 25.71Q95.63 26.3 97.56 26.3Q100.48 26.3 101.91 25.08Q102.51 24.58 102.86 23.94Q103.36 23.03 103.36 21.86Q103.36 20.45 102.68 19.54Q102.51 19.31 102.29 19.11Q101.23 18.14 99.21 17.38Q97.89 16.91 97.28 16.63Q96.66 16.36 96.33 15.98Q96.28 15.91 96.23 15.84Q96 15.49 96 14.99Q96 14.49 96.23 14.13Q96.37 13.91 96.6 13.74Q97.2 13.3 98.32 13.3Q99.33 13.3 100.21 13.63Q100.3 13.66 100.38 13.7Q101.34 14.09 102.33 14.8L102.67 11.9Q102.41 11.75 102.15 11.63Q100.39 10.81 98.25 10.81Q95.62 10.81 94.16 12.04Q93.45 12.64 93.09 13.41Q92.71 14.21 92.71 15.19Q92.71 16.64 93.41 17.55Q93.59 17.78 93.83 17.98Q94.96 18.94 97.15 19.7Q98.65 20.24 99.31 20.68Q99.55 20.85 99.7 21.07Q99.97 21.46 99.97 22.03Q99.97 22.49 99.76 22.82Q99.6 23.08 99.32 23.26Q98.68 23.66 97.45 23.66Q97.43 23.66 97.41 23.66Q95.11 23.65 92.82 22.16L92.5 25.12Q93.18 25.47 93.9 25.71ZM87.76 11.96Q86.39 10.85 84.12 10.85Q82.93 10.85 81.86 11.21Q80.75 11.58 79.78 12.34L79.65 11.11L76.69 11.11L76.69 26L80.04 26L80.04 15.13Q80.43 14.63 80.94 14.3Q81.9 13.67 83.29 13.67Q84.82 13.67 85.59 14.43Q85.71 14.55 85.81 14.69Q86.58 15.7 86.58 17.92L86.58 26L89.92 26L89.92 17.72Q89.92 14.5 88.47 12.68Q88.15 12.27 87.76 11.96ZM140.9 25.75Q141.88 26.3 143.16 26.3Q144.41 26.3 145.51 25.88Q145.63 25.84 145.74 25.79Q146.94 25.28 147.73 24.41Q148.15 25.23 148.82 25.71Q148.91 25.77 148.99 25.82Q149.79 26.3 151.24 26.3L152.17 26.3L152.55 23.56L152.14 23.56Q151.48 23.56 151.19 23.36Q150.91 23.15 150.8 22.63Q150.69 22.1 150.69 20.93L150.69 17.24Q150.69 13.81 149.37 12.34Q149.25 12.2 149.12 12.07Q147.8 10.85 145.35 10.85Q144.28 10.85 143.25 11.05Q141.6 11.38 140.04 12.23L140.4 14.96Q141.57 14.33 142.52 14.04Q143.3 13.81 144.09 13.76Q144.26 13.76 144.42 13.76Q145.95 13.76 146.61 14.37Q147.27 14.99 147.3 16.55Q145.38 16.61 143.45 17.1Q141.61 17.57 140.27 18.65Q140.2 18.71 140.13 18.77Q139.59 19.23 139.26 19.81Q138.75 20.71 138.75 21.89Q138.75 23.28 139.38 24.3Q139.64 24.72 140 25.08Q140.41 25.48 140.9 25.75ZM118.65 26L118.65 11.11L115.3 11.11L115.3 22.03Q114.88 22.58 114.33 22.91Q113.46 23.45 112.27 23.45Q111.02 23.45 110.3 22.83Q110.06 22.63 109.88 22.37Q109.15 21.29 109.15 19.07L109.15 11.11L105.78 11.11L105.78 19.34Q105.78 22.69 107.26 24.49Q107.48 24.76 107.73 24.99Q109.19 26.3 111.81 26.3Q112.56 26.3 113.26 26.1Q113.54 26.02 113.81 25.91Q114.76 25.51 115.42 24.85L115.56 26L118.65 26ZM68.7 22.87Q67.77 23.48 66.46 23.48Q65.14 23.48 64.21 22.87Q63.77 22.58 63.42 22.16Q62.35 20.83 62.35 18.55Q62.35 16.31 63.42 14.97Q63.79 14.52 64.25 14.22Q65.17 13.63 66.46 13.63Q67.74 13.63 68.65 14.22Q69.12 14.52 69.49 14.97Q70.59 16.31 70.59 18.55Q70.59 20.83 69.49 22.16Q69.14 22.59 68.7 22.87ZM145.94 23.31Q145.11 23.69 144.37 23.69Q143.21 23.69 142.68 23.11Q142.23 22.63 142.23 21.73Q142.23 21.21 142.44 20.77Q142.77 20.08 143.63 19.64Q145.02 18.91 147.34 18.82L147.34 22.27Q147.19 22.44 147.03 22.6Q146.55 23.03 145.94 23.31Z" fill="#262626" fill-opacity="1.000000" fill-rule="evenodd"/>
	<path id="Union" d="M26.7 25.55C28.23 25.55 29.48 24.3 29.48 22.77L29.48 6.87C29.48 5.34 28.23 4.1 26.7 4.1L2.51 4.1C0.98 4.1 -0.26 5.34 -0.26 6.87L-0.26 22.77C-0.26 24.3 0.98 25.55 2.51 25.55L13.84 25.55C13.84 25.55 13.85 25.55 13.85 25.56L21.02 32.73C21.6 33.31 22.6 32.9 22.6 32.08L22.6 25.55L26.7 25.55Z" fill="#FFCC4A" fill-opacity="1.000000" fill-rule="nonzero"/>
	<rect id="Rectangle 15" x="7.311523" y="17.734375" rx="0.775175" width="13.869875" height="1.550351" fill="#1B1B1B" fill-opacity="1.000000"/>
	<rect id="Rectangle 16" x="7.311523" y="13.740234" rx="0.775175" width="13.869875" height="1.550351" fill="#1B1B1B" fill-opacity="1.000000"/>
	<rect id="Rectangle 17" x="7.311523" y="10.159180" rx="0.775175" width="13.869875" height="1.550351" fill="#1B1B1B" fill-opacity="1.000000"/>
</svg>
