<svg width="22.000000" height="22.000000" viewBox="0 0 22 22" fill="none" xmlns="http://www.w3.org/2000/svg" xmlns:xlink="http://www.w3.org/1999/xlink">
	<desc>
			Created with Pixso.
	</desc>
	<defs/>
	<path id="Icon" d="M-0.22 10.69C-0.22 12.82 0.41 14.9 1.59 16.67C2.78 18.44 4.46 19.82 6.42 20.63C8.39 21.45 10.55 21.66 12.64 21.25C14.73 20.83 16.65 19.81 18.15 18.3C19.66 16.79 20.68 14.88 21.1 12.79C21.51 10.7 21.3 8.54 20.48 6.57C19.67 4.61 18.29 2.92 16.52 1.74C14.75 0.56 12.67 -0.07 10.54 -0.07C7.69 -0.07 4.95 1.07 2.94 3.09C0.92 5.1 -0.21 7.84 -0.22 10.69ZM9.86 6.35L14 10.08C14.08 10.16 14.15 10.25 14.2 10.36C14.24 10.46 14.27 10.58 14.27 10.69C14.27 10.81 14.24 10.92 14.2 11.02C14.15 11.13 14.08 11.22 14 11.3L9.86 15.03C9.7 15.17 9.48 15.24 9.27 15.23C9.05 15.22 8.85 15.12 8.7 14.96C8.56 14.8 8.48 14.59 8.49 14.38C8.49 14.16 8.58 13.95 8.74 13.81L12.2 10.69L8.74 7.58C8.66 7.5 8.59 7.41 8.54 7.32C8.49 7.22 8.47 7.11 8.46 7C8.45 6.89 8.47 6.78 8.51 6.67C8.54 6.57 8.6 6.48 8.68 6.39C8.75 6.31 8.84 6.25 8.94 6.2C9.04 6.15 9.15 6.13 9.26 6.13C9.37 6.12 9.48 6.14 9.58 6.18C9.69 6.22 9.78 6.28 9.86 6.35Z" fill="#181818" fill-opacity="1.000000" fill-rule="nonzero"/>
</svg>
